<svg width="227" height="177" viewBox="0 0 227 177" fill="none" xmlns="http://www.w3.org/2000/svg">
<g clip-path="url(#clip0_1260:17097)">
<path d="M210.475 113.569C210.509 134.614 203.665 155.094 190.986 171.89H35.9897C28.4598 161.912 22.938 150.567 19.7306 138.485C19.5455 137.781 19.3648 137.076 19.1958 136.366C17.3994 128.9 16.4945 121.248 16.5 113.569C16.5 60.0032 59.9237 16.5796 113.488 16.5796C143.339 16.5796 170.042 30.0671 187.834 51.2806C188.361 51.9072 188.88 52.5415 189.389 53.1837C203.072 70.3326 210.509 91.6295 210.475 113.569Z" fill="#0084FF"/>
<path d="M210.475 113.569C210.509 134.614 203.665 155.094 190.986 171.89H35.9897C28.4598 161.912 22.938 150.567 19.7306 138.485C19.5455 137.781 19.3648 137.076 19.1958 136.366C17.3994 128.9 16.4945 121.248 16.5 113.569C16.5 60.0032 59.9237 16.5796 113.488 16.5796C143.339 16.5796 170.042 30.0671 187.834 51.2806C188.361 51.9072 188.88 52.5415 189.389 53.1837C203.072 70.3326 210.509 91.6295 210.475 113.569Z" fill="white" fill-opacity="0.9"/>
<g clip-path="url(#clip1_1260:17097)">
<path d="M212.547 77.7303L138.153 76.6476C135.806 76.6135 133.569 75.6485 131.933 73.9649C130.298 72.2814 129.398 70.0171 129.432 67.6701L130.347 4.97561L130.191 4.97077L133.092 0.458042L138.574 5.09538L141.478 0.580794L146.961 5.21767L149.864 0.702283L155.346 5.33962L158.251 0.824571L163.733 5.46191L166.636 0.946524L172.122 5.58742L175.025 1.07283L180.508 5.71017L183.412 1.19432L188.894 5.83166L191.798 1.31708L197.281 5.95395L200.184 1.43937L205.668 6.07083L208.572 1.55497L214.054 6.19231L216.956 1.6828L222.439 6.31968L221.526 69.0091C221.509 70.1714 221.263 71.319 220.803 72.3863C220.343 73.4537 219.677 74.4199 218.843 75.2297C218.009 76.0396 217.024 76.6773 215.944 77.1063C214.863 77.5354 213.709 77.7474 212.547 77.7303Z" fill="white"/>
<path d="M212.547 77.7303L138.153 76.6476C135.806 76.6135 133.569 75.6485 131.933 73.9649C130.298 72.2814 129.398 70.0171 129.432 67.6701L130.347 4.97561L130.191 4.97077L133.092 0.458042L138.574 5.09538L141.478 0.580794L146.961 5.21767L149.864 0.702283L155.346 5.33962L158.251 0.824571L163.733 5.46191L166.636 0.946524L172.122 5.58742L175.025 1.07283L180.508 5.71017L183.412 1.19432L188.894 5.83166L191.798 1.31708L197.281 5.95395L200.184 1.43937L205.668 6.07083L208.572 1.55497L214.054 6.19231L216.956 1.6828L222.439 6.31968L221.526 69.0091C221.509 70.1714 221.263 71.319 220.803 72.3863C220.343 73.4537 219.677 74.4199 218.843 75.2297C218.009 76.0396 217.024 76.6773 215.944 77.1063C214.863 77.5354 213.709 77.7474 212.547 77.7303Z" fill="#010D1F" fill-opacity="0.13"/>
<path d="M181.773 61.3976L140.144 60.7928C139.516 60.7837 138.91 61.0245 138.459 61.4622C138.009 61.8998 137.751 62.4985 137.742 63.1265C137.733 63.7545 137.973 64.3604 138.411 64.8109C138.849 65.2614 139.447 65.5196 140.075 65.5287L181.705 66.1335C182.333 66.1426 182.939 65.9018 183.389 65.4641C183.84 65.0265 184.098 64.4278 184.107 63.7998C184.116 63.1718 183.875 62.5659 183.438 62.1154C183 61.6649 182.401 61.4067 181.773 61.3976Z" fill="#0084FF"/>
<path d="M181.773 61.3976L140.144 60.7928C139.516 60.7837 138.91 61.0245 138.459 61.4622C138.009 61.8998 137.751 62.4985 137.742 63.1265C137.733 63.7545 137.973 64.3604 138.411 64.8109C138.849 65.2614 139.447 65.5196 140.075 65.5287L181.705 66.1335C182.333 66.1426 182.939 65.9018 183.389 65.4641C183.84 65.0265 184.098 64.4278 184.107 63.7998C184.116 63.1718 183.875 62.5659 183.438 62.1154C183 61.6649 182.401 61.4067 181.773 61.3976Z" fill="white" fill-opacity="0.4"/>
<path d="M210.856 61.818L203.495 61.711C202.867 61.7021 202.261 61.9432 201.81 62.3812C201.36 62.8192 201.101 63.4183 201.093 64.0466C201.084 64.6749 201.325 65.2811 201.763 65.7317C202.201 66.1823 202.8 66.4404 203.428 66.4493L210.788 66.5563C211.41 66.5546 212.005 66.309 212.447 65.8725C212.889 65.4359 213.142 64.8432 213.151 64.2222C213.16 63.6011 212.925 63.0013 212.496 62.552C212.067 62.1026 211.479 61.8398 210.858 61.8199L210.856 61.818Z" fill="#0084FF"/>
<path d="M210.856 61.818L203.495 61.711C202.867 61.7021 202.261 61.9432 201.81 62.3812C201.36 62.8192 201.101 63.4183 201.093 64.0466C201.084 64.6749 201.325 65.2811 201.763 65.7317C202.201 66.1823 202.8 66.4404 203.428 66.4493L210.788 66.5563C211.41 66.5546 212.005 66.309 212.447 65.8725C212.889 65.4359 213.142 64.8432 213.151 64.2222C213.16 63.6011 212.925 63.0013 212.496 62.552C212.067 62.1026 211.479 61.8398 210.858 61.8199L210.856 61.818Z" fill="white" fill-opacity="0.4"/>
<path d="M211.08 46.4964L203.719 46.3895C203.408 46.385 203.099 46.4418 202.81 46.5566C202.521 46.6715 202.258 46.8421 202.035 47.0588C201.812 47.2755 201.634 47.5341 201.51 47.8196C201.387 48.1052 201.322 48.4122 201.317 48.7232C201.313 49.0341 201.369 49.343 201.484 49.632C201.599 49.921 201.77 50.1845 201.986 50.4076C202.203 50.6307 202.462 50.8089 202.747 50.932C203.033 51.0552 203.34 51.1209 203.651 51.1254L211.011 51.2323C211.322 51.2368 211.631 51.18 211.92 51.0652C212.209 50.9503 212.472 50.7797 212.695 50.563C212.919 50.3463 213.097 50.0878 213.22 49.8022C213.343 49.5166 213.409 49.2096 213.413 48.8986C213.418 48.5877 213.361 48.2789 213.246 47.9898C213.131 47.7008 212.961 47.4373 212.744 47.2142C212.527 46.9911 212.269 46.8129 211.983 46.6898C211.698 46.5666 211.391 46.5009 211.08 46.4964Z" fill="#0084FF"/>
<path d="M211.08 46.4964L203.719 46.3895C203.408 46.385 203.099 46.4418 202.81 46.5566C202.521 46.6715 202.258 46.8421 202.035 47.0588C201.812 47.2755 201.634 47.5341 201.51 47.8196C201.387 48.1052 201.322 48.4122 201.317 48.7232C201.313 49.0341 201.369 49.343 201.484 49.632C201.599 49.921 201.77 50.1845 201.986 50.4076C202.203 50.6307 202.462 50.8089 202.747 50.932C203.033 51.0552 203.34 51.1209 203.651 51.1254L211.011 51.2323C211.322 51.2368 211.631 51.18 211.92 51.0652C212.209 50.9503 212.472 50.7797 212.695 50.563C212.919 50.3463 213.097 50.0878 213.22 49.8022C213.343 49.5166 213.409 49.2096 213.413 48.8986C213.418 48.5877 213.361 48.2789 213.246 47.9898C213.131 47.7008 212.961 47.4373 212.744 47.2142C212.527 46.9911 212.269 46.8129 211.983 46.6898C211.698 46.5666 211.391 46.5009 211.08 46.4964Z" fill="white" fill-opacity="0.4"/>
<path d="M191.17 46.2066L140.372 45.4694C139.744 45.4602 139.138 45.7008 138.688 46.1383C138.237 46.5758 137.979 47.1744 137.97 47.8023C137.96 48.4303 138.201 49.0362 138.638 49.4868C139.076 49.9374 139.674 50.1957 140.302 50.205L191.102 50.9449C191.413 50.9494 191.722 50.8926 192.011 50.7778C192.3 50.6629 192.564 50.4923 192.787 50.2756C193.01 50.0589 193.188 49.8003 193.311 49.5148C193.434 49.2292 193.5 48.9222 193.505 48.6112C193.509 48.3002 193.452 47.9914 193.338 47.7024C193.223 47.4134 193.052 47.1499 192.835 46.9268C192.619 46.7037 192.36 46.5255 192.075 46.4024C191.789 46.2792 191.482 46.2135 191.171 46.209L191.17 46.2066Z" fill="#0084FF"/>
<path d="M191.17 46.2066L140.372 45.4694C139.744 45.4602 139.138 45.7008 138.688 46.1383C138.237 46.5758 137.979 47.1744 137.97 47.8023C137.96 48.4303 138.201 49.0362 138.638 49.4868C139.076 49.9374 139.674 50.1957 140.302 50.205L191.102 50.9449C191.413 50.9494 191.722 50.8926 192.011 50.7778C192.3 50.6629 192.564 50.4923 192.787 50.2756C193.01 50.0589 193.188 49.8003 193.311 49.5148C193.434 49.2292 193.5 48.9222 193.505 48.6112C193.509 48.3002 193.452 47.9914 193.338 47.7024C193.223 47.4134 193.052 47.1499 192.835 46.9268C192.619 46.7037 192.36 46.5255 192.075 46.4024C191.789 46.2792 191.482 46.2135 191.171 46.209L191.17 46.2066Z" fill="white" fill-opacity="0.4"/>
<path d="M182.217 30.7458L140.588 30.141C139.969 30.1466 139.377 30.394 138.939 30.8304C138.5 31.2668 138.25 31.8575 138.241 32.4761C138.233 33.0947 138.467 33.6921 138.893 34.1404C139.319 34.5888 139.904 34.8524 140.522 34.8751L182.152 35.4798C182.463 35.4843 182.772 35.4275 183.061 35.3127C183.35 35.1978 183.613 35.0272 183.837 34.8105C184.06 34.5938 184.238 34.3353 184.361 34.0497C184.484 33.7641 184.55 33.4571 184.554 33.1461C184.559 32.8352 184.502 32.5264 184.387 32.2374C184.272 31.9483 184.102 31.6848 183.885 31.4617C183.668 31.2386 183.41 31.0605 183.124 30.9373C182.839 30.8141 182.532 30.7484 182.221 30.7439L182.217 30.7458Z" fill="#0084FF"/>
<path d="M182.217 30.7458L140.588 30.141C139.969 30.1466 139.377 30.394 138.939 30.8304C138.5 31.2668 138.25 31.8575 138.241 32.4761C138.233 33.0947 138.467 33.6921 138.893 34.1404C139.319 34.5888 139.904 34.8524 140.522 34.8751L182.152 35.4798C182.463 35.4843 182.772 35.4275 183.061 35.3127C183.35 35.1978 183.613 35.0272 183.837 34.8105C184.06 34.5938 184.238 34.3353 184.361 34.0497C184.484 33.7641 184.55 33.4571 184.554 33.1461C184.559 32.8352 184.502 32.5264 184.387 32.2374C184.272 31.9483 184.102 31.6848 183.885 31.4617C183.668 31.2386 183.41 31.0605 183.124 30.9373C182.839 30.8141 182.532 30.7484 182.221 30.7439L182.217 30.7458Z" fill="white" fill-opacity="0.4"/>
<path d="M211.303 31.1718L203.945 31.0681C203.323 31.0697 202.728 31.3153 202.286 31.7519C201.844 32.1884 201.591 32.7811 201.582 33.4022C201.573 34.0233 201.809 34.6231 202.237 35.0724C202.666 35.5217 203.254 35.7846 203.875 35.8044L211.236 35.9114C211.55 35.9214 211.863 35.8688 212.157 35.7565C212.451 35.6442 212.719 35.4745 212.947 35.2573C213.174 35.0402 213.356 34.7799 213.482 34.4916C213.608 34.2034 213.675 33.893 213.68 33.5785C213.684 33.264 213.626 32.9517 213.509 32.6599C213.392 32.3681 213.217 32.1026 212.996 31.8789C212.775 31.6552 212.512 31.4777 212.221 31.3568C211.931 31.236 211.62 31.1742 211.305 31.175L211.303 31.1718Z" fill="#0084FF"/>
<path d="M211.303 31.1718L203.945 31.0681C203.323 31.0697 202.728 31.3153 202.286 31.7519C201.844 32.1884 201.591 32.7811 201.582 33.4022C201.573 34.0233 201.809 34.6231 202.237 35.0724C202.666 35.5217 203.254 35.7846 203.875 35.8044L211.236 35.9114C211.55 35.9214 211.863 35.8688 212.157 35.7565C212.451 35.6442 212.719 35.4745 212.947 35.2573C213.174 35.0402 213.356 34.7799 213.482 34.4916C213.608 34.2034 213.675 33.893 213.68 33.5785C213.684 33.264 213.626 32.9517 213.509 32.6599C213.392 32.3681 213.217 32.1026 212.996 31.8789C212.775 31.6552 212.512 31.4777 212.221 31.3568C211.931 31.236 211.62 31.1742 211.305 31.175L211.303 31.1718Z" fill="white" fill-opacity="0.4"/>
<path d="M182.44 15.4259L140.811 14.8211C140.183 14.8121 139.577 15.0528 139.126 15.4905C138.676 15.9281 138.418 16.5268 138.409 17.1548C138.399 17.7828 138.64 18.3887 139.078 18.8392C139.516 19.2897 140.114 19.5479 140.742 19.557L182.371 20.161C182.684 20.1678 182.994 20.1127 183.285 19.999C183.576 19.8852 183.842 19.715 184.067 19.4982C184.291 19.2813 184.471 19.0221 184.595 18.7355C184.72 18.4489 184.786 18.1405 184.791 17.8282C184.795 17.5158 184.738 17.2056 184.622 16.9155C184.506 16.6254 184.334 16.3611 184.116 16.1378C183.897 15.9145 183.637 15.7366 183.349 15.6144C183.062 15.4922 182.753 15.4282 182.44 15.4259Z" fill="#0084FF"/>
<path d="M182.44 15.4259L140.811 14.8211C140.183 14.8121 139.577 15.0528 139.126 15.4905C138.676 15.9281 138.418 16.5268 138.409 17.1548C138.399 17.7828 138.64 18.3887 139.078 18.8392C139.516 19.2897 140.114 19.5479 140.742 19.557L182.371 20.161C182.684 20.1678 182.994 20.1127 183.285 19.999C183.576 19.8852 183.842 19.715 184.067 19.4982C184.291 19.2813 184.471 19.0221 184.595 18.7355C184.72 18.4489 184.786 18.1405 184.791 17.8282C184.795 17.5158 184.738 17.2056 184.622 16.9155C184.506 16.6254 184.334 16.3611 184.116 16.1378C183.897 15.9145 183.637 15.7366 183.349 15.6144C183.062 15.4922 182.753 15.4282 182.44 15.4259Z" fill="white" fill-opacity="0.4"/>
<path d="M211.526 15.8473L204.166 15.7404C203.85 15.7264 203.533 15.776 203.236 15.8863C202.94 15.9966 202.668 16.1654 202.437 16.3826C202.207 16.5999 202.022 16.8612 201.894 17.1511C201.766 17.441 201.698 17.7536 201.693 18.0703C201.689 18.3871 201.747 18.7016 201.866 18.9952C201.985 19.2888 202.162 19.5556 202.386 19.7797C202.61 20.0038 202.877 20.1806 203.17 20.2998C203.464 20.419 203.778 20.4781 204.095 20.4736L211.456 20.5813C212.077 20.5796 212.672 20.3341 213.114 19.8975C213.556 19.4609 213.809 18.8682 213.818 18.2472C213.827 17.6261 213.592 17.0263 213.163 16.577C212.734 16.1276 212.146 15.8648 211.525 15.8449L211.526 15.8473Z" fill="#0084FF"/>
<path d="M211.526 15.8473L204.166 15.7404C203.85 15.7264 203.533 15.776 203.236 15.8863C202.94 15.9966 202.668 16.1654 202.437 16.3826C202.207 16.5999 202.022 16.8612 201.894 17.1511C201.766 17.441 201.698 17.7536 201.693 18.0703C201.689 18.3871 201.747 18.7016 201.866 18.9952C201.985 19.2888 202.162 19.5556 202.386 19.7797C202.61 20.0038 202.877 20.1806 203.17 20.2998C203.464 20.419 203.778 20.4781 204.095 20.4736L211.456 20.5813C212.077 20.5796 212.672 20.3341 213.114 19.8975C213.556 19.4609 213.809 18.8682 213.818 18.2472C213.827 17.6261 213.592 17.0263 213.163 16.577C212.734 16.1276 212.146 15.8648 211.525 15.8449L211.526 15.8473Z" fill="white" fill-opacity="0.4"/>
<path d="M199.648 49.541L113.193 48.2821C110.846 48.2474 108.582 49.1464 106.898 50.7812C105.214 52.416 104.248 54.6528 104.213 56.9995L103.301 119.695L103.142 119.692L105.912 124.291L111.53 119.814L114.301 124.412L119.914 119.936L122.683 124.535L128.301 120.058L131.072 124.657L136.685 120.18L139.46 124.779L145.073 120.303L147.843 124.901L153.461 120.424L156.231 125.023L161.844 120.547L164.619 125.145L170.232 120.669L173.002 125.267L178.62 120.791L181.39 125.389L187.003 120.913L189.778 125.511L195.39 121.034L196.305 58.2604C196.347 56.7273 196.972 55.2679 198.051 54.1785C199.131 53.0892 200.585 52.4517 202.117 52.3956C203.65 52.3395 205.147 52.8689 206.303 53.8763C207.459 54.8837 208.189 56.2936 208.343 57.8195C208.201 55.5988 207.227 53.5133 205.615 51.9789C204.004 50.4445 201.873 49.574 199.648 49.541Z" fill="white"/>
<path d="M208.366 58.4367L208.086 77.6647L196.025 77.4893L196.306 58.2612C196.348 56.7281 196.972 55.2687 198.052 54.1793C199.132 53.09 200.585 52.4525 202.118 52.3964C203.651 52.3402 205.147 52.8697 206.304 53.8771C207.46 54.8845 208.19 56.2944 208.344 57.8203C208.353 57.8996 208.357 57.9842 208.361 58.0676C208.365 58.1888 208.368 58.3101 208.366 58.4367Z" fill="white"/>
<path d="M208.366 58.4367L208.086 77.6647L196.025 77.4893L196.306 58.2612C196.348 56.7281 196.972 55.2687 198.052 54.1793C199.132 53.09 200.585 52.4525 202.118 52.3964C203.651 52.3402 205.147 52.8697 206.304 53.8771C207.46 54.8845 208.19 56.2944 208.344 57.8203C208.353 57.8996 208.357 57.9842 208.361 58.0676C208.365 58.1888 208.368 58.3101 208.366 58.4367Z" fill="#010D1F" fill-opacity="0.2"/>
<path d="M156.092 64.7914L114.463 64.1875C114.149 64.1883 113.837 64.1265 113.547 64.0056C113.256 63.8848 112.993 63.7073 112.772 63.4836C112.551 63.2599 112.376 62.9944 112.259 62.7026C112.142 62.4108 112.084 62.0985 112.088 61.784C112.093 61.4695 112.16 61.1591 112.286 60.8709C112.412 60.5826 112.594 60.3223 112.821 60.1052C113.049 59.888 113.317 59.7183 113.611 59.606C113.905 59.4937 114.218 59.4411 114.532 59.4511L156.162 60.0551C156.782 60.0749 157.371 60.3378 157.799 60.7871C158.228 61.2364 158.464 61.8362 158.454 62.4573C158.445 63.0784 158.193 63.671 157.751 64.1076C157.309 64.5442 156.713 64.7898 156.092 64.7914Z" fill="#0084FF"/>
<path d="M156.092 64.7914L114.463 64.1875C114.149 64.1883 113.837 64.1265 113.547 64.0056C113.256 63.8848 112.993 63.7073 112.772 63.4836C112.551 63.2599 112.376 62.9944 112.259 62.7026C112.142 62.4108 112.084 62.0985 112.088 61.784C112.093 61.4695 112.16 61.1591 112.286 60.8709C112.412 60.5826 112.594 60.3223 112.821 60.1052C113.049 59.888 113.317 59.7183 113.611 59.606C113.905 59.4937 114.218 59.4411 114.532 59.4511L156.162 60.0551C156.782 60.0749 157.371 60.3378 157.799 60.7871C158.228 61.2364 158.464 61.8362 158.454 62.4573C158.445 63.0784 158.193 63.671 157.751 64.1076C157.309 64.5442 156.713 64.7898 156.092 64.7914Z" fill="white" fill-opacity="0.4"/>
<path d="M185.176 65.2145L177.815 65.1076C177.187 65.0985 176.589 64.8403 176.151 64.3898C175.714 63.9393 175.473 63.3334 175.482 62.7054C175.491 62.0773 175.749 61.4787 176.2 61.041C176.65 60.6034 177.256 60.3626 177.884 60.3717L185.244 60.4786C185.872 60.4877 186.471 60.7459 186.909 61.1964C187.346 61.6469 187.587 62.2528 187.578 62.8808C187.569 63.5088 187.311 64.1075 186.86 64.5452C186.41 64.9828 185.804 65.2236 185.176 65.2145Z" fill="#0084FF"/>
<path d="M185.176 65.2145L177.815 65.1076C177.187 65.0985 176.589 64.8403 176.151 64.3898C175.714 63.9393 175.473 63.3334 175.482 62.7054C175.491 62.0773 175.749 61.4787 176.2 61.041C176.65 60.6034 177.256 60.3626 177.884 60.3717L185.244 60.4786C185.872 60.4877 186.471 60.7459 186.909 61.1964C187.346 61.6469 187.587 62.2528 187.578 62.8808C187.569 63.5088 187.311 64.1075 186.86 64.5452C186.41 64.9828 185.804 65.2236 185.176 65.2145Z" fill="white" fill-opacity="0.4"/>
<path d="M165.042 80.2493L114.244 79.5097C113.926 79.5162 113.61 79.4587 113.315 79.3406C113.02 79.2225 112.752 79.0461 112.526 78.8221C112.301 78.5981 112.123 78.331 112.003 78.0367C111.883 77.7424 111.823 77.427 111.827 77.1092C111.832 76.7914 111.9 76.4777 112.028 76.1869C112.157 75.8961 112.342 75.6341 112.574 75.4165C112.805 75.1989 113.079 75.0301 113.377 74.9203C113.675 74.8105 113.992 74.7618 114.31 74.7773L165.109 75.5164C165.424 75.5155 165.736 75.5774 166.026 75.6982C166.316 75.819 166.58 75.9965 166.801 76.2202C167.022 76.444 167.196 76.7095 167.313 77.0013C167.431 77.2931 167.489 77.6053 167.484 77.9198C167.48 78.2343 167.413 78.5447 167.287 78.833C167.161 79.1212 166.979 79.3815 166.751 79.5987C166.524 79.8158 166.255 79.9855 165.962 80.0978C165.668 80.2101 165.355 80.2628 165.04 80.2527L165.042 80.2493Z" fill="#0084FF"/>
<path d="M165.042 80.2493L114.244 79.5097C113.926 79.5162 113.61 79.4587 113.315 79.3406C113.02 79.2225 112.752 79.0461 112.526 78.8221C112.301 78.5981 112.123 78.331 112.003 78.0367C111.883 77.7424 111.823 77.427 111.827 77.1092C111.832 76.7914 111.9 76.4777 112.028 76.1869C112.157 75.8961 112.342 75.6341 112.574 75.4165C112.805 75.1989 113.079 75.0301 113.377 74.9203C113.675 74.8105 113.992 74.7618 114.31 74.7773L165.109 75.5164C165.424 75.5155 165.736 75.5774 166.026 75.6982C166.316 75.819 166.58 75.9965 166.801 76.2202C167.022 76.444 167.196 76.7095 167.313 77.0013C167.431 77.2931 167.489 77.6053 167.484 77.9198C167.48 78.2343 167.413 78.5447 167.287 78.833C167.161 79.1212 166.979 79.3815 166.751 79.5987C166.524 79.8158 166.255 79.9855 165.962 80.0978C165.668 80.2101 165.355 80.2628 165.04 80.2527L165.042 80.2493Z" fill="white" fill-opacity="0.4"/>
<path d="M184.953 80.5388L177.592 80.4319C177.278 80.4327 176.966 80.3709 176.676 80.25C176.385 80.1292 176.122 79.9517 175.901 79.728C175.68 79.5043 175.506 79.2388 175.388 78.947C175.271 78.6552 175.213 78.3429 175.217 78.0284C175.222 77.7139 175.289 77.4035 175.415 77.1153C175.541 76.827 175.723 76.5667 175.95 76.3496C176.178 76.1324 176.446 75.9627 176.74 75.8504C177.034 75.7381 177.347 75.6855 177.661 75.6955L185.024 75.8011C185.645 75.8209 186.233 76.0838 186.662 76.5331C187.091 76.9825 187.326 77.5823 187.317 78.2033C187.308 78.8244 187.055 79.4171 186.614 79.8537C186.172 80.2902 185.576 80.5358 184.955 80.5375L184.953 80.5388Z" fill="#0084FF"/>
<path d="M184.953 80.5388L177.592 80.4319C177.278 80.4327 176.966 80.3709 176.676 80.25C176.385 80.1292 176.122 79.9517 175.901 79.728C175.68 79.5043 175.506 79.2388 175.388 78.947C175.271 78.6552 175.213 78.3429 175.217 78.0284C175.222 77.7139 175.289 77.4035 175.415 77.1153C175.541 76.827 175.723 76.5667 175.95 76.3496C176.178 76.1324 176.446 75.9627 176.74 75.8504C177.034 75.7381 177.347 75.6855 177.661 75.6955L185.024 75.8011C185.645 75.8209 186.233 76.0838 186.662 76.5331C187.091 76.9825 187.326 77.5823 187.317 78.2033C187.308 78.8244 187.055 79.4171 186.614 79.8537C186.172 80.2902 185.576 80.5358 184.955 80.5375L184.953 80.5388Z" fill="white" fill-opacity="0.4"/>
<path d="M155.646 95.4399L114.02 94.8341C113.392 94.825 112.793 94.5668 112.356 94.1163C111.918 93.6658 111.677 93.0599 111.686 92.4319C111.695 91.8039 111.954 91.2052 112.404 90.7676C112.855 90.3299 113.461 90.0892 114.089 90.0982L155.718 90.7022C156.029 90.7067 156.336 90.7724 156.621 90.8955C156.907 91.0187 157.165 91.1969 157.382 91.42C157.599 91.643 157.769 91.9066 157.884 92.1956C157.999 92.4846 158.056 92.7934 158.051 93.1044C158.047 93.4153 157.981 93.7224 157.858 94.0079C157.735 94.2935 157.557 94.552 157.334 94.7687C157.111 94.9854 156.847 95.1561 156.558 95.2709C156.269 95.3858 155.96 95.4426 155.649 95.4381L155.646 95.4399Z" fill="#0084FF"/>
<path d="M155.646 95.4399L114.02 94.8341C113.392 94.825 112.793 94.5668 112.356 94.1163C111.918 93.6658 111.677 93.0599 111.686 92.4319C111.695 91.8039 111.954 91.2052 112.404 90.7676C112.855 90.3299 113.461 90.0892 114.089 90.0982L155.718 90.7022C156.029 90.7067 156.336 90.7724 156.621 90.8955C156.907 91.0187 157.165 91.1969 157.382 91.42C157.599 91.643 157.769 91.9066 157.884 92.1956C157.999 92.4846 158.056 92.7934 158.051 93.1044C158.047 93.4153 157.981 93.7224 157.858 94.0079C157.735 94.2935 157.557 94.552 157.334 94.7687C157.111 94.9854 156.847 95.1561 156.558 95.2709C156.269 95.3858 155.96 95.4426 155.649 95.4381L155.646 95.4399Z" fill="white" fill-opacity="0.4"/>
<path d="M184.729 95.8633L177.369 95.7564C176.748 95.7366 176.16 95.4737 175.731 95.0244C175.302 94.5751 175.067 93.9753 175.076 93.3542C175.085 92.7331 175.338 92.1405 175.779 91.7039C176.221 91.2673 176.817 91.0218 177.438 91.0201L184.796 91.1238C185.111 91.123 185.423 91.1848 185.713 91.3056C186.003 91.4265 186.267 91.6039 186.488 91.8277C186.709 92.0514 186.883 92.3169 187 92.6087C187.118 92.9005 187.176 93.2127 187.171 93.5272C187.167 93.8417 187.099 94.1521 186.974 94.4404C186.848 94.7286 186.666 94.9889 186.438 95.2061C186.211 95.4232 185.942 95.5929 185.648 95.7052C185.355 95.8175 185.041 95.8702 184.727 95.8601L184.729 95.8633Z" fill="#0084FF"/>
<path d="M184.729 95.8633L177.369 95.7564C176.748 95.7366 176.16 95.4737 175.731 95.0244C175.302 94.5751 175.067 93.9753 175.076 93.3542C175.085 92.7331 175.338 92.1405 175.779 91.7039C176.221 91.2673 176.817 91.0218 177.438 91.0201L184.796 91.1238C185.111 91.123 185.423 91.1848 185.713 91.3056C186.003 91.4265 186.267 91.6039 186.488 91.8277C186.709 92.0514 186.883 92.3169 187 92.6087C187.118 92.9005 187.176 93.2127 187.171 93.5272C187.167 93.8417 187.099 94.1521 186.974 94.4404C186.848 94.7286 186.666 94.9889 186.438 95.2061C186.211 95.4232 185.942 95.5929 185.648 95.7052C185.355 95.8175 185.041 95.8702 184.727 95.8601L184.729 95.8633Z" fill="white" fill-opacity="0.4"/>
<path d="M155.422 110.763L113.793 110.16C113.479 110.16 113.167 110.099 112.877 109.978C112.586 109.857 112.323 109.679 112.102 109.456C111.881 109.232 111.706 108.966 111.589 108.675C111.472 108.383 111.414 108.071 111.418 107.756C111.423 107.442 111.49 107.131 111.616 106.843C111.742 106.555 111.924 106.294 112.151 106.077C112.379 105.86 112.647 105.69 112.941 105.578C113.235 105.466 113.548 105.413 113.862 105.423L155.492 106.027C156.112 106.047 156.701 106.31 157.13 106.759C157.558 107.208 157.794 107.808 157.785 108.429C157.775 109.05 157.523 109.643 157.081 110.08C156.639 110.516 156.043 110.762 155.422 110.763Z" fill="#0084FF"/>
<path d="M155.422 110.763L113.793 110.16C113.479 110.16 113.167 110.099 112.877 109.978C112.586 109.857 112.323 109.679 112.102 109.456C111.881 109.232 111.706 108.966 111.589 108.675C111.472 108.383 111.414 108.071 111.418 107.756C111.423 107.442 111.49 107.131 111.616 106.843C111.742 106.555 111.924 106.294 112.151 106.077C112.379 105.86 112.647 105.69 112.941 105.578C113.235 105.466 113.548 105.413 113.862 105.423L155.492 106.027C156.112 106.047 156.701 106.31 157.13 106.759C157.558 107.208 157.794 107.808 157.785 108.429C157.775 109.05 157.523 109.643 157.081 110.08C156.639 110.516 156.043 110.762 155.422 110.763Z" fill="white" fill-opacity="0.4"/>
<path d="M184.506 111.187L177.146 111.08C176.835 111.076 176.528 111.01 176.243 110.887C175.957 110.764 175.698 110.586 175.482 110.363C175.265 110.14 175.094 109.876 174.98 109.587C174.865 109.298 174.808 108.989 174.812 108.678C174.817 108.367 174.883 108.06 175.006 107.775C175.129 107.489 175.307 107.231 175.53 107.014C175.753 106.797 176.017 106.627 176.306 106.512C176.595 106.397 176.904 106.34 177.215 106.345L184.575 106.452C184.886 106.456 185.193 106.522 185.479 106.645C185.764 106.768 186.023 106.946 186.239 107.169C186.456 107.392 186.627 107.656 186.742 107.945C186.856 108.234 186.913 108.543 186.909 108.854C186.904 109.165 186.838 109.472 186.715 109.757C186.592 110.043 186.414 110.301 186.191 110.518C185.968 110.735 185.704 110.905 185.415 111.02C185.126 111.135 184.817 111.192 184.506 111.187Z" fill="#0084FF"/>
<path d="M184.506 111.187L177.146 111.08C176.835 111.076 176.528 111.01 176.243 110.887C175.957 110.764 175.698 110.586 175.482 110.363C175.265 110.14 175.094 109.876 174.98 109.587C174.865 109.298 174.808 108.989 174.812 108.678C174.817 108.367 174.883 108.06 175.006 107.775C175.129 107.489 175.307 107.231 175.53 107.014C175.753 106.797 176.017 106.627 176.306 106.512C176.595 106.397 176.904 106.34 177.215 106.345L184.575 106.452C184.886 106.456 185.193 106.522 185.479 106.645C185.764 106.768 186.023 106.946 186.239 107.169C186.456 107.392 186.627 107.656 186.742 107.945C186.856 108.234 186.913 108.543 186.909 108.854C186.904 109.165 186.838 109.472 186.715 109.757C186.592 110.043 186.414 110.301 186.191 110.518C185.968 110.735 185.704 110.905 185.415 111.02C185.126 111.135 184.817 111.192 184.506 111.187Z" fill="white" fill-opacity="0.4"/>
</g>
<path d="M226.5 174.498C226.5 175.882 225.713 177 224.747 177H2.25127C2.01688 176.998 1.78546 176.932 1.57202 176.806C1.35858 176.68 1.16786 176.497 1.01223 176.269C0.679269 175.782 0.496774 175.153 0.500043 174.502C0.500043 173.122 1.28531 172 2.25127 172H224.747C224.982 172.002 225.214 172.069 225.427 172.195C225.641 172.321 225.831 172.505 225.986 172.733C226.32 173.218 226.503 173.848 226.5 174.498Z" fill="#0084FF"/>
<path d="M226.5 174.498C226.5 175.882 225.713 177 224.747 177H2.25127C2.01688 176.998 1.78546 176.932 1.57202 176.806C1.35858 176.68 1.16786 176.497 1.01223 176.269C0.679269 175.782 0.496774 175.153 0.500043 174.502C0.500043 173.122 1.28531 172 2.25127 172H224.747C224.982 172.002 225.214 172.069 225.427 172.195C225.641 172.321 225.831 172.505 225.986 172.733C226.32 173.218 226.503 173.848 226.5 174.498Z" fill="white" fill-opacity="0.4"/>
<path d="M161 97.6923V164.062C161.002 165.762 160.668 167.445 160.019 169.015C159.37 170.586 158.418 172.013 157.217 173.214C156.016 174.416 154.59 175.369 153.021 176.019C151.452 176.668 149.77 177.002 148.072 177H53.9264C52.2288 177 50.5478 176.665 48.9794 176.015C47.411 175.365 45.986 174.412 44.7857 173.21C43.5853 172.009 42.6332 170.583 41.9837 169.013C41.3341 167.443 40.9999 165.761 41 164.062V97.6923C41 94.2612 42.3619 90.9707 44.786 88.5445C47.2102 86.1184 50.4981 84.7554 53.9264 84.7554H148.072C151.5 84.7562 154.787 86.1195 157.211 88.5455C159.635 90.9714 160.997 94.2615 160.998 97.6923H161Z" fill="white"/>
<path d="M161 97.6923V164.062C161.002 165.762 160.668 167.445 160.019 169.015C159.37 170.586 158.418 172.013 157.217 173.214C156.016 174.416 154.59 175.369 153.021 176.019C151.452 176.668 149.77 177.002 148.072 177H53.9264C52.2288 177 50.5478 176.665 48.9794 176.015C47.411 175.365 45.986 174.412 44.7857 173.21C43.5853 172.009 42.6332 170.583 41.9837 169.013C41.3341 167.443 40.9999 165.761 41 164.062V97.6923C41 94.2612 42.3619 90.9707 44.786 88.5445C47.2102 86.1184 50.4981 84.7554 53.9264 84.7554H148.072C151.5 84.7562 154.787 86.1195 157.211 88.5455C159.635 90.9714 160.997 94.2615 160.998 97.6923H161Z" fill="#010D1F" fill-opacity="0.4"/>
<path opacity="0.1" d="M113.465 111.216C113.465 140.538 89.7064 164.316 60.4082 164.316C53.7662 164.324 47.1822 163.08 41 160.65L41 97.6923C41 94.2612 42.3619 90.9707 44.786 88.5445C47.2102 86.1184 50.4981 84.7554 53.9264 84.7554H106.415C111.047 92.8025 113.478 101.929 113.465 111.216Z" fill="white"/>
<path d="M143.847 130.878C143.847 148.021 129.96 161.919 112.833 161.919C100.59 161.919 90.0036 154.82 84.9601 144.509C82.8857 140.265 81.8106 135.602 81.8172 130.878C81.8172 113.734 95.7034 99.8377 112.833 99.8377C117.553 99.8306 122.212 100.906 126.452 102.982C136.754 108.03 143.847 118.624 143.847 130.878Z" fill="#010D1F"/>
<path d="M136.65 130.878C136.65 144.043 125.986 154.714 112.833 154.714C109.705 154.714 106.608 154.098 103.718 152.9C100.829 151.702 98.2032 149.946 95.9916 147.733C93.7799 145.519 92.0256 142.892 90.8288 140C89.6319 137.108 89.016 134.008 89.0161 130.878C89.0161 117.714 99.6785 107.041 112.833 107.041C115.961 107.041 119.058 107.658 121.947 108.856C124.837 110.053 127.463 111.809 129.674 114.023C131.886 116.236 133.64 118.864 134.837 121.756C136.034 124.648 136.65 127.747 136.65 130.878Z" fill="#0084FF"/>
<path d="M136.65 130.878C136.65 144.043 125.986 154.714 112.833 154.714C109.705 154.714 106.608 154.098 103.718 152.9C100.829 151.702 98.2032 149.946 95.9916 147.733C93.7799 145.519 92.0256 142.892 90.8288 140C89.6319 137.108 89.016 134.008 89.0161 130.878C89.0161 117.714 99.6785 107.041 112.833 107.041C115.961 107.041 119.058 107.658 121.947 108.856C124.837 110.053 127.463 111.809 129.674 114.023C131.886 116.236 133.64 118.864 134.837 121.756C136.034 124.648 136.65 127.747 136.65 130.878Z" fill="white" fill-opacity="0.4"/>
<g opacity="0.1">
<path opacity="0.1" d="M128.708 130.878C128.708 139.638 121.587 146.765 112.834 146.765C108.624 146.765 104.586 145.091 101.609 142.112C98.6319 139.132 96.9595 135.091 96.9595 130.878C96.9595 122.116 104.082 114.99 112.834 114.99C117.044 114.99 121.082 116.664 124.059 119.644C127.036 122.623 128.708 126.664 128.708 130.878Z" fill="#29BEFF"/>
</g>
<path opacity="0.3" d="M120.66 130.878C120.661 132.709 120.021 134.482 118.852 135.89C117.682 137.298 116.057 138.251 114.258 138.585C112.459 138.918 110.6 138.61 109.005 137.715C107.409 136.819 106.177 135.393 105.523 133.683C104.869 131.973 104.834 130.088 105.424 128.355C106.014 126.621 107.192 125.15 108.753 124.196C110.315 123.242 112.161 122.865 113.971 123.131C115.781 123.397 117.44 124.29 118.661 125.653C119.948 127.089 120.659 128.949 120.66 130.878Z" fill="#29BEFF"/>
<path opacity="0.16" d="M129.595 116.613C129.595 133.757 115.708 147.654 98.58 147.654C93.8595 147.661 89.2003 146.585 84.9601 144.509C82.8857 140.265 81.8106 135.602 81.8172 130.878C81.8172 113.734 95.7034 99.8377 112.833 99.8377C117.553 99.8306 122.212 100.906 126.452 102.982C128.526 107.226 129.601 111.889 129.595 116.613Z" fill="white"/>
<path opacity="0.2" d="M130.567 114.967C126.203 111.04 120.539 108.871 114.669 108.88C101.514 108.88 90.8517 119.552 90.8517 132.714C90.8413 138.589 93.008 144.26 96.9329 148.629C94.4375 146.396 92.4419 143.66 91.0768 140.601C89.7117 137.541 89.008 134.228 89.0117 130.878C89.0117 117.714 99.6741 107.041 112.828 107.041C116.176 107.037 119.487 107.741 122.544 109.107C125.601 110.473 128.335 112.47 130.567 114.967Z" fill="black"/>
<path opacity="0.5" d="M105.863 134.148C109.712 134.148 112.833 131.025 112.833 127.173C112.833 123.32 109.712 120.197 105.863 120.197C102.014 120.197 98.8933 123.32 98.8933 127.173C98.8933 131.025 102.014 134.148 105.863 134.148Z" fill="white"/>
<path d="M73.9098 81H55.7087C55.1173 81 54.6379 81.4798 54.6379 82.0716V83.6838C54.6379 84.2756 55.1173 84.7554 55.7087 84.7554H73.9098C74.5011 84.7554 74.9805 84.2756 74.9805 83.6838V82.0716C74.9805 81.4798 74.5011 81 73.9098 81Z" fill="#7B8491"/>
<path d="M73.9098 81H55.7087C55.1173 81 54.6379 81.4798 54.6379 82.0716V82.5109C54.6379 83.1027 55.1173 83.5825 55.7087 83.5825H73.9098C74.5011 83.5825 74.9805 83.1027 74.9805 82.5109V82.0716C74.9805 81.4798 74.5011 81 73.9098 81Z" fill="white"/>
<path d="M73.9098 81H55.7087C55.1173 81 54.6379 81.4798 54.6379 82.0716V82.5109C54.6379 83.1027 55.1173 83.5825 55.7087 83.5825H73.9098C74.5011 83.5825 74.9805 83.1027 74.9805 82.5109V82.0716C74.9805 81.4798 74.5011 81 73.9098 81Z" fill="#010D1F" fill-opacity="0.4"/>
<path d="M79.6852 101.826H56.7698C55.5924 101.826 54.6379 102.781 54.6379 103.96V103.961C54.6379 105.139 55.5924 106.094 56.7698 106.094H79.6852C80.8626 106.094 81.817 105.139 81.817 103.961V103.96C81.817 102.781 80.8626 101.826 79.6852 101.826Z" fill="#7B8491"/>
<path d="M78.9119 105.41H56.4322C55.9575 105.41 55.5022 105.221 55.1666 104.885C54.8309 104.549 54.6423 104.094 54.6423 103.619C54.6423 103.143 54.8309 102.688 55.1665 102.352C55.5021 102.015 55.9574 101.826 56.4322 101.826H78.9119C79.3867 101.826 79.8419 102.015 80.1776 102.352C80.5132 102.688 80.7018 103.143 80.7018 103.619C80.7018 104.094 80.5132 104.549 80.1775 104.885C79.8419 105.221 79.3866 105.41 78.9119 105.41Z" fill="white"/>
</g>
<defs>
<clipPath id="clip0_1260:17097">
<rect width="227" height="177" fill="white"/>
</clipPath>
<clipPath id="clip1_1260:17097">
<rect width="164.306" height="144.456" fill="white" transform="translate(56.0933 42.4683) rotate(-30)"/>
</clipPath>
</defs>
</svg>
