<svg width="324" height="214" viewBox="0 0 324 214" fill="none" xmlns="http://www.w3.org/2000/svg">
<g filter="url(#filter0_ddd_125:1298)">
<rect x="12" y="8" width="300" height="190" rx="12" fill="url(#paint0_radial_125:1298)"/>
<mask id="path-2-outside-1_125:1298" maskUnits="userSpaceOnUse" x="27" y="23" width="66" height="22" fill="black">
<rect fill="white" x="27" y="23" width="66" height="22"/>
<path fill-rule="evenodd" clip-rule="evenodd" d="M29.1154 39.4688H28V24H34.5809C35.8146 24 38.5172 24.8792 38.5172 27.4896V30.0938C38.5172 30.8854 37.9249 33.8438 35.0271 33.8438L29.1154 33.9073V39.4688ZM29.1154 25.0417V32.8656L35.0204 32.8021C37.2624 32.8021 37.4018 30.1208 37.4018 30.0938V27.4896C37.4018 25.4771 35.1409 25.0417 34.5809 25.0417H29.1154ZM45.6019 28.3868H45.6019C45.9453 28.3891 46.3152 28.3916 46.6831 28.4364C49.6219 28.797 49.5972 31.666 49.5924 32.2324L49.5921 32.2823V39.6489H48.905C48.6529 39.6489 48.4488 39.4583 48.4488 39.2229V37.6989C47.919 38.8271 46.4221 39.6344 45.5855 39.6344C45.4479 39.6344 45.2891 39.6372 45.1152 39.6403L45.1151 39.6403C44.2325 39.6559 42.9618 39.6785 42.0999 39.3739C41.0681 39.0094 40.1758 37.9854 40.4178 35.6677C40.6599 33.35 42.9744 33.2114 43.3268 33.2114H48.4488V31.3104C48.4488 29.6354 46.5247 29.4354 46.2827 29.4354C46.2266 29.4354 46.1461 29.4312 46.041 29.4257C45.6926 29.4076 45.0744 29.3754 44.1823 29.4354C43.2632 29.4969 42.3352 29.925 41.9895 30.0989C41.9091 30.1396 41.8088 30.1156 41.7597 30.0437L41.386 29.4989C41.3425 29.4354 41.3503 29.3521 41.4072 29.2979C41.8366 28.8854 43.2298 28.3531 45.3446 28.3844C45.4283 28.3856 45.5142 28.3862 45.6019 28.3868ZM48.48 34.15H43.377C43.0982 34.15 41.5712 34.4427 41.5232 35.7C41.4811 36.7785 41.5014 36.9027 41.5165 36.9947L41.5165 36.9947L41.5165 36.9948C41.519 37.0099 41.5213 37.0242 41.5232 37.0417C41.5366 37.1656 41.9203 38.5719 43.1194 38.6042C44.3184 38.6364 45.1271 38.65 45.5387 38.6042C45.9503 38.5583 47.7673 38.0989 48.4811 36.2667V34.15H48.48ZM73.1373 24.174V24.8688C73.1373 24.9646 73.0537 25.0417 72.951 25.0417H64.939V31.474H71.0972C71.2077 31.474 71.2969 31.5573 71.2969 31.6604V32.3292C71.2969 32.4323 71.2077 32.5156 71.0972 32.5156H64.939V38.601H72.9655C73.0603 38.601 73.1373 38.6729 73.1373 38.7615V39.4823C73.1373 39.5708 73.0603 39.6427 72.9655 39.6427H63.9631C63.8861 39.6427 63.8236 39.5844 63.8236 39.5125V24.1802C63.8236 24.0802 63.9095 24 64.0166 24H72.951C73.0537 24 73.1373 24.0781 73.1373 24.174ZM75.6281 39.4468V28.6187C75.6281 28.5416 75.695 28.4801 75.7764 28.4801H76.5572C76.6397 28.4801 76.7055 28.5426 76.7055 28.6187V30.1989C76.7055 30.1989 77.783 28.551 79.4941 28.4801C80.9508 28.4197 82.1521 28.376 82.9886 28.9489C83.8252 29.5218 84.0829 30.176 84.1029 30.5051H84.268C84.268 30.5051 85.1882 28.5718 87.5451 28.4218C89.9019 28.2718 91.623 28.8322 91.9019 30.8635C91.9019 30.8635 92 31.501 92 32.9343V39.4364C92 39.5614 91.8918 39.6624 91.758 39.6624H91.1122C90.9783 39.6624 90.8701 39.5614 90.8701 39.4364V31.9708C90.8701 31.9535 90.8703 31.9341 90.8705 31.9126C90.8755 31.351 90.8928 29.4124 88.1307 29.4124C85.2618 29.4124 84.4721 30.9885 84.4286 31.0854C84.3818 31.1916 84.4186 38.0864 84.4275 39.4354C84.4286 39.5604 84.3193 39.6614 84.1855 39.6614H83.4292C83.2954 39.6614 83.1872 39.5604 83.1872 39.4354V31.5666C83.1872 31.1104 83.1872 29.2854 80.3005 29.3916C77.4138 29.4979 76.7312 31.1364 76.7312 31.1364L76.7178 39.4479C76.7178 39.5656 76.6152 39.6604 76.4903 39.6604H75.8534C75.7307 39.6604 75.6281 39.5645 75.6281 39.4468ZM60.6169 28.4531H61.4992C61.6509 28.4531 61.7546 28.5958 61.6999 28.7271L55.2885 44H54.3148C54.2066 44 54.133 43.8989 54.172 43.8052L56.1195 39.1614L51.601 28.7291C51.5441 28.5969 51.6479 28.4531 51.8007 28.4531H52.6829L56.714 37.7458L60.6169 28.4531Z"/>
</mask>
<path fill-rule="evenodd" clip-rule="evenodd" d="M29.1154 39.4688H28V24H34.5809C35.8146 24 38.5172 24.8792 38.5172 27.4896V30.0938C38.5172 30.8854 37.9249 33.8438 35.0271 33.8438L29.1154 33.9073V39.4688ZM29.1154 25.0417V32.8656L35.0204 32.8021C37.2624 32.8021 37.4018 30.1208 37.4018 30.0938V27.4896C37.4018 25.4771 35.1409 25.0417 34.5809 25.0417H29.1154ZM45.6019 28.3868H45.6019C45.9453 28.3891 46.3152 28.3916 46.6831 28.4364C49.6219 28.797 49.5972 31.666 49.5924 32.2324L49.5921 32.2823V39.6489H48.905C48.6529 39.6489 48.4488 39.4583 48.4488 39.2229V37.6989C47.919 38.8271 46.4221 39.6344 45.5855 39.6344C45.4479 39.6344 45.2891 39.6372 45.1152 39.6403L45.1151 39.6403C44.2325 39.6559 42.9618 39.6785 42.0999 39.3739C41.0681 39.0094 40.1758 37.9854 40.4178 35.6677C40.6599 33.35 42.9744 33.2114 43.3268 33.2114H48.4488V31.3104C48.4488 29.6354 46.5247 29.4354 46.2827 29.4354C46.2266 29.4354 46.1461 29.4312 46.041 29.4257C45.6926 29.4076 45.0744 29.3754 44.1823 29.4354C43.2632 29.4969 42.3352 29.925 41.9895 30.0989C41.9091 30.1396 41.8088 30.1156 41.7597 30.0437L41.386 29.4989C41.3425 29.4354 41.3503 29.3521 41.4072 29.2979C41.8366 28.8854 43.2298 28.3531 45.3446 28.3844C45.4283 28.3856 45.5142 28.3862 45.6019 28.3868ZM48.48 34.15H43.377C43.0982 34.15 41.5712 34.4427 41.5232 35.7C41.4811 36.7785 41.5014 36.9027 41.5165 36.9947L41.5165 36.9947L41.5165 36.9948C41.519 37.0099 41.5213 37.0242 41.5232 37.0417C41.5366 37.1656 41.9203 38.5719 43.1194 38.6042C44.3184 38.6364 45.1271 38.65 45.5387 38.6042C45.9503 38.5583 47.7673 38.0989 48.4811 36.2667V34.15H48.48ZM73.1373 24.174V24.8688C73.1373 24.9646 73.0537 25.0417 72.951 25.0417H64.939V31.474H71.0972C71.2077 31.474 71.2969 31.5573 71.2969 31.6604V32.3292C71.2969 32.4323 71.2077 32.5156 71.0972 32.5156H64.939V38.601H72.9655C73.0603 38.601 73.1373 38.6729 73.1373 38.7615V39.4823C73.1373 39.5708 73.0603 39.6427 72.9655 39.6427H63.9631C63.8861 39.6427 63.8236 39.5844 63.8236 39.5125V24.1802C63.8236 24.0802 63.9095 24 64.0166 24H72.951C73.0537 24 73.1373 24.0781 73.1373 24.174ZM75.6281 39.4468V28.6187C75.6281 28.5416 75.695 28.4801 75.7764 28.4801H76.5572C76.6397 28.4801 76.7055 28.5426 76.7055 28.6187V30.1989C76.7055 30.1989 77.783 28.551 79.4941 28.4801C80.9508 28.4197 82.1521 28.376 82.9886 28.9489C83.8252 29.5218 84.0829 30.176 84.1029 30.5051H84.268C84.268 30.5051 85.1882 28.5718 87.5451 28.4218C89.9019 28.2718 91.623 28.8322 91.9019 30.8635C91.9019 30.8635 92 31.501 92 32.9343V39.4364C92 39.5614 91.8918 39.6624 91.758 39.6624H91.1122C90.9783 39.6624 90.8701 39.5614 90.8701 39.4364V31.9708C90.8701 31.9535 90.8703 31.9341 90.8705 31.9126C90.8755 31.351 90.8928 29.4124 88.1307 29.4124C85.2618 29.4124 84.4721 30.9885 84.4286 31.0854C84.3818 31.1916 84.4186 38.0864 84.4275 39.4354C84.4286 39.5604 84.3193 39.6614 84.1855 39.6614H83.4292C83.2954 39.6614 83.1872 39.5604 83.1872 39.4354V31.5666C83.1872 31.1104 83.1872 29.2854 80.3005 29.3916C77.4138 29.4979 76.7312 31.1364 76.7312 31.1364L76.7178 39.4479C76.7178 39.5656 76.6152 39.6604 76.4903 39.6604H75.8534C75.7307 39.6604 75.6281 39.5645 75.6281 39.4468ZM60.6169 28.4531H61.4992C61.6509 28.4531 61.7546 28.5958 61.6999 28.7271L55.2885 44H54.3148C54.2066 44 54.133 43.8989 54.172 43.8052L56.1195 39.1614L51.601 28.7291C51.5441 28.5969 51.6479 28.4531 51.8007 28.4531H52.6829L56.714 37.7458L60.6169 28.4531Z" fill="white"/>
<path d="M28 39.4688H27.5V39.9688H28V39.4688ZM29.1154 39.4688V39.9688H29.6154V39.4688H29.1154ZM28 24V23.5H27.5V24H28ZM35.0271 33.8438V33.3437L35.0217 33.3438L35.0271 33.8438ZM29.1154 33.9073L29.11 33.4073L28.6154 33.4126V33.9073H29.1154ZM29.1154 32.8656H28.6154V33.371L29.1208 33.3656L29.1154 32.8656ZM29.1154 25.0417V24.5417H28.6154V25.0417H29.1154ZM35.0204 32.8021V32.3021L35.015 32.3021L35.0204 32.8021ZM45.6019 28.3868L45.6053 27.8868H45.6019V28.3868ZM45.6019 28.3868L45.5985 28.8868H45.6019V28.3868ZM46.6831 28.4364L46.744 27.9402L46.7436 27.9401L46.6831 28.4364ZM49.5924 32.2324L49.0924 32.2281L49.0924 32.2293L49.5924 32.2324ZM49.5921 32.2823L49.0921 32.2792V32.2823H49.5921ZM49.5921 39.6489V40.1489H50.0921V39.6489H49.5921ZM48.4488 37.6989H48.9488L47.9962 37.4864L48.4488 37.6989ZM45.1152 39.6403L45.1063 39.1403L45.0996 39.1405L45.1152 39.6403ZM45.1151 39.6403L45.124 40.1402L45.1307 40.14L45.1151 39.6403ZM42.0999 39.3739L41.9333 39.8454L41.9333 39.8454L42.0999 39.3739ZM48.4488 33.2114V33.7114H48.9488V33.2114H48.4488ZM46.041 29.4257L46.067 28.9264L46.067 28.9264L46.041 29.4257ZM44.1823 29.4354L44.2157 29.9343L44.2159 29.9343L44.1823 29.4354ZM41.9895 30.0989L41.7647 29.6523L41.7638 29.6528L41.9895 30.0989ZM41.7597 30.0437L42.1726 29.7618L42.172 29.7609L41.7597 30.0437ZM41.386 29.4989L40.9734 29.7814L40.9737 29.7818L41.386 29.4989ZM41.4072 29.2979L41.752 29.66L41.7536 29.6585L41.4072 29.2979ZM45.3446 28.3844L45.3522 27.8844L45.352 27.8844L45.3446 28.3844ZM41.5232 35.7L42.0228 35.7195L42.0228 35.719L41.5232 35.7ZM41.5165 36.9947L41.0231 37.0755L41.0295 37.1149L41.0422 37.1528L41.5165 36.9947ZM41.5165 36.9947L42.0106 36.9178L42.0041 36.8764L41.9908 36.8366L41.5165 36.9947ZM41.5165 36.9948L41.0224 37.0717L41.0231 37.0756L41.5165 36.9948ZM41.5232 37.0417L42.0203 36.988L42.0203 36.988L41.5232 37.0417ZM43.1194 38.6042L43.1328 38.1043L43.1328 38.1043L43.1194 38.6042ZM45.5387 38.6042L45.4833 38.1072L45.4833 38.1072L45.5387 38.6042ZM48.4811 36.2667L48.947 36.4482L48.9811 36.3606V36.2667H48.4811ZM48.4811 34.15H48.9811V33.65H48.4811V34.15ZM64.939 25.0417V24.5417H64.439V25.0417H64.939ZM64.939 31.474H64.439V31.974H64.939V31.474ZM64.939 32.5156V32.0156H64.439V32.5156H64.939ZM64.939 38.601H64.439V39.101H64.939V38.601ZM76.7055 30.1989H76.2055V31.8773L77.124 30.4725L76.7055 30.1989ZM79.4941 28.4801L79.5147 28.9797L79.5148 28.9797L79.4941 28.4801ZM82.9886 28.9489L83.2712 28.5364L83.2712 28.5364L82.9886 28.9489ZM84.1029 30.5051L83.6039 30.5356L83.6325 31.0051H84.1029V30.5051ZM84.268 30.5051V31.0051H84.5838L84.7195 30.72L84.268 30.5051ZM87.5451 28.4218L87.5133 27.9228L87.5133 27.9228L87.5451 28.4218ZM91.9019 30.8635L91.4065 30.9315L91.4077 30.9396L91.9019 30.8635ZM90.8705 31.9126L90.3705 31.9081L90.3705 31.9082L90.8705 31.9126ZM84.4286 31.0854L83.9725 30.8805L83.9711 30.8836L84.4286 31.0854ZM84.4275 39.4354L83.9275 39.4387L83.9275 39.4398L84.4275 39.4354ZM80.3005 29.3916L80.2821 28.8919L80.2821 28.8919L80.3005 29.3916ZM76.7312 31.1364L76.2696 30.9441L76.2314 31.036L76.2312 31.1356L76.7312 31.1364ZM76.7178 39.4479L76.2178 39.4471V39.4479H76.7178ZM60.6169 28.4531V27.9531H60.2845L60.1559 28.2595L60.6169 28.4531ZM61.6999 28.7271L62.161 28.9206L62.1615 28.9193L61.6999 28.7271ZM55.2885 44V44.5H55.6209L55.7496 44.1935L55.2885 44ZM54.172 43.8052L53.7109 43.6118L53.7104 43.613L54.172 43.8052ZM56.1195 39.1614L56.5806 39.3548L56.663 39.1583L56.5783 38.9627L56.1195 39.1614ZM51.601 28.7291L51.1417 28.9267L51.1422 28.9279L51.601 28.7291ZM52.6829 28.4531L53.1417 28.2541L53.0111 27.9531H52.6829V28.4531ZM56.714 37.7458L56.2553 37.9448L56.7215 39.0194L57.175 37.9394L56.714 37.7458ZM28 39.9688H29.1154V38.9688H28V39.9688ZM27.5 24V39.4688H28.5V24H27.5ZM34.5809 23.5H28V24.5H34.5809V23.5ZM39.0172 27.4896C39.0172 25.9795 38.2233 24.9646 37.2865 24.3482C36.3693 23.7446 35.2884 23.5 34.5809 23.5V24.5C35.1071 24.5 35.9943 24.6949 36.7368 25.1836C37.4598 25.6593 38.0172 26.3893 38.0172 27.4896H39.0172ZM39.0172 30.0938V27.4896H38.0172V30.0938H39.0172ZM35.0271 34.3438C36.685 34.3438 37.7044 33.4812 38.286 32.5256C38.8507 31.5975 39.0172 30.5672 39.0172 30.0938H38.0172C38.0172 30.4119 37.8875 31.2567 37.4317 32.0057C36.9926 32.7272 36.267 33.3438 35.0271 33.3438V34.3438ZM29.1208 34.4073L35.0325 34.3437L35.0217 33.3438L29.11 33.4073L29.1208 34.4073ZM29.6154 39.4688V33.9073H28.6154V39.4688H29.6154ZM29.6154 32.8656V25.0417H28.6154V32.8656H29.6154ZM35.015 32.3021L29.11 32.3657L29.1208 33.3656L35.0258 33.3021L35.015 32.3021ZM36.9018 30.0938C36.9018 30.0578 36.8743 30.6575 36.5989 31.2462C36.3348 31.811 35.8829 32.3021 35.0204 32.3021V33.3021C36.3998 33.3021 37.1387 32.4526 37.5047 31.6699C37.8596 30.9113 37.9018 30.1567 37.9018 30.0938H36.9018ZM36.9018 27.4896V30.0938H37.9018V27.4896H36.9018ZM34.5809 25.5417C34.7846 25.5417 35.403 25.6328 35.9546 25.9458C36.4837 26.246 36.9018 26.7146 36.9018 27.4896H37.9018C37.9018 26.252 37.1894 25.4967 36.4481 25.0761C35.7292 24.6682 34.9372 24.5417 34.5809 24.5417V25.5417ZM29.1154 25.5417H34.5809V24.5417H29.1154V25.5417ZM45.6019 27.8868H45.6019V28.8868H45.6019V27.8868ZM46.7436 27.9401C46.3427 27.8913 45.9444 27.8891 45.6053 27.8868L45.5985 28.8868C45.9461 28.8891 46.2878 28.892 46.6226 28.9328L46.7436 27.9401ZM50.0924 32.2366C50.0948 31.9479 50.1062 30.996 49.7005 30.0586C49.2795 29.0861 48.4133 28.145 46.744 27.9402L46.6222 28.9327C47.8916 29.0885 48.4825 29.7621 48.7827 30.4558C49.0982 31.1846 49.0948 31.9505 49.0924 32.2281L50.0924 32.2366ZM50.0921 32.2854L50.0924 32.2354L49.0924 32.2293L49.0921 32.2792L50.0921 32.2854ZM50.0921 39.6489V32.2823H49.0921V39.6489H50.0921ZM48.905 40.1489H49.5921V39.1489H48.905V40.1489ZM47.9488 39.2229C47.9488 39.7661 48.4095 40.1489 48.905 40.1489V39.1489C48.905 39.1489 48.905 39.1489 48.905 39.1489C48.905 39.1489 48.9051 39.1489 48.9051 39.1489C48.9052 39.149 48.9053 39.149 48.9055 39.149C48.9058 39.149 48.9062 39.1491 48.9068 39.1492C48.9079 39.1494 48.9093 39.1498 48.911 39.1504C48.9141 39.1517 48.9186 39.1541 48.9236 39.1588C48.9341 39.1685 48.9488 39.1912 48.9488 39.2229H47.9488ZM47.9488 37.6989V39.2229H48.9488V37.6989H47.9488ZM45.5855 40.1344C46.1333 40.1344 46.81 39.8831 47.3984 39.5129C47.9944 39.1381 48.5829 38.5895 48.9014 37.9115L47.9962 37.4864C47.7848 37.9365 47.36 38.3557 46.866 38.6665C46.3644 38.982 45.8744 39.1344 45.5855 39.1344V40.1344ZM45.1241 40.1402C45.2993 40.1371 45.4532 40.1344 45.5855 40.1344V39.1344C45.4425 39.1344 45.2789 39.1373 45.1063 39.1403L45.1241 40.1402ZM45.1307 40.14L45.1308 40.14L45.0996 39.1405L45.0995 39.1405L45.1307 40.14ZM41.9333 39.8454C42.4308 40.0212 43.0194 40.095 43.5713 40.1264C44.1285 40.1581 44.685 40.148 45.124 40.1402L45.1063 39.1403C44.6626 39.1482 44.1424 39.1573 43.6281 39.128C43.1086 39.0985 42.631 39.0313 42.2665 38.9025L41.9333 39.8454ZM39.9205 35.6158C39.7925 36.842 39.958 37.7867 40.342 38.4923C40.7301 39.2053 41.3161 39.6273 41.9333 39.8454L42.2665 38.9025C41.8519 38.756 41.4759 38.4837 41.2204 38.0142C40.9608 37.5372 40.8012 36.8111 40.9151 35.7196L39.9205 35.6158ZM43.3268 32.7114C43.1117 32.7114 42.3582 32.7502 41.6085 33.1226C40.8312 33.5088 40.0625 34.2567 39.9205 35.6158L40.9151 35.7196C41.0153 34.7609 41.5248 34.2808 42.0534 34.0182C42.6096 33.7419 43.1895 33.7114 43.3268 33.7114V32.7114ZM48.4488 32.7114H43.3268V33.7114H48.4488V32.7114ZM47.9488 31.3104V33.2114H48.9488V31.3104H47.9488ZM46.2827 29.9354C46.2821 29.9354 46.2845 29.9354 46.2902 29.9356C46.2957 29.9358 46.3032 29.9362 46.3127 29.9369C46.3319 29.9382 46.3572 29.9404 46.3879 29.944C46.4495 29.9511 46.5294 29.9631 46.6207 29.9822C46.8054 30.0209 47.0243 30.0862 47.2303 30.1907C47.6299 30.3934 47.9488 30.717 47.9488 31.3104H48.9488C48.9488 30.2288 48.3056 29.6149 47.6827 29.2989C47.0851 28.9957 46.4618 28.9354 46.2827 28.9354V29.9354ZM46.015 29.9251C46.1137 29.9302 46.2103 29.9354 46.2827 29.9354V28.9354C46.2429 28.9354 46.1784 28.9322 46.067 28.9264L46.015 29.9251ZM44.2159 29.9343C45.0786 29.8762 45.6738 29.9073 46.015 29.9251L46.067 28.9264C45.7115 28.9079 45.0702 28.8745 44.1488 28.9365L44.2159 29.9343ZM42.2142 30.5456C42.5502 30.3766 43.4025 29.9887 44.2157 29.9343L44.149 28.9365C43.124 29.0051 42.1203 29.4734 41.7647 29.6523L42.2142 30.5456ZM41.3468 30.3257C41.5454 30.6167 41.924 30.6924 42.2151 30.5451L41.7638 29.6528C41.8943 29.5867 42.0721 29.6146 42.1726 29.7618L41.3468 30.3257ZM40.9737 29.7818L41.3473 30.3265L42.172 29.7609L41.7983 29.2161L40.9737 29.7818ZM41.0624 28.9358C40.8259 29.161 40.7929 29.5177 40.9734 29.7814L41.7986 29.2165C41.8921 29.3531 41.8747 29.5431 41.752 29.66L41.0624 28.9358ZM45.352 27.8844C44.2521 27.8682 43.3282 27.9982 42.613 28.1922C41.9169 28.381 41.3652 28.6449 41.0608 28.9373L41.7536 29.6585C41.8786 29.5384 42.2383 29.3299 42.8748 29.1573C43.4922 28.9898 44.3223 28.8693 45.3372 28.8843L45.352 27.8844ZM45.6053 27.8868C45.5172 27.8862 45.4334 27.8857 45.3522 27.8844L45.337 28.8843C45.4232 28.8856 45.5112 28.8862 45.5985 28.8868L45.6053 27.8868ZM43.377 34.65H48.48V33.65H43.377V34.65ZM42.0228 35.719C42.0376 35.3311 42.2682 35.0749 42.6028 34.8925C42.77 34.8014 42.948 34.7389 43.101 34.6996C43.1767 34.6801 43.243 34.6672 43.2947 34.6593C43.3503 34.6508 43.3772 34.65 43.377 34.65V33.65C43.1525 33.65 42.6189 33.7448 42.1242 34.0145C41.6137 34.2927 41.0567 34.8116 41.0236 35.6809L42.0228 35.719ZM42.0099 36.9138C42.0045 36.8805 41.9803 36.8083 42.0228 35.7195L41.0236 35.6805C40.9819 36.7487 40.9984 36.9248 41.0231 37.0755L42.0099 36.9138ZM41.9908 36.8366L41.9908 36.8366L41.0422 37.1528L41.0422 37.1528L41.9908 36.8366ZM42.0106 36.9179L42.0106 36.9178L41.0224 37.0715L41.0225 37.0717L42.0106 36.9179ZM42.0203 36.988C42.0168 36.9553 42.0124 36.9287 42.0099 36.914L41.0231 37.0756C41.0256 37.0911 41.0259 37.093 41.0261 37.0953L42.0203 36.988ZM43.1328 38.1043C42.7567 38.0942 42.4903 37.8763 42.2926 37.5799C42.1947 37.433 42.124 37.2803 42.0774 37.1568C42.0251 37.0186 42.0168 36.9549 42.0203 36.988L41.0261 37.0953C41.0364 37.1904 41.081 37.349 41.1419 37.5103C41.2084 37.6863 41.3111 37.9105 41.4607 38.1347C41.7579 38.5804 42.2829 39.0818 43.1059 39.104L43.1328 38.1043ZM45.4833 38.1072C45.115 38.1482 44.3501 38.1371 43.1328 38.1043L43.1059 39.104C44.2868 39.1358 45.1392 39.1517 45.594 39.1011L45.4833 38.1072ZM48.0152 36.0851C47.7083 36.873 47.1656 37.3673 46.6432 37.6742C46.1122 37.9863 45.6231 38.0917 45.4833 38.1072L45.594 39.1011C45.8659 39.0708 46.4911 38.9235 47.1499 38.5364C47.8174 38.1442 48.5401 37.4926 48.947 36.4482L48.0152 36.0851ZM47.9811 34.15V36.2667H48.9811V34.15H47.9811ZM48.48 34.65H48.4811V33.65H48.48V34.65ZM73.6373 24.8688V24.174H72.6373V24.8688H73.6373ZM72.951 25.5417C73.293 25.5417 73.6373 25.2761 73.6373 24.8688H72.6373C72.6373 24.653 72.8143 24.5417 72.951 24.5417V25.5417ZM64.939 25.5417H72.951V24.5417H64.939V25.5417ZM65.439 31.474V25.0417H64.439V31.474H65.439ZM71.0972 30.974H64.939V31.974H71.0972V30.974ZM71.7969 31.6604C71.7969 31.2495 71.451 30.974 71.0972 30.974V31.974C70.9643 31.974 70.7969 31.8651 70.7969 31.6604H71.7969ZM71.7969 32.3292V31.6604H70.7969V32.3292H71.7969ZM71.0972 33.0156C71.451 33.0156 71.7969 32.7401 71.7969 32.3292H70.7969C70.7969 32.1245 70.9643 32.0156 71.0972 32.0156V33.0156ZM64.939 33.0156H71.0972V32.0156H64.939V33.0156ZM65.439 38.601V32.5156H64.439V38.601H65.439ZM72.9655 38.101H64.939V39.101H72.9655V38.101ZM73.6373 38.7615C73.6373 38.3651 73.3037 38.101 72.9655 38.101V39.101C72.817 39.101 72.6373 38.9807 72.6373 38.7615H73.6373ZM73.6373 39.4823V38.7615H72.6373V39.4823H73.6373ZM72.9655 40.1427C73.3037 40.1427 73.6373 39.8786 73.6373 39.4823H72.6373C72.6373 39.2631 72.8169 39.1427 72.9655 39.1427V40.1427ZM63.9631 40.1427H72.9655V39.1427H63.9631V40.1427ZM63.3236 39.5125C63.3236 39.8922 63.6427 40.1427 63.9631 40.1427V39.1427C64.1295 39.1427 64.3236 39.2766 64.3236 39.5125H63.3236ZM63.3236 24.1802V39.5125H64.3236V24.1802H63.3236ZM64.0166 23.5C63.6661 23.5 63.3236 23.7724 63.3236 24.1802H64.3236C64.3236 24.388 64.1529 24.5 64.0166 24.5V23.5ZM72.951 23.5H64.0166V24.5H72.951V23.5ZM73.6373 24.174C73.6373 23.7703 73.297 23.5 72.951 23.5V24.5C72.8103 24.5 72.6373 24.3859 72.6373 24.174H73.6373ZM75.1281 28.6187V39.4468H76.1281V28.6187H75.1281ZM75.7764 27.9801C75.4541 27.9801 75.1281 28.2314 75.1281 28.6187H76.1281C76.1281 28.8518 75.9358 28.9801 75.7764 28.9801V27.9801ZM76.5572 27.9801H75.7764V28.9801H76.5572V27.9801ZM77.2055 28.6187C77.2055 28.2372 76.8856 27.9801 76.5572 27.9801V28.9801C76.3938 28.9801 76.2055 28.8481 76.2055 28.6187H77.2055ZM77.2055 30.1989V28.6187H76.2055V30.1989H77.2055ZM79.4734 27.9806C78.4601 28.0225 77.6579 28.5291 77.1298 28.989C76.8627 29.2217 76.6553 29.4511 76.5142 29.623C76.4434 29.7093 76.3885 29.7819 76.3505 29.8343C76.3315 29.8605 76.3166 29.8817 76.306 29.8971C76.3007 29.9048 76.2965 29.9111 76.2933 29.9158C76.2917 29.9182 76.2904 29.9202 76.2894 29.9217C76.2889 29.9225 76.2884 29.9232 76.288 29.9238C76.2878 29.9241 76.2876 29.9244 76.2875 29.9246C76.2874 29.9247 76.2873 29.9249 76.2873 29.925C76.2871 29.9251 76.2871 29.9253 76.7055 30.1989C77.124 30.4725 77.1239 30.4727 77.1238 30.4728C77.1238 30.4728 77.1237 30.473 77.1237 30.473C77.1236 30.4732 77.1235 30.4733 77.1235 30.4734C77.1233 30.4736 77.1233 30.4737 77.1233 30.4737C77.1233 30.4737 77.1235 30.4733 77.124 30.4725C77.1251 30.471 77.1271 30.468 77.1301 30.4636C77.1361 30.4549 77.1461 30.4406 77.1598 30.4216C77.1874 30.3836 77.2301 30.3269 77.2871 30.2576C77.4014 30.1183 77.5704 29.9313 77.7865 29.7432C78.2249 29.3614 78.817 29.0086 79.5147 28.9797L79.4734 27.9806ZM83.2712 28.5364C82.7542 28.1824 82.1492 28.0361 81.519 27.9791C80.8929 27.9224 80.1936 27.9507 79.4733 27.9806L79.5148 28.9797C80.2512 28.9492 80.881 28.9254 81.4288 28.975C81.9726 29.0242 82.3865 29.1425 82.7061 29.3614L83.2712 28.5364ZM84.602 30.4747C84.5708 29.9633 84.2096 29.179 83.2712 28.5364L82.7061 29.3614C83.4408 29.8646 83.5949 30.3887 83.6039 30.5356L84.602 30.4747ZM84.268 30.0051H84.1029V31.0051H84.268V30.0051ZM87.5133 27.9228C86.192 28.0069 85.2666 28.5943 84.677 29.1585C84.3837 29.4392 84.1724 29.7149 84.0333 29.9223C83.9636 30.0262 83.9115 30.1138 83.8759 30.1775C83.8581 30.2094 83.8443 30.2353 83.8345 30.2544C83.8295 30.2639 83.8256 30.2718 83.8226 30.2778C83.8211 30.2808 83.8199 30.2833 83.8189 30.2854C83.8184 30.2865 83.8179 30.2874 83.8175 30.2882C83.8173 30.2886 83.8172 30.289 83.817 30.2893C83.8169 30.2895 83.8168 30.2897 83.8168 30.2898C83.8167 30.29 83.8165 30.2903 84.268 30.5051C84.7195 30.72 84.7194 30.7202 84.7193 30.7204C84.7193 30.7205 84.7192 30.7207 84.7191 30.7208C84.719 30.721 84.7189 30.7212 84.7188 30.7214C84.7187 30.7217 84.7186 30.722 84.7185 30.7221C84.7184 30.7223 84.7185 30.7221 84.7188 30.7214C84.7195 30.7201 84.721 30.7171 84.7234 30.7124C84.7282 30.7031 84.7365 30.6874 84.7484 30.6661C84.7723 30.6234 84.8105 30.5588 84.8639 30.4792C84.9711 30.3194 85.1371 30.1023 85.3684 29.881C85.8282 29.441 86.5413 28.9867 87.5768 28.9208L87.5133 27.9228ZM92.3972 30.7955C92.2362 29.6222 91.6386 28.8281 90.7242 28.3764C89.8478 27.9435 88.7236 27.8458 87.5133 27.9228L87.5768 28.9208C88.7234 28.8478 89.6382 28.9553 90.2813 29.273C90.8863 29.5718 91.2887 30.0735 91.4065 30.9315L92.3972 30.7955ZM92.5 32.9343C92.5 32.2063 92.4751 31.6765 92.4496 31.3253C92.4369 31.1496 92.4241 31.0187 92.4141 30.9298C92.4091 30.8854 92.4049 30.8516 92.4017 30.8279C92.4002 30.8161 92.3989 30.8068 92.3979 30.8001C92.3974 30.7967 92.397 30.794 92.3967 30.7919C92.3966 30.7908 92.3964 30.7899 92.3963 30.7892C92.3963 30.7888 92.3962 30.7885 92.3962 30.7882C92.3961 30.788 92.3961 30.7879 92.3961 30.7878C92.3961 30.7877 92.3961 30.7876 92.3961 30.7876C92.3961 30.7875 92.3961 30.7874 91.9019 30.8635C91.4077 30.9396 91.4077 30.9395 91.4077 30.9394C91.4077 30.9394 91.4077 30.9393 91.4077 30.9393C91.4076 30.9392 91.4076 30.9391 91.4076 30.939C91.4076 30.9389 91.4076 30.9388 91.4076 30.9387C91.4076 30.9386 91.4076 30.9386 91.4076 30.9388C91.4076 30.9392 91.4078 30.9402 91.408 30.9419C91.4085 30.9452 91.4093 30.951 91.4104 30.9594C91.4127 30.9763 91.4161 31.0034 91.4203 31.0411C91.4288 31.1166 91.4405 31.2346 91.4523 31.3975C91.4759 31.7234 91.5 32.229 91.5 32.9343H92.5ZM92.5 39.4364V32.9343H91.5V39.4364H92.5ZM91.758 40.1624C92.1352 40.1624 92.5 39.8692 92.5 39.4364H91.5C91.5 39.2536 91.6485 39.1624 91.758 39.1624V40.1624ZM91.1122 40.1624H91.758V39.1624H91.1122V40.1624ZM90.3701 39.4364C90.3701 39.8692 90.735 40.1624 91.1122 40.1624V39.1624C91.2217 39.1624 91.3701 39.2536 91.3701 39.4364H90.3701ZM90.3701 31.9708V39.4364H91.3701V31.9708H90.3701ZM90.3705 31.9082C90.3703 31.9289 90.3701 31.9508 90.3701 31.9708H91.3701C91.3701 31.9562 91.3703 31.9392 91.3705 31.9171L90.3705 31.9082ZM88.1307 29.9124C89.3799 29.9124 89.8827 30.3393 90.1121 30.7133C90.37 31.1339 90.373 31.6253 90.3705 31.9081L91.3705 31.9171C91.373 31.6383 91.3872 30.8796 90.9645 30.1905C90.5133 29.4548 89.6436 28.9124 88.1307 28.9124V29.9124ZM84.8848 31.2902C84.8651 31.3339 85.4982 29.9124 88.1307 29.9124V28.9124C85.0254 28.9124 84.0791 30.6431 83.9725 30.8805L84.8848 31.2902ZM84.9275 39.4321C84.9231 38.7581 84.9116 36.6979 84.9072 34.7932C84.9049 33.8407 84.9044 32.928 84.9074 32.2474C84.9089 31.9067 84.9113 31.626 84.9147 31.4279C84.9164 31.3284 84.9183 31.2529 84.9204 31.2021C84.9214 31.1761 84.9224 31.1613 84.9229 31.1549C84.9232 31.1512 84.9229 31.1557 84.9216 31.1648C84.921 31.1692 84.9194 31.18 84.9163 31.1943C84.9146 31.2024 84.9066 31.2407 84.8861 31.2871L83.9711 30.8836C83.95 30.9316 83.9412 30.9725 83.9387 30.9839C83.9349 31.0015 83.9327 31.0164 83.9313 31.0258C83.9287 31.0447 83.9271 31.0623 83.9261 31.0747C83.924 31.1007 83.9225 31.1309 83.9212 31.1615C83.9187 31.2241 83.9166 31.3089 83.9148 31.4107C83.9113 31.6153 83.9089 31.9012 83.9074 32.243C83.9044 32.9271 83.9049 33.8424 83.9072 34.7955C83.9116 36.702 83.9231 38.7637 83.9275 39.4387L84.9275 39.4321ZM84.1855 40.1614C84.5584 40.1614 84.9314 39.8711 84.9275 39.4309L83.9275 39.4398C83.9258 39.2496 84.0803 39.1614 84.1855 39.1614V40.1614ZM83.4292 40.1614H84.1855V39.1614H83.4292V40.1614ZM82.6872 39.4354C82.6872 39.8682 83.052 40.1614 83.4292 40.1614V39.1614C83.5388 39.1614 83.6872 39.2526 83.6872 39.4354H82.6872ZM82.6872 31.5666V39.4354H83.6872V31.5666H82.6872ZM80.3189 29.8913C81.6533 29.8422 82.1876 30.2374 82.4209 30.5608C82.6798 30.9196 82.6872 31.3423 82.6872 31.5666H83.6872C83.6872 31.3346 83.6945 30.6168 83.2318 29.9756C82.7435 29.2989 81.8344 28.8348 80.2821 28.8919L80.3189 29.8913ZM76.7312 31.1364C77.1927 31.3287 77.1926 31.329 77.1925 31.3293C77.1924 31.3294 77.1923 31.3297 77.1922 31.3299C77.192 31.3303 77.1919 31.3307 77.1917 31.3311C77.1914 31.3318 77.1912 31.3324 77.191 31.3329C77.1905 31.3339 77.1903 31.3345 77.1901 31.3348C77.1899 31.3354 77.1903 31.3345 77.1913 31.3322C77.1935 31.3278 77.1983 31.3179 77.2061 31.3033C77.2218 31.2742 77.2496 31.2266 77.2921 31.1662C77.3769 31.0455 77.5204 30.8735 77.7447 30.6951C78.1872 30.343 78.9751 29.9407 80.3189 29.8913L80.2821 28.8919C78.7392 28.9487 77.7425 29.4189 77.122 29.9126C76.8148 30.1571 76.6072 30.4014 76.4739 30.5913C76.4072 30.6861 76.3591 30.7673 76.3262 30.8282C76.3098 30.8587 76.2971 30.8841 76.2878 30.9037C76.2832 30.9135 76.2794 30.9218 76.2764 30.9286C76.2748 30.932 76.2735 30.935 76.2724 30.9376C76.2719 30.9389 76.2714 30.94 76.2709 30.9411C76.2707 30.9417 76.2704 30.9422 76.2702 30.9427C76.2701 30.943 76.27 30.9433 76.2699 30.9434C76.2698 30.9438 76.2696 30.9441 76.7312 31.1364ZM77.2178 39.4487L77.2312 31.1372L76.2312 31.1356L76.2178 39.4471L77.2178 39.4487ZM76.4903 40.1604C76.8569 40.1604 77.2178 39.8749 77.2178 39.4479H76.2178C76.2178 39.2562 76.3735 39.1604 76.4903 39.1604V40.1604ZM75.8534 40.1604H76.4903V39.1604H75.8534V40.1604ZM75.1281 39.4468C75.1281 39.8677 75.4824 40.1604 75.8534 40.1604V39.1604C75.979 39.1604 76.1281 39.2613 76.1281 39.4468H75.1281ZM61.4992 27.9531H60.6169V28.9531H61.4992V27.9531ZM62.1615 28.9193C62.3729 28.4117 61.9552 27.9531 61.4992 27.9531V28.9531C61.4136 28.9531 61.3282 28.9111 61.2732 28.8359C61.2171 28.759 61.1929 28.644 61.2384 28.5349L62.1615 28.9193ZM55.7496 44.1935L62.161 28.9206L61.2389 28.5335L54.8275 43.8064L55.7496 44.1935ZM54.3148 44.5H55.2885V43.5H54.3148V44.5ZM53.7104 43.613C53.5145 44.0835 53.9027 44.5 54.3148 44.5V43.5C54.5105 43.5 54.7515 43.7144 54.6336 43.9974L53.7104 43.613ZM55.6584 38.9681L53.7109 43.6118L54.6331 43.9986L56.5806 39.3548L55.6584 38.9681ZM51.1422 28.9279L55.6607 39.3602L56.5783 38.9627L52.0598 28.5304L51.1422 28.9279ZM51.8007 27.9531C51.3421 27.9531 50.9224 28.4167 51.1417 28.9267L52.0603 28.5316C52.1066 28.6393 52.0845 28.7555 52.0274 28.8344C51.9719 28.9113 51.8856 28.9531 51.8007 28.9531V27.9531ZM52.6829 27.9531H51.8007V28.9531H52.6829V27.9531ZM57.1727 37.5468L53.1417 28.2541L52.2242 28.6521L56.2553 37.9448L57.1727 37.5468ZM60.1559 28.2595L56.2531 37.5522L57.175 37.9394L61.0779 28.6467L60.1559 28.2595Z" fill="white" mask="url(#path-2-outside-1_125:1298)"/>
<path opacity="0.8" d="M24.4347 170.158H26.4929V176H27.2855V170.158H29.3438V169.455H24.4347V170.158ZM31.219 173.047C31.219 172.19 31.7655 171.705 32.5102 171.705C33.2197 171.705 33.648 172.152 33.648 172.932V176H34.4023V172.881C34.4023 171.618 33.7311 171.027 32.7275 171.027C31.9541 171.027 31.5131 171.35 31.2829 171.858H31.219V169.455H30.4648V176H31.219V173.047ZM35.7821 176H36.5364V171.091H35.7821V176ZM36.1657 170.273C36.4597 170.273 36.7026 170.043 36.7026 169.761C36.7026 169.48 36.4597 169.25 36.1657 169.25C35.8716 169.25 35.6287 169.48 35.6287 169.761C35.6287 170.043 35.8716 170.273 36.1657 170.273ZM41.3952 172.19C41.1586 171.494 40.6281 171.027 39.6565 171.027C38.621 171.027 37.854 171.615 37.854 172.446C37.854 173.124 38.2567 173.577 39.1579 173.788L39.9761 173.98C40.4715 174.095 40.7048 174.332 40.7048 174.67C40.7048 175.092 40.2574 175.438 39.5542 175.438C38.9374 175.438 38.5507 175.172 38.4165 174.645L37.7006 174.824C37.8763 175.658 38.5635 176.102 39.567 176.102C40.708 176.102 41.4846 175.479 41.4846 174.632C41.4846 173.948 41.0564 173.517 40.1807 173.303L39.452 173.124C38.8703 172.98 38.6082 172.785 38.6082 172.408C38.6082 171.986 39.0557 171.679 39.6565 171.679C40.3149 171.679 40.5866 172.043 40.7176 172.382L41.3952 172.19ZM47.1456 176.102C48.2322 176.102 48.9482 175.438 49.076 174.568H48.3217C48.1811 175.105 47.7337 175.425 47.1456 175.425C46.2507 175.425 45.6754 174.683 45.6754 173.545C45.6754 172.433 46.2635 171.705 47.1456 171.705C47.8104 171.705 48.2067 172.114 48.3217 172.561H49.076C48.9482 171.641 48.1683 171.027 47.1328 171.027C45.8033 171.027 44.9212 172.075 44.9212 173.571C44.9212 175.041 45.7649 176.102 47.1456 176.102ZM51.6232 176.115C52.4798 176.115 52.9272 175.655 53.0806 175.335H53.119V176H53.8732V172.766C53.8732 171.206 52.6843 171.027 52.0579 171.027C51.3164 171.027 50.4727 171.283 50.0891 172.178L50.805 172.433C50.9712 172.075 51.3643 171.692 52.0835 171.692C52.777 171.692 53.119 172.059 53.119 172.689V172.714C53.119 173.079 52.7482 173.047 51.8533 173.162C50.9425 173.28 49.9485 173.482 49.9485 174.607C49.9485 175.565 50.69 176.115 51.6232 176.115ZM51.7383 175.438C51.1374 175.438 50.7028 175.169 50.7028 174.645C50.7028 174.07 51.2269 173.891 51.815 173.814C52.1346 173.776 52.9911 173.686 53.119 173.533V174.223C53.119 174.837 52.6332 175.438 51.7383 175.438ZM55.2499 176H56.0042V172.893C56.0042 172.229 56.5283 171.743 57.2442 171.743C57.4456 171.743 57.6533 171.781 57.7045 171.794V171.027C57.6182 171.021 57.42 171.014 57.3082 171.014C56.7201 171.014 56.2087 171.347 56.0297 171.832H55.9786V171.091H55.2499V176ZM60.3028 176.102C61.2488 176.102 61.5684 175.514 61.7346 175.246H61.8241V176H62.5528V169.455H61.7986V171.871H61.7346C61.5684 171.615 61.2744 171.027 60.3156 171.027C59.0756 171.027 58.219 172.011 58.219 173.558C58.219 175.118 59.0756 176.102 60.3028 176.102ZM60.4051 175.425C59.4591 175.425 58.9733 174.594 58.9733 173.545C58.9733 172.51 59.4463 171.705 60.4051 171.705C61.3256 171.705 61.8113 172.446 61.8113 173.545C61.8113 174.658 61.3128 175.425 60.4051 175.425ZM66.5702 176H67.3245V171.091H66.5702V176ZM66.9537 170.273C67.2478 170.273 67.4907 170.043 67.4907 169.761C67.4907 169.48 67.2478 169.25 66.9537 169.25C66.6597 169.25 66.4168 169.48 66.4168 169.761C66.4168 170.043 66.6597 170.273 66.9537 170.273ZM72.1832 172.19C71.9467 171.494 71.4162 171.027 70.4446 171.027C69.4091 171.027 68.642 171.615 68.642 172.446C68.642 173.124 69.0447 173.577 69.946 173.788L70.7642 173.98C71.2596 174.095 71.4929 174.332 71.4929 174.67C71.4929 175.092 71.0455 175.438 70.3423 175.438C69.7255 175.438 69.3388 175.172 69.2045 174.645L68.4886 174.824C68.6644 175.658 69.3516 176.102 70.3551 176.102C71.4961 176.102 72.2727 175.479 72.2727 174.632C72.2727 173.948 71.8445 173.517 70.9688 173.303L70.2401 173.124C69.6584 172.98 69.3963 172.785 69.3963 172.408C69.3963 171.986 69.8438 171.679 70.4446 171.679C71.103 171.679 71.3746 172.043 71.5057 172.382L72.1832 172.19ZM75.9394 176H76.6936V171.091H75.9394V176ZM76.3229 170.273C76.6169 170.273 76.8598 170.043 76.8598 169.761C76.8598 169.48 76.6169 169.25 76.3229 169.25C76.0289 169.25 75.786 169.48 75.786 169.761C75.786 170.043 76.0289 170.273 76.3229 170.273ZM81.5524 172.19C81.3159 171.494 80.7853 171.027 79.8137 171.027C78.7782 171.027 78.0112 171.615 78.0112 172.446C78.0112 173.124 78.4139 173.577 79.3152 173.788L80.1333 173.98C80.6287 174.095 80.862 174.332 80.862 174.67C80.862 175.092 80.4146 175.438 79.7115 175.438C79.0946 175.438 78.7079 175.172 78.5737 174.645L77.8578 174.824C78.0336 175.658 78.7207 176.102 79.7243 176.102C80.8652 176.102 81.6419 175.479 81.6419 174.632C81.6419 173.948 81.2136 173.517 80.3379 173.303L79.6092 173.124C79.0275 172.98 78.7654 172.785 78.7654 172.408C78.7654 171.986 79.2129 171.679 79.8137 171.679C80.4721 171.679 80.7438 172.043 80.8748 172.382L81.5524 172.19ZM86.2545 172.19C86.018 171.494 85.4875 171.027 84.5159 171.027C83.4804 171.027 82.7133 171.615 82.7133 172.446C82.7133 173.124 83.116 173.577 84.0173 173.788L84.8355 173.98C85.3309 174.095 85.5642 174.332 85.5642 174.67C85.5642 175.092 85.1167 175.438 84.4136 175.438C83.7968 175.438 83.4101 175.172 83.2758 174.645L82.5599 174.824C82.7357 175.658 83.4229 176.102 84.4264 176.102C85.5674 176.102 86.344 175.479 86.344 174.632C86.344 173.948 85.9157 173.517 85.04 173.303L84.3113 173.124C83.7297 172.98 83.4676 172.785 83.4676 172.408C83.4676 171.986 83.915 171.679 84.5159 171.679C85.1743 171.679 85.4459 172.043 85.577 172.382L86.2545 172.19ZM90.5732 173.993C90.5732 174.913 89.87 175.335 89.3075 175.335C88.6811 175.335 88.2337 174.875 88.2337 174.159V171.091H87.4794V174.21C87.4794 175.463 88.1442 176.064 89.0646 176.064C89.8061 176.064 90.2919 175.668 90.522 175.169H90.5732V176H91.3274V171.091H90.5732V173.993ZM94.7671 176.102C95.7643 176.102 96.493 175.604 96.7231 174.862L95.9944 174.658C95.8026 175.169 95.3584 175.425 94.7671 175.425C93.8818 175.425 93.2714 174.853 93.2362 173.801H96.7998V173.482C96.7998 171.653 95.7132 171.027 94.6904 171.027C93.3609 171.027 92.4788 172.075 92.4788 173.584C92.4788 175.092 93.3481 176.102 94.7671 176.102ZM93.2362 173.149C93.2874 172.385 93.8275 171.705 94.6904 171.705C95.5086 171.705 96.0328 172.318 96.0328 173.149H93.2362ZM99.8009 176.102C100.747 176.102 101.066 175.514 101.233 175.246H101.322V176H102.051V169.455H101.297V171.871H101.233C101.066 171.615 100.772 171.027 99.8137 171.027C98.5736 171.027 97.7171 172.011 97.7171 173.558C97.7171 175.118 98.5736 176.102 99.8009 176.102ZM99.9031 175.425C98.9571 175.425 98.4713 174.594 98.4713 173.545C98.4713 172.51 98.9443 171.705 99.9031 171.705C100.824 171.705 101.309 172.446 101.309 173.545C101.309 174.658 100.811 175.425 99.9031 175.425ZM106.171 176H106.899V175.246H106.989C107.155 175.514 107.475 176.102 108.421 176.102C109.648 176.102 110.504 175.118 110.504 173.558C110.504 172.011 109.648 171.027 108.408 171.027C107.449 171.027 107.155 171.615 106.989 171.871H106.925V169.455H106.171V176ZM106.912 173.545C106.912 172.446 107.398 171.705 108.318 171.705C109.277 171.705 109.75 172.51 109.75 173.545C109.75 174.594 109.264 175.425 108.318 175.425C107.411 175.425 106.912 174.658 106.912 173.545ZM111.968 177.841C112.649 177.841 113.128 177.48 113.413 176.716L115.503 171.104L114.678 171.091L113.323 175.003H113.272L111.917 171.091H111.099L112.914 176.026L112.774 176.409C112.499 177.157 112.16 177.227 111.61 177.087L111.418 177.751C111.495 177.79 111.712 177.841 111.968 177.841ZM122.714 171.091H123.481C123.446 170.103 122.535 169.365 121.269 169.365C120.017 169.365 119.032 170.094 119.032 171.193C119.032 172.075 119.671 172.599 120.694 172.893L121.499 173.124C122.19 173.315 122.803 173.558 122.803 174.21C122.803 174.926 122.113 175.399 121.205 175.399C120.426 175.399 119.735 175.054 119.671 174.312H118.853C118.93 175.386 119.799 176.115 121.205 176.115C122.714 176.115 123.57 175.284 123.57 174.223C123.57 172.996 122.407 172.599 121.73 172.42L121.065 172.241C120.579 172.114 119.799 171.858 119.799 171.155C119.799 170.528 120.374 170.068 121.244 170.068C122.036 170.068 122.637 170.445 122.714 171.091ZM127.865 173.993C127.865 174.913 127.162 175.335 126.6 175.335C125.973 175.335 125.526 174.875 125.526 174.159V171.091H124.771V174.21C124.771 175.463 125.436 176.064 126.357 176.064C127.098 176.064 127.584 175.668 127.814 175.169H127.865V176H128.619V171.091H127.865V173.993ZM132.136 171.091H131.088V169.915H130.333V171.091H129.592V171.73H130.333V174.798C130.333 175.655 131.024 176.064 131.663 176.064C131.944 176.064 132.123 176.013 132.225 175.974L132.072 175.297C132.008 175.31 131.906 175.335 131.74 175.335C131.407 175.335 131.088 175.233 131.088 174.594V171.73H132.136V171.091ZM135.405 171.091H134.357V169.915H133.603V171.091H132.861V171.73H133.603V174.798C133.603 175.655 134.293 176.064 134.932 176.064C135.214 176.064 135.393 176.013 135.495 175.974L135.341 175.297C135.278 175.31 135.175 175.335 135.009 175.335C134.677 175.335 134.357 175.233 134.357 174.594V171.73H135.405V171.091ZM138.482 176.102C139.811 176.102 140.706 175.092 140.706 173.571C140.706 172.037 139.811 171.027 138.482 171.027C137.152 171.027 136.257 172.037 136.257 173.571C136.257 175.092 137.152 176.102 138.482 176.102ZM138.482 175.425C137.472 175.425 137.011 174.555 137.011 173.571C137.011 172.587 137.472 171.705 138.482 171.705C139.491 171.705 139.952 172.587 139.952 173.571C139.952 174.555 139.491 175.425 138.482 175.425ZM142.612 173.047C142.612 172.19 143.142 171.705 143.864 171.705C144.564 171.705 144.989 172.162 144.989 172.932V176H145.744V172.881C145.744 171.628 145.076 171.027 144.082 171.027C143.34 171.027 142.88 171.359 142.65 171.858H142.586V171.091H141.857V176H142.612V173.047ZM149.756 176H152.121C153.667 176 154.307 175.246 154.307 174.261C154.307 173.226 153.591 172.663 152.99 172.625V172.561C153.552 172.408 154.051 172.037 154.051 171.193C154.051 170.234 153.412 169.455 152.044 169.455H149.756V176ZM150.548 175.297V173.021H152.159C153.015 173.021 153.552 173.597 153.552 174.261C153.552 174.837 153.156 175.297 152.121 175.297H150.548ZM150.548 172.331V170.158H152.044C152.913 170.158 153.297 170.618 153.297 171.193C153.297 171.884 152.734 172.331 152.018 172.331H150.548ZM156.951 176.115C157.808 176.115 158.255 175.655 158.409 175.335H158.447V176H159.201V172.766C159.201 171.206 158.012 171.027 157.386 171.027C156.645 171.027 155.801 171.283 155.417 172.178L156.133 172.433C156.299 172.075 156.692 171.692 157.412 171.692C158.105 171.692 158.447 172.059 158.447 172.689V172.714C158.447 173.079 158.076 173.047 157.181 173.162C156.271 173.28 155.277 173.482 155.277 174.607C155.277 175.565 156.018 176.115 156.951 176.115ZM157.066 175.438C156.466 175.438 156.031 175.169 156.031 174.645C156.031 174.07 156.555 173.891 157.143 173.814C157.463 173.776 158.319 173.686 158.447 173.533V174.223C158.447 174.837 157.961 175.438 157.066 175.438ZM161.332 173.047C161.332 172.19 161.863 171.705 162.585 171.705C163.285 171.705 163.71 172.162 163.71 172.932V176H164.464V172.881C164.464 171.628 163.796 171.027 162.802 171.027C162.061 171.027 161.601 171.359 161.371 171.858H161.307V171.091H160.578V176H161.332V173.047ZM165.843 176H166.597V174.162L167.124 173.673L168.962 176H169.921L167.693 173.188L169.767 171.091H168.834L166.686 173.277H166.597V169.455H165.843V176ZM171.863 175.105H171.045L171.007 175.463C170.914 176.329 170.732 177.192 170.649 177.598H171.224C171.377 177.163 171.703 176.179 171.812 175.45L171.863 175.105ZM175.894 169.455V176H176.636V171.027H176.7L178.745 176H179.461L181.506 171.027H181.57V176H182.312V169.455H181.366L179.141 174.888H179.065L176.84 169.455H175.894ZM185.857 176.102C186.854 176.102 187.583 175.604 187.813 174.862L187.084 174.658C186.892 175.169 186.448 175.425 185.857 175.425C184.972 175.425 184.361 174.853 184.326 173.801H187.89V173.482C187.89 171.653 186.803 171.027 185.78 171.027C184.451 171.027 183.569 172.075 183.569 173.584C183.569 175.092 184.438 176.102 185.857 176.102ZM184.326 173.149C184.377 172.385 184.917 171.705 185.78 171.705C186.598 171.705 187.123 172.318 187.123 173.149H184.326ZM189.037 176H189.791V172.932C189.791 172.213 190.315 171.705 190.903 171.705C191.476 171.705 191.875 172.078 191.875 172.638V176H192.642V172.804C192.642 172.171 193.038 171.705 193.729 171.705C194.266 171.705 194.726 171.989 194.726 172.714V176H195.48V172.714C195.48 171.561 194.86 171.027 193.984 171.027C193.281 171.027 192.767 171.35 192.514 171.858H192.463C192.22 171.334 191.792 171.027 191.146 171.027C190.507 171.027 190.034 171.334 189.83 171.858H189.766V171.091H189.037V176ZM196.962 176H197.69V175.246H197.78C197.946 175.514 198.266 176.102 199.212 176.102C200.439 176.102 201.295 175.118 201.295 173.558C201.295 172.011 200.439 171.027 199.199 171.027C198.24 171.027 197.946 171.615 197.78 171.871H197.716V169.455H196.962V176ZM197.703 173.545C197.703 172.446 198.189 171.705 199.109 171.705C200.068 171.705 200.541 172.51 200.541 173.545C200.541 174.594 200.055 175.425 199.109 175.425C198.202 175.425 197.703 174.658 197.703 173.545ZM204.507 176.102C205.505 176.102 206.233 175.604 206.463 174.862L205.735 174.658C205.543 175.169 205.099 175.425 204.507 175.425C203.622 175.425 203.012 174.853 202.976 173.801H206.54V173.482C206.54 171.653 205.453 171.027 204.431 171.027C203.101 171.027 202.219 172.075 202.219 173.584C202.219 175.092 203.088 176.102 204.507 176.102ZM202.976 173.149C203.028 172.385 203.568 171.705 204.431 171.705C205.249 171.705 205.773 172.318 205.773 173.149H202.976ZM207.687 176H208.442V172.893C208.442 172.229 208.966 171.743 209.682 171.743C209.883 171.743 210.091 171.781 210.142 171.794V171.027C210.056 171.021 209.858 171.014 209.746 171.014C209.158 171.014 208.646 171.347 208.467 171.832H208.416V171.091H207.687V176ZM213.67 176H214.462V173.072H217.3V172.369H214.462V170.158H217.594V169.455H213.67V176ZM220.972 176C222.966 176 224.091 174.76 224.091 172.714C224.091 170.682 222.966 169.455 221.061 169.455H218.952V176H220.972ZM219.744 175.297V170.158H221.01C222.544 170.158 223.324 171.129 223.324 172.714C223.324 174.312 222.544 175.297 220.921 175.297H219.744ZM226.213 169.455H225.421V176H226.213V169.455ZM233.069 171.5C232.827 170.158 231.753 169.365 230.436 169.365C228.761 169.365 227.547 170.656 227.547 172.727C227.547 174.798 228.761 176.089 230.436 176.089C231.753 176.089 232.827 175.297 233.069 173.955H232.277C232.085 174.862 231.305 175.348 230.436 175.348C229.247 175.348 228.314 174.428 228.314 172.727C228.314 171.027 229.247 170.107 230.436 170.107C231.305 170.107 232.085 170.592 232.277 171.5H233.069ZM235.373 175.105H234.555L234.516 175.463C234.424 176.329 234.242 177.192 234.158 177.598H234.734C234.887 177.163 235.213 176.179 235.322 175.45L235.373 175.105ZM24.6903 188.841H25.4446V186.246H25.5085C25.6747 186.514 25.9943 187.102 26.9403 187.102C28.1676 187.102 29.0241 186.118 29.0241 184.558C29.0241 183.011 28.1676 182.027 26.9276 182.027C25.9688 182.027 25.6747 182.615 25.5085 182.871H25.419V182.091H24.6903V188.841ZM25.4318 184.545C25.4318 183.446 25.9176 182.705 26.8381 182.705C27.7969 182.705 28.2699 183.51 28.2699 184.545C28.2699 185.594 27.7841 186.425 26.8381 186.425C25.9304 186.425 25.4318 185.658 25.4318 184.545ZM33.2685 184.993C33.2685 185.913 32.5653 186.335 32.0028 186.335C31.3764 186.335 30.929 185.875 30.929 185.159V182.091H30.1747V185.21C30.1747 186.463 30.8395 187.064 31.7599 187.064C32.5014 187.064 32.9872 186.668 33.2173 186.169H33.2685V187H34.0227V182.091H33.2685V184.993ZM35.4042 187H36.1585V183.893C36.1585 183.229 36.6826 182.743 37.3985 182.743C37.5999 182.743 37.8076 182.781 37.8588 182.794V182.027C37.7725 182.021 37.5743 182.014 37.4624 182.014C36.8744 182.014 36.363 182.347 36.184 182.832H36.1329V182.091H35.4042V187ZM42.2301 183.19C41.9936 182.494 41.4631 182.027 40.4915 182.027C39.456 182.027 38.6889 182.615 38.6889 183.446C38.6889 184.124 39.0916 184.577 39.9929 184.788L40.8111 184.98C41.3065 185.095 41.5398 185.332 41.5398 185.67C41.5398 186.092 41.0923 186.438 40.3892 186.438C39.7724 186.438 39.3857 186.172 39.2514 185.645L38.5355 185.824C38.7113 186.658 39.3984 187.102 40.402 187.102C41.543 187.102 42.3196 186.479 42.3196 185.632C42.3196 184.948 41.8913 184.517 41.0156 184.303L40.2869 184.124C39.7053 183.98 39.4432 183.785 39.4432 183.408C39.4432 182.986 39.8906 182.679 40.4915 182.679C41.1499 182.679 41.4215 183.043 41.5526 183.382L42.2301 183.19ZM46.5487 184.993C46.5487 185.913 45.8456 186.335 45.2831 186.335C44.6567 186.335 44.2093 185.875 44.2093 185.159V182.091H43.455V185.21C43.455 186.463 44.1198 187.064 45.0402 187.064C45.7817 187.064 46.2675 186.668 46.4976 186.169H46.5487V187H47.303V182.091H46.5487V184.993ZM50.1291 187.115C50.9856 187.115 51.4331 186.655 51.5865 186.335H51.6248V187H52.3791V183.766C52.3791 182.206 51.1902 182.027 50.5637 182.027C49.8223 182.027 48.9785 182.283 48.595 183.178L49.3109 183.433C49.4771 183.075 49.8702 182.692 50.5893 182.692C51.2828 182.692 51.6248 183.059 51.6248 183.689V183.714C51.6248 184.079 51.2541 184.047 50.3592 184.162C49.4483 184.28 48.4544 184.482 48.4544 185.607C48.4544 186.565 49.1958 187.115 50.1291 187.115ZM50.2441 186.438C49.6433 186.438 49.2086 186.169 49.2086 185.645C49.2086 185.07 49.7328 184.891 50.3208 184.814C50.6404 184.776 51.497 184.686 51.6248 184.533V185.223C51.6248 185.837 51.139 186.438 50.2441 186.438ZM54.51 184.047C54.51 183.19 55.0406 182.705 55.7629 182.705C56.4628 182.705 56.8879 183.162 56.8879 183.932V187H57.6421V183.881C57.6421 182.628 56.9742 182.027 55.9802 182.027C55.2387 182.027 54.7785 182.359 54.5484 182.858H54.4845V182.091H53.7558V187H54.51V184.047ZM61.1554 182.091H60.1071V180.915H59.3528V182.091H58.6113V182.73H59.3528V185.798C59.3528 186.655 60.0431 187.064 60.6824 187.064C60.9636 187.064 61.1426 187.013 61.2449 186.974L61.0914 186.297C61.0275 186.31 60.9252 186.335 60.7591 186.335C60.4267 186.335 60.1071 186.233 60.1071 185.594V182.73H61.1554V182.091ZM66.9561 182.091H65.9078V180.915H65.1536V182.091H64.4121V182.73H65.1536V185.798C65.1536 186.655 65.8439 187.064 66.4831 187.064C66.7644 187.064 66.9434 187.013 67.0456 186.974L66.8922 186.297C66.8283 186.31 66.726 186.335 66.5598 186.335C66.2275 186.335 65.9078 186.233 65.9078 185.594V182.73H66.9561V182.091ZM70.0323 187.102C71.3619 187.102 72.2567 186.092 72.2567 184.571C72.2567 183.037 71.3619 182.027 70.0323 182.027C68.7028 182.027 67.8079 183.037 67.8079 184.571C67.8079 186.092 68.7028 187.102 70.0323 187.102ZM70.0323 186.425C69.0224 186.425 68.5621 185.555 68.5621 184.571C68.5621 183.587 69.0224 182.705 70.0323 182.705C71.0423 182.705 71.5025 183.587 71.5025 184.571C71.5025 185.555 71.0423 186.425 70.0323 186.425ZM77.384 187.115C78.2405 187.115 78.6879 186.655 78.8414 186.335H78.8797V187H79.634V183.766C79.634 182.206 78.445 182.027 77.8186 182.027C77.0771 182.027 76.2334 182.283 75.8499 183.178L76.5658 183.433C76.732 183.075 77.1251 182.692 77.8442 182.692C78.5377 182.692 78.8797 183.059 78.8797 183.689V183.714C78.8797 184.079 78.509 184.047 77.6141 184.162C76.7032 184.28 75.7093 184.482 75.7093 185.607C75.7093 186.565 76.4507 187.115 77.384 187.115ZM77.499 186.438C76.8982 186.438 76.4635 186.169 76.4635 185.645C76.4635 185.07 76.9877 184.891 77.5757 184.814C77.8953 184.776 78.7519 184.686 78.8797 184.533V185.223C78.8797 185.837 78.3939 186.438 77.499 186.438ZM84.2962 180.455H83.5419V187H84.2962V180.455ZM85.6776 187H86.4319V182.091H85.6776V187ZM86.0612 181.273C86.3552 181.273 86.5981 181.043 86.5981 180.761C86.5981 180.48 86.3552 180.25 86.0612 180.25C85.7671 180.25 85.5242 180.48 85.5242 180.761C85.5242 181.043 85.7671 181.273 86.0612 181.273ZM89.8077 187.102C90.8944 187.102 91.6103 186.438 91.7381 185.568H90.9838C90.8432 186.105 90.3958 186.425 89.8077 186.425C88.9128 186.425 88.3375 185.683 88.3375 184.545C88.3375 183.433 88.9256 182.705 89.8077 182.705C90.4725 182.705 90.8688 183.114 90.9838 183.561H91.7381C91.6103 182.641 90.8304 182.027 89.7949 182.027C88.4654 182.027 87.5833 183.075 87.5833 184.571C87.5833 186.041 88.427 187.102 89.8077 187.102ZM94.899 187.102C95.8961 187.102 96.6248 186.604 96.8549 185.862L96.1262 185.658C95.9345 186.169 95.4902 186.425 94.899 186.425C94.0137 186.425 93.4032 185.853 93.3681 184.801H96.9316V184.482C96.9316 182.653 95.845 182.027 94.8223 182.027C93.4927 182.027 92.6106 183.075 92.6106 184.584C92.6106 186.092 93.4799 187.102 94.899 187.102ZM93.3681 184.149C93.4192 183.385 93.9593 182.705 94.8223 182.705C95.6404 182.705 96.1646 183.318 96.1646 184.149H93.3681ZM98.8333 184.047C98.8333 183.19 99.3638 182.705 100.086 182.705C100.786 182.705 101.211 183.162 101.211 183.932V187H101.965V183.881C101.965 182.628 101.297 182.027 100.303 182.027C99.562 182.027 99.1017 182.359 98.8716 182.858H98.8077V182.091H98.079V187H98.8333V184.047ZM106.821 183.19C106.584 182.494 106.054 182.027 105.082 182.027C104.047 182.027 103.28 182.615 103.28 183.446C103.28 184.124 103.682 184.577 104.584 184.788L105.402 184.98C105.897 185.095 106.131 185.332 106.131 185.67C106.131 186.092 105.683 186.438 104.98 186.438C104.363 186.438 103.976 186.172 103.842 185.645L103.126 185.824C103.302 186.658 103.989 187.102 104.993 187.102C106.134 187.102 106.91 186.479 106.91 185.632C106.91 184.948 106.482 184.517 105.606 184.303L104.878 184.124C104.296 183.98 104.034 183.785 104.034 183.408C104.034 182.986 104.481 182.679 105.082 182.679C105.741 182.679 106.012 183.043 106.143 183.382L106.821 183.19ZM110.104 187.102C111.101 187.102 111.83 186.604 112.06 185.862L111.331 185.658C111.14 186.169 110.695 186.425 110.104 186.425C109.219 186.425 108.608 185.853 108.573 184.801H112.137V184.482C112.137 182.653 111.05 182.027 110.027 182.027C108.698 182.027 107.816 183.075 107.816 184.584C107.816 186.092 108.685 187.102 110.104 187.102ZM108.573 184.149C108.624 183.385 109.164 182.705 110.027 182.705C110.846 182.705 111.37 183.318 111.37 184.149H108.573ZM118.001 182.091H116.902V181.592C116.902 181.107 117.107 180.851 117.605 180.851C117.822 180.851 117.95 180.902 118.027 180.928L118.244 180.276C118.129 180.224 117.899 180.148 117.528 180.148C116.825 180.148 116.148 180.57 116.148 181.413V182.091H115.355V182.73H116.148V187H116.902V182.73H118.001V182.091ZM119.059 187H119.813V183.893C119.813 183.229 120.337 182.743 121.053 182.743C121.254 182.743 121.462 182.781 121.513 182.794V182.027C121.427 182.021 121.229 182.014 121.117 182.014C120.529 182.014 120.017 182.347 119.838 182.832H119.787V182.091H119.059V187ZM124.252 187.102C125.582 187.102 126.476 186.092 126.476 184.571C126.476 183.037 125.582 182.027 124.252 182.027C122.922 182.027 122.028 183.037 122.028 184.571C122.028 186.092 122.922 187.102 124.252 187.102ZM124.252 186.425C123.242 186.425 122.782 185.555 122.782 184.571C122.782 183.587 123.242 182.705 124.252 182.705C125.262 182.705 125.722 183.587 125.722 184.571C125.722 185.555 125.262 186.425 124.252 186.425ZM127.628 187H128.382V183.932C128.382 183.213 128.906 182.705 129.494 182.705C130.066 182.705 130.466 183.078 130.466 183.638V187H131.233V183.804C131.233 183.171 131.629 182.705 132.32 182.705C132.857 182.705 133.317 182.989 133.317 183.714V187H134.071V183.714C134.071 182.561 133.451 182.027 132.575 182.027C131.872 182.027 131.358 182.35 131.105 182.858H131.054C130.811 182.334 130.383 182.027 129.737 182.027C129.098 182.027 128.625 182.334 128.42 182.858H128.357V182.091H127.628V187ZM138.352 180.455H137.521L139.925 187H140.743L143.146 180.455H142.315L140.372 185.964H140.295L138.352 180.455ZM144.063 187H144.818V182.091H144.063V187ZM144.447 181.273C144.741 181.273 144.984 181.043 144.984 180.761C144.984 180.48 144.741 180.25 144.447 180.25C144.153 180.25 143.91 180.48 143.91 180.761C143.91 181.043 144.153 181.273 144.447 181.273ZM149.676 183.19C149.44 182.494 148.909 182.027 147.938 182.027C146.902 182.027 146.135 182.615 146.135 183.446C146.135 184.124 146.538 184.577 147.439 184.788L148.257 184.98C148.753 185.095 148.986 185.332 148.986 185.67C148.986 186.092 148.539 186.438 147.835 186.438C147.219 186.438 146.832 186.172 146.698 185.645L145.982 185.824C146.158 186.658 146.845 187.102 147.848 187.102C148.989 187.102 149.766 186.479 149.766 185.632C149.766 184.948 149.338 184.517 148.462 184.303L147.733 184.124C147.152 183.98 146.889 183.785 146.889 183.408C146.889 182.986 147.337 182.679 147.938 182.679C148.596 182.679 148.868 183.043 148.999 183.382L149.676 183.19ZM152.346 187.115C153.202 187.115 153.65 186.655 153.803 186.335H153.842V187H154.596V183.766C154.596 182.206 153.407 182.027 152.781 182.027C152.039 182.027 151.195 182.283 150.812 183.178L151.528 183.433C151.694 183.075 152.087 182.692 152.806 182.692C153.5 182.692 153.842 183.059 153.842 183.689V183.714C153.842 184.079 153.471 184.047 152.576 184.162C151.665 184.28 150.671 184.482 150.671 185.607C150.671 186.565 151.413 187.115 152.346 187.115ZM152.461 186.438C151.86 186.438 151.425 186.169 151.425 185.645C151.425 185.07 151.95 184.891 152.538 184.814C152.857 184.776 153.714 184.686 153.842 184.533V185.223C153.842 185.837 153.356 186.438 152.461 186.438ZM162.902 180.455V184.724C162.902 185.683 162.243 186.374 161.15 186.374C160.057 186.374 159.399 185.683 159.399 184.724V180.455H158.606V184.788C158.606 186.131 159.61 187.115 161.15 187.115C162.691 187.115 163.694 186.131 163.694 184.788V180.455H162.902ZM165.417 187.051C165.733 187.051 165.992 186.792 165.992 186.476C165.992 186.159 165.733 185.901 165.417 185.901C165.1 185.901 164.842 186.159 164.842 186.476C164.842 186.792 165.1 187.051 165.417 187.051ZM171.027 182.091H171.794C171.759 181.103 170.848 180.365 169.583 180.365C168.33 180.365 167.346 181.094 167.346 182.193C167.346 183.075 167.985 183.599 169.008 183.893L169.813 184.124C170.503 184.315 171.117 184.558 171.117 185.21C171.117 185.926 170.427 186.399 169.519 186.399C168.739 186.399 168.049 186.054 167.985 185.312H167.167C167.243 186.386 168.113 187.115 169.519 187.115C171.027 187.115 171.884 186.284 171.884 185.223C171.884 183.996 170.721 183.599 170.043 183.42L169.378 183.241C168.892 183.114 168.113 182.858 168.113 182.155C168.113 181.528 168.688 181.068 169.557 181.068C170.35 181.068 170.951 181.445 171.027 182.091ZM173.635 187.051C173.951 187.051 174.21 186.792 174.21 186.476C174.21 186.159 173.951 185.901 173.635 185.901C173.318 185.901 173.059 186.159 173.059 186.476C173.059 186.792 173.318 187.051 173.635 187.051ZM175.934 187L176.593 185.146H179.239L179.897 187H180.728L178.325 180.455H177.507L175.103 187H175.934ZM176.842 184.443L177.89 181.49H177.941L178.99 184.443H176.842ZM185.072 180.455H184.279V187H185.072V180.455ZM187.313 184.047C187.313 183.19 187.843 182.705 188.566 182.705C189.266 182.705 189.691 183.162 189.691 183.932V187H190.445V183.881C190.445 182.628 189.777 182.027 188.783 182.027C188.041 182.027 187.581 182.359 187.351 182.858H187.287V182.091H186.559V187H187.313V184.047ZM193.817 187.102C194.904 187.102 195.62 186.438 195.748 185.568H194.994C194.853 186.105 194.406 186.425 193.817 186.425C192.923 186.425 192.347 185.683 192.347 184.545C192.347 183.433 192.935 182.705 193.817 182.705C194.482 182.705 194.879 183.114 194.994 183.561H195.748C195.62 182.641 194.84 182.027 193.805 182.027C192.475 182.027 191.593 183.075 191.593 184.571C191.593 186.041 192.437 187.102 193.817 187.102ZM197.4 187.051C197.717 187.051 197.975 186.792 197.975 186.476C197.975 186.159 197.717 185.901 197.4 185.901C197.084 185.901 196.825 186.159 196.825 186.476C196.825 186.792 197.084 187.051 197.4 187.051Z" fill="white"/>
<g clip-path="url(#clip0_125:1298)">
<path d="M279.767 168.258L276.564 182.144H272.688L275.891 168.258H279.767V168.258ZM296.078 177.216L298.123 171.997L299.299 177.216H296.078ZM300.411 182.136H304L300.869 168.258H297.558C296.813 168.258 296.185 168.657 295.907 169.28L290.093 182.144H294.167L294.974 180.075H299.945L300.411 182.136ZM290.291 177.607C290.309 173.942 284.818 173.742 284.854 172.105C284.863 171.607 285.374 171.075 286.496 170.942C287.052 170.875 288.586 170.826 290.318 171.565L291 168.623C290.067 168.299 288.864 168 287.375 168C283.544 168 280.843 169.886 280.825 172.587C280.799 174.582 282.754 175.704 284.226 176.369C285.733 177.05 286.244 177.482 286.236 178.097C286.227 179.028 285.033 179.443 283.912 179.452C281.965 179.485 280.825 178.961 279.928 178.579L279.228 181.621C280.135 182.003 281.803 182.344 283.544 182.36C287.608 182.36 290.273 180.49 290.291 177.607ZM274.222 168.258L267.942 182.144H263.841L260.746 171.058C260.558 170.377 260.396 170.127 259.822 169.837C258.898 169.371 257.355 168.931 256 168.657L256.09 168.249H262.693C263.536 168.249 264.29 168.765 264.479 169.662L266.111 177.698L270.149 168.249H274.222V168.258Z" fill="white"/>
<path d="M276.932 189.914C277.066 189.939 277.255 189.939 277.488 189.939C278.17 189.939 278.807 189.707 278.807 189.017C278.807 188.377 278.206 188.103 277.479 188.103H276.932V189.914ZM276.932 187.637H277.533C278.224 187.637 278.636 187.288 278.636 186.831C278.636 186.283 278.188 186.058 277.515 186.058C277.21 186.058 277.03 186.083 276.932 186.1V187.637V187.637ZM276.268 185.693C276.555 185.626 277.021 185.585 277.479 185.585C278.143 185.585 278.573 185.693 278.878 185.934C279.148 186.117 279.309 186.399 279.309 186.773C279.309 187.238 278.977 187.637 278.439 187.82V187.845C278.923 187.953 279.498 188.327 279.498 189.033C279.498 189.441 279.318 189.756 279.058 189.989C278.708 190.297 278.125 190.438 277.29 190.438C276.833 190.438 276.483 190.413 276.259 190.38V185.693H276.268Z" fill="white"/>
<path d="M283.652 189.441C283.652 189.798 283.661 190.114 283.679 190.38H283.086L283.05 189.823H283.033C282.862 190.097 282.467 190.463 281.812 190.463C281.229 190.463 280.538 190.155 280.538 188.967V186.964H281.211V188.851C281.211 189.499 281.436 189.948 282.037 189.948C282.485 189.948 282.799 189.657 282.925 189.374C282.961 189.291 282.988 189.175 282.988 189.058V186.964H283.661V189.441H283.652Z" fill="white"/>
<path d="M284.863 189.748C285.069 189.865 285.419 189.989 285.751 189.989C286.236 189.989 286.46 189.773 286.46 189.482C286.46 189.183 286.271 189.033 285.778 188.859C285.105 188.635 284.791 188.302 284.791 187.887C284.791 187.338 285.276 186.881 286.065 186.881C286.442 186.881 286.765 186.973 286.962 187.089L286.801 187.538C286.657 187.455 286.388 187.33 286.047 187.33C285.652 187.33 285.437 187.538 285.437 187.795C285.437 188.078 285.652 188.202 286.128 188.377C286.765 188.593 287.097 188.892 287.097 189.399C287.097 190.006 286.585 190.43 285.724 190.43C285.32 190.43 284.944 190.33 284.683 190.189L284.863 189.748Z" fill="white"/>
<path d="M288.173 190.38V186.964H288.846V190.38H288.173ZM288.918 186C288.918 186.208 288.757 186.382 288.487 186.382C288.245 186.382 288.084 186.216 288.084 186C288.084 185.792 288.254 185.61 288.505 185.61C288.748 185.61 288.918 185.784 288.918 186Z" fill="white"/>
<path d="M290.147 187.887C290.147 187.529 290.138 187.247 290.111 186.964H290.704L290.739 187.529H290.757C290.937 187.213 291.368 186.898 291.978 186.898C292.489 186.898 293.279 187.18 293.279 188.352V190.388H292.606V188.418C292.606 187.87 292.381 187.405 291.753 187.405C291.323 187.405 290.973 187.695 290.856 188.045C290.82 188.119 290.811 188.227 290.811 188.335V190.388H290.138V187.887H290.147Z" fill="white"/>
<path d="M296.912 188.335C296.921 187.945 296.733 187.33 295.979 187.33C295.288 187.33 295.001 187.903 294.947 188.335H296.912ZM294.938 188.784C294.956 189.623 295.521 189.973 296.203 189.973C296.688 189.973 296.984 189.898 297.226 189.798L297.352 190.247C297.118 190.346 296.706 190.463 296.114 190.463C294.974 190.463 294.301 189.765 294.301 188.734C294.301 187.704 294.956 186.898 296.033 186.898C297.244 186.898 297.558 187.87 297.558 188.502C297.558 188.626 297.549 188.718 297.531 188.792H294.938V188.784Z" fill="white"/>
<path d="M298.491 189.748C298.698 189.865 299.047 189.989 299.379 189.989C299.864 189.989 300.088 189.773 300.088 189.482C300.088 189.183 299.9 189.033 299.406 188.859C298.733 188.635 298.419 188.302 298.419 187.887C298.419 187.338 298.904 186.881 299.693 186.881C300.07 186.881 300.393 186.973 300.591 187.089L300.429 187.538C300.286 187.455 300.016 187.33 299.676 187.33C299.281 187.33 299.065 187.538 299.065 187.795C299.065 188.078 299.281 188.202 299.756 188.377C300.393 188.593 300.725 188.892 300.725 189.399C300.725 190.006 300.214 190.43 299.353 190.43C298.949 190.43 298.572 190.33 298.312 190.189L298.491 189.748Z" fill="white"/>
<path d="M301.694 189.748C301.901 189.865 302.25 189.989 302.582 189.989C303.067 189.989 303.291 189.773 303.291 189.482C303.291 189.183 303.103 189.033 302.609 188.859C301.936 188.635 301.622 188.302 301.622 187.887C301.622 187.338 302.107 186.881 302.896 186.881C303.273 186.881 303.596 186.973 303.794 187.089L303.632 187.538C303.489 187.455 303.219 187.33 302.879 187.33C302.484 187.33 302.268 187.538 302.268 187.795C302.268 188.078 302.484 188.202 302.959 188.377C303.596 188.593 303.928 188.892 303.928 189.399C303.928 190.006 303.417 190.43 302.556 190.43C302.152 190.43 301.775 190.33 301.515 190.189L301.694 189.748Z" fill="white"/>
</g>
<path d="M32.9645 111.33C34.6903 111.33 36.0895 109.93 36.0895 108.205C36.0895 106.479 34.6903 105.08 32.9645 105.08C31.2386 105.08 29.8395 106.479 29.8395 108.205C29.8395 109.93 31.2386 111.33 32.9645 111.33ZM43.8864 111.33C45.6122 111.33 47.0114 109.93 47.0114 108.205C47.0114 106.479 45.6122 105.08 43.8864 105.08C42.1605 105.08 40.7614 106.479 40.7614 108.205C40.7614 109.93 42.1605 111.33 43.8864 111.33ZM54.8082 111.33C56.5341 111.33 57.9332 109.93 57.9332 108.205C57.9332 106.479 56.5341 105.08 54.8082 105.08C53.0824 105.08 51.6832 106.479 51.6832 108.205C51.6832 109.93 53.0824 111.33 54.8082 111.33ZM65.7301 111.33C67.456 111.33 68.8551 109.93 68.8551 108.205C68.8551 106.479 67.456 105.08 65.7301 105.08C64.0043 105.08 62.6051 106.479 62.6051 108.205C62.6051 109.93 64.0043 111.33 65.7301 111.33ZM88.5739 111.33C90.2997 111.33 91.6989 109.93 91.6989 108.205C91.6989 106.479 90.2997 105.08 88.5739 105.08C86.848 105.08 85.4489 106.479 85.4489 108.205C85.4489 109.93 86.848 111.33 88.5739 111.33ZM99.4957 111.33C101.222 111.33 102.621 109.93 102.621 108.205C102.621 106.479 101.222 105.08 99.4957 105.08C97.7699 105.08 96.3707 106.479 96.3707 108.205C96.3707 109.93 97.7699 111.33 99.4957 111.33ZM110.418 111.33C112.143 111.33 113.543 109.93 113.543 108.205C113.543 106.479 112.143 105.08 110.418 105.08C108.692 105.08 107.293 106.479 107.293 108.205C107.293 109.93 108.692 111.33 110.418 111.33ZM121.339 111.33C123.065 111.33 124.464 109.93 124.464 108.205C124.464 106.479 123.065 105.08 121.339 105.08C119.614 105.08 118.214 106.479 118.214 108.205C118.214 109.93 119.614 111.33 121.339 111.33ZM144.183 111.33C145.909 111.33 147.308 109.93 147.308 108.205C147.308 106.479 145.909 105.08 144.183 105.08C142.457 105.08 141.058 106.479 141.058 108.205C141.058 109.93 142.457 111.33 144.183 111.33ZM155.105 111.33C156.831 111.33 158.23 109.93 158.23 108.205C158.23 106.479 156.831 105.08 155.105 105.08C153.379 105.08 151.98 106.479 151.98 108.205C151.98 109.93 153.379 111.33 155.105 111.33ZM166.027 111.33C167.753 111.33 169.152 109.93 169.152 108.205C169.152 106.479 167.753 105.08 166.027 105.08C164.301 105.08 162.902 106.479 162.902 108.205C162.902 109.93 164.301 111.33 166.027 111.33ZM176.949 111.33C178.675 111.33 180.074 109.93 180.074 108.205C180.074 106.479 178.675 105.08 176.949 105.08C175.223 105.08 173.824 106.479 173.824 108.205C173.824 109.93 175.223 111.33 176.949 111.33Z" fill="#F2F2F2"/>
</g>
<defs>
<filter id="filter0_ddd_125:1298" x="0" y="0" width="324" height="214" filterUnits="userSpaceOnUse" color-interpolation-filters="sRGB">
<feFlood flood-opacity="0" result="BackgroundImageFix"/>
<feColorMatrix in="SourceAlpha" type="matrix" values="0 0 0 0 0 0 0 0 0 0 0 0 0 0 0 0 0 0 127 0" result="hardAlpha"/>
<feOffset dy="4"/>
<feGaussianBlur stdDeviation="6"/>
<feColorMatrix type="matrix" values="0 0 0 0 0.00392157 0 0 0 0 0.0509804 0 0 0 0 0.121569 0 0 0 0.2 0"/>
<feBlend mode="normal" in2="BackgroundImageFix" result="effect1_dropShadow_125:1298"/>
<feColorMatrix in="SourceAlpha" type="matrix" values="0 0 0 0 0 0 0 0 0 0 0 0 0 0 0 0 0 0 127 0" result="hardAlpha"/>
<feOffset dy="2"/>
<feGaussianBlur stdDeviation="4"/>
<feComposite in2="hardAlpha" operator="out"/>
<feColorMatrix type="matrix" values="0 0 0 0 0.00392157 0 0 0 0 0.0509804 0 0 0 0 0.121569 0 0 0 0.12 0"/>
<feBlend mode="normal" in2="effect1_dropShadow_125:1298" result="effect2_dropShadow_125:1298"/>
<feColorMatrix in="SourceAlpha" type="matrix" values="0 0 0 0 0 0 0 0 0 0 0 0 0 0 0 0 0 0 127 0" result="hardAlpha"/>
<feOffset/>
<feGaussianBlur stdDeviation="1"/>
<feColorMatrix type="matrix" values="0 0 0 0 0.00392157 0 0 0 0 0.0509804 0 0 0 0 0.121569 0 0 0 0.24 0"/>
<feBlend mode="normal" in2="effect2_dropShadow_125:1298" result="effect3_dropShadow_125:1298"/>
<feBlend mode="normal" in="SourceGraphic" in2="effect3_dropShadow_125:1298" result="shape"/>
</filter>
<radialGradient id="paint0_radial_125:1298" cx="0" cy="0" r="1" gradientUnits="userSpaceOnUse" gradientTransform="translate(307.331 8) rotate(-180) scale(295.331 293.11)">
<stop offset="0.06" stop-color="#006EBE"/>
<stop offset="1" stop-color="#013C71"/>
</radialGradient>
<clipPath id="clip0_125:1298">
<rect width="48" height="22.4545" fill="white" transform="translate(256 168)"/>
</clipPath>
</defs>
</svg>
