<svg width="65" height="65" viewBox="0 0 65 65" fill="none" xmlns="http://www.w3.org/2000/svg">
<rect opacity="0.4" width="59.6364" height="59.6364" rx="12" fill="white"/>
<path d="M7.47381 21.3236C7.82356 21.3236 8.12817 21.2205 8.34405 20.996C8.55844 20.773 8.65221 20.4647 8.65221 20.1201V13.3704C8.65221 11.7808 9.06751 10.6122 9.83985 9.83985C10.6122 9.06751 11.7808 8.65221 13.3704 8.65221H20.1452C20.4898 8.65221 20.7981 8.55844 21.0211 8.34405C21.2456 8.12817 21.3487 7.82356 21.3487 7.47381C21.3487 7.12406 21.2456 6.81945 21.0211 6.60357C20.7981 6.38918 20.4898 6.29541 20.1452 6.29541H13.3202C11.0586 6.29541 9.29182 6.88355 8.0913 8.07415C6.89042 9.2651 6.29541 11.0199 6.29541 13.27V20.1201C6.29541 20.4647 6.38918 20.773 6.60357 20.996C6.81945 21.2205 7.12406 21.3236 7.47381 21.3236ZM52.1625 21.3236C52.5122 21.3236 52.8168 21.2205 53.0327 20.996C53.2471 20.773 53.3409 20.4647 53.3409 20.1201V13.27C53.3409 11.045 52.7522 9.29091 51.5585 8.09395C50.3647 6.89685 48.6042 6.29541 46.3411 6.29541H39.4911C39.1465 6.29541 38.8382 6.38918 38.6152 6.60357C38.3907 6.81945 38.2876 7.12406 38.2876 7.47381C38.2876 7.82356 38.3907 8.12817 38.6152 8.34405C38.8382 8.55844 39.1465 8.65221 39.4911 8.65221H46.2659C47.8034 8.65221 48.9739 9.06657 49.7601 9.84117C50.5457 10.6151 50.9841 11.7846 50.9841 13.3704V20.1201C50.9841 20.4647 51.0778 20.773 51.2922 20.996C51.5081 21.2205 51.8127 21.3236 52.1625 21.3236ZM27.7731 33.443H27.999C29.053 33.443 29.8931 33.1827 30.468 32.6113C31.0432 32.0396 31.3102 31.1991 31.3102 30.1318V22.4286C31.3102 22.1043 31.2328 21.8148 31.0268 21.6088C30.8209 21.4029 30.5314 21.3255 30.2071 21.3255C29.8925 21.3255 29.6059 21.4042 29.3987 21.6069C29.1905 21.8106 29.1039 22.0987 29.1039 22.4286V30.3576C29.1039 30.8788 28.6828 31.2117 28.2499 31.2117H27.3968C26.782 31.2117 26.3187 31.6749 26.3187 32.2897C26.3187 32.6467 26.4336 32.9562 26.7089 33.166C26.9703 33.3652 27.3369 33.443 27.7731 33.443ZM20.7976 27.6719C21.2275 27.6719 21.603 27.5346 21.8714 27.2662C22.1399 26.9977 22.2771 26.6223 22.2771 26.1924V22.8551C22.2771 22.4148 22.1412 22.0331 21.8727 21.7607C21.6039 21.4879 21.2276 21.3505 20.7976 21.3505C20.3742 21.3505 20.0049 21.498 19.7419 21.7727C19.48 22.0463 19.3432 22.4256 19.3432 22.8551V26.1924C19.3432 26.6222 19.4803 26.9968 19.7444 27.2649C20.0089 27.5332 20.378 27.6719 20.7976 27.6719ZM38.6128 27.6719C39.0325 27.6719 39.4016 27.5332 39.666 27.2649C39.9301 26.9968 40.0673 26.6222 40.0673 26.1924V22.8551C40.0673 22.4256 39.9305 22.0463 39.6685 21.7727C39.4056 21.498 39.0363 21.3505 38.6128 21.3505C38.1832 21.3505 37.8023 21.4875 37.5278 21.7581C37.2527 22.0292 37.1082 22.4112 37.1082 22.8551V26.1924C37.1082 26.626 37.2541 27.0016 37.5291 27.2687C37.8032 27.535 38.1833 27.6719 38.6128 27.6719ZM29.6049 41.1211C32.4299 41.1211 35.2497 39.9419 37.3268 37.8687C37.5235 37.7007 37.7086 37.4102 37.7086 37.007C37.7086 36.3571 37.2102 35.9289 36.6306 35.9289C36.467 35.9289 36.3023 35.9517 36.1279 36.0348C35.9587 36.1153 35.7969 36.2448 35.6226 36.4319C34.1605 37.8922 31.8909 38.94 29.6049 38.94C27.3203 38.94 25.0753 37.8934 23.5867 36.4314C23.4263 36.2584 23.2722 36.1299 23.1049 36.0463C22.932 35.9598 22.7605 35.9289 22.5791 35.9289C21.9995 35.9289 21.5011 36.3571 21.5011 37.007C21.5011 37.3965 21.6964 37.6816 21.8737 37.8595C23.9049 39.9669 26.7803 41.1211 29.6049 41.1211ZM13.3202 53.3409H20.1452C20.4898 53.3409 20.7981 53.2471 21.0211 53.0327C21.2456 52.8168 21.3487 52.5122 21.3487 52.1625C21.3487 51.8127 21.2456 51.5081 21.0211 51.2922C20.7981 51.0778 20.4898 50.9841 20.1452 50.9841H13.3704C11.7808 50.9841 10.6124 50.5688 9.84019 49.7936C9.06778 49.0183 8.65221 47.8434 8.65221 46.2408V39.5162C8.65221 39.1718 8.55864 38.8594 8.34728 38.6312C8.13326 38.4 7.82854 38.2876 7.47381 38.2876C7.11908 38.2876 6.81436 38.4 6.60034 38.6312C6.38898 38.8594 6.29541 39.1718 6.29541 39.5162V46.3411C6.29541 48.6035 6.89022 50.3645 8.09105 51.5587C9.29164 52.7527 11.0586 53.3409 13.3202 53.3409ZM39.4911 53.3409H46.3411C48.6049 53.3409 50.3654 52.7328 51.559 51.5293C52.7522 50.3262 53.3409 48.5662 53.3409 46.3411V39.5162C53.3409 39.1718 53.2473 38.8594 53.0359 38.6312C52.8219 38.4 52.5172 38.2876 52.1625 38.2876C51.8077 38.2876 51.503 38.4 51.289 38.6312C51.0776 38.8594 50.9841 39.1718 50.9841 39.5162V46.2408C50.9841 47.8396 50.5454 49.0154 49.7598 49.7923C48.9736 50.5697 47.8034 50.9841 46.2659 50.9841H39.4911C39.1465 50.9841 38.8382 51.0778 38.6152 51.2922C38.3907 51.5081 38.2876 51.8127 38.2876 52.1625C38.2876 52.5122 38.3907 52.8168 38.6152 53.0327C38.8382 53.2471 39.1465 53.3409 39.4911 53.3409Z" fill="#0084FF" stroke="#0084FF" stroke-width="0.5"/>
<path d="M53 64.5813C59.6274 64.5813 65 59.2087 65 52.5813C65 45.9539 59.6274 40.5813 53 40.5813C46.3726 40.5813 41 45.9539 41 52.5813C41 59.2087 46.3726 64.5813 53 64.5813Z" fill="#00B856"/>
<path opacity="0.1" fill-rule="evenodd" clip-rule="evenodd" d="M52.7653 59.6033C53.1235 59.958 53.6093 60.1573 54.1158 60.1573C54.3669 60.1576 54.6156 60.1089 54.8477 60.0139C55.0798 59.9189 55.2907 59.7795 55.4684 59.6037C55.646 59.4279 55.7869 59.2192 55.8829 58.9894C55.979 58.7596 56.0284 58.5133 56.0282 58.2646V54.8576H59.4672C59.9741 54.8576 60.4602 54.6582 60.8186 54.3033C61.177 53.9484 61.3784 53.4669 61.3784 52.965C61.3784 52.463 61.177 51.9816 60.8186 51.6267C60.4602 51.2717 59.9741 51.0723 59.4672 51.0723H56.0282V47.6656C56.0282 47.1636 55.8268 46.6822 55.4684 46.3273C55.11 45.9724 54.6239 45.7729 54.1171 45.7729C53.6102 45.7729 53.1241 45.9724 52.7657 46.3273C52.4073 46.6822 52.2059 47.1636 52.2059 47.6656V51.0723H48.7648C48.2579 51.0723 47.7718 51.2717 47.4134 51.6267C47.055 51.9816 46.8536 52.463 46.8536 52.965C46.8536 53.4669 47.055 53.9484 47.4134 54.3033C47.7718 54.6582 48.2579 54.8576 48.7648 54.8576H52.2059V58.2659C52.2059 58.7675 52.4071 59.2486 52.7653 59.6033Z" fill="black"/>
<path d="M52.9989 59.4903C52.517 59.4903 52.0548 59.2989 51.7141 58.9581C51.3733 58.6174 51.1819 58.1552 51.1819 57.6733V47.4903C51.1819 47.0081 51.3734 46.5456 51.7144 46.2046C52.0554 45.8637 52.5179 45.6721 53.0001 45.6721C53.4823 45.6721 53.9447 45.8637 54.2857 46.2046C54.6267 46.5456 54.8182 47.0081 54.8182 47.4903V57.6721C54.8184 57.911 54.7714 58.1476 54.6801 58.3684C54.5887 58.5891 54.4546 58.7897 54.2856 58.9586C54.1166 59.1274 53.916 59.2613 53.6952 59.3526C53.4744 59.4438 53.2378 59.4906 52.9989 59.4903V59.4903Z" fill="white"/>
<path d="M58.091 54.3995H47.9091C47.4269 54.3995 46.9644 54.208 46.6235 53.867C46.2825 53.526 46.0909 53.0636 46.0909 52.5814C46.0909 52.0992 46.2825 51.6367 46.6235 51.2957C46.9644 50.9547 47.4269 50.7632 47.9091 50.7632H58.091C58.3297 50.7632 58.5661 50.8102 58.7867 50.9016C59.0073 50.993 59.2078 51.1269 59.3766 51.2957C59.5454 51.4645 59.6794 51.665 59.7707 51.8856C59.8621 52.1062 59.9091 52.3426 59.9091 52.5814C59.9091 52.8201 59.8621 53.0566 59.7707 53.2772C59.6794 53.4977 59.5454 53.6982 59.3766 53.867C59.2078 54.0358 59.0073 54.1698 58.7867 54.2611C58.5661 54.3525 58.3297 54.3995 58.091 54.3995Z" fill="white"/>
</svg>
