<svg width="343" height="48" viewBox="0 0 343 48" fill="none" xmlns="http://www.w3.org/2000/svg">
<g clip-path="url(#clip0_34:5087)">
<rect width="343" height="48" rx="4" fill="white"/>
<rect width="24" height="24" transform="translate(62 12)" fill="white"/>
<path fill-rule="evenodd" clip-rule="evenodd" d="M85.04 24.2614C85.04 23.4459 84.9668 22.6618 84.8309 21.9091H74V26.3575H80.1891C79.9225 27.795 79.1123 29.013 77.8943 29.8284V32.7139H81.6109C83.7855 30.7118 85.04 27.7637 85.04 24.2614Z" fill="#4285F4"/>
<path fill-rule="evenodd" clip-rule="evenodd" d="M74 35.4998C77.105 35.4998 79.7081 34.47 81.6109 32.7137L77.8943 29.8282C76.8645 30.5182 75.5472 30.9259 74 30.9259C71.0047 30.9259 68.4695 28.903 67.5652 26.1848H63.7231V29.1644C65.6154 32.9228 69.5045 35.4998 74 35.4998Z" fill="#34A853"/>
<path fill-rule="evenodd" clip-rule="evenodd" d="M67.5652 26.1851C67.3352 25.4951 67.2045 24.758 67.2045 24.0001C67.2045 23.2421 67.3352 22.5051 67.5652 21.8151V18.8355H63.7232C62.9443 20.388 62.5 22.1444 62.5 24.0001C62.5 25.8557 62.9443 27.6121 63.7232 29.1646L67.5652 26.1851Z" fill="#FBBC05"/>
<path fill-rule="evenodd" clip-rule="evenodd" d="M74 17.0739C75.6884 17.0739 77.2043 17.6541 78.3961 18.7936L81.6945 15.4952C79.7029 13.6395 77.0997 12.5 74 12.5C69.5045 12.5 65.6154 15.077 63.7231 18.8355L67.5652 21.815C68.4695 19.0968 71.0047 17.0739 74 17.0739Z" fill="#EA4335"/>
<path d="M101.472 21.5625H103.5C103.46 19.5966 101.784 18.2045 99.3068 18.2045C96.8636 18.2045 95.0284 19.5795 95.0341 21.6364C95.0341 23.3068 96.2216 24.267 98.1364 24.7614L99.4602 25.1023C100.716 25.4205 101.545 25.8125 101.551 26.7159C101.545 27.7102 100.602 28.375 99.2273 28.375C97.9091 28.375 96.8864 27.7841 96.8011 26.5625H94.7273C94.8125 28.875 96.5341 30.1761 99.2443 30.1761C102.034 30.1761 103.653 28.7841 103.659 26.733C103.653 24.7159 101.989 23.7955 100.239 23.3807L99.1477 23.108C98.1932 22.8807 97.1591 22.4773 97.1705 21.5057C97.1761 20.6307 97.9602 19.9886 99.2784 19.9886C100.534 19.9886 101.364 20.5739 101.472 21.5625ZM108.146 18.3636H106.038V30H108.146V18.3636ZM118.724 22.0795H120.872C120.514 19.7955 118.537 18.2045 115.963 18.2045C112.918 18.2045 110.634 20.4432 110.634 24.1932C110.634 27.875 112.815 30.1591 116.026 30.1591C118.906 30.1591 120.969 28.3068 120.969 25.3068V23.9091H116.247V25.5568H118.929C118.895 27.2159 117.787 28.267 116.037 28.267C114.088 28.267 112.753 26.8068 112.753 24.1705C112.753 21.5511 114.111 20.0966 115.991 20.0966C117.395 20.0966 118.349 20.8466 118.724 22.0795ZM133.07 18.3636H130.973V26.2955H130.871L125.393 18.3636H123.507V30H125.615V22.0739H125.712L131.195 30H133.07V18.3636ZM142.443 18.3636H140.335V30H142.443V18.3636ZM154.788 18.3636H152.692V26.2955H152.589L147.112 18.3636H145.226V30H147.334V22.0739H147.43L152.913 30H154.788V18.3636ZM164.503 30H166.582L168.918 21.8352H169.009L171.338 30H173.418L176.702 18.3636H174.435L172.338 26.9205H172.236L169.991 18.3636H167.929L165.69 26.9148H165.582L163.486 18.3636H161.219L164.503 30ZM180.771 18.3636H178.663V30H180.771V18.3636ZM183.043 20.1307H186.639V30H188.73V20.1307H192.327V18.3636H183.043V20.1307ZM194.616 30H196.724V25.0568H202.116V30H204.23V18.3636H202.116V23.2898H196.724V18.3636H194.616V30ZM219.287 22.0795H221.435C221.077 19.7955 219.099 18.2045 216.526 18.2045C213.48 18.2045 211.196 20.4432 211.196 24.1932C211.196 27.875 213.378 30.1591 216.588 30.1591C219.469 30.1591 221.531 28.3068 221.531 25.3068V23.9091H216.81V25.5568H219.491C219.457 27.2159 218.349 28.267 216.599 28.267C214.651 28.267 213.315 26.8068 213.315 24.1705C213.315 21.5511 214.673 20.0966 216.554 20.0966C217.957 20.0966 218.912 20.8466 219.287 22.0795ZM234.467 24.1818C234.467 20.4205 232.172 18.2045 229.121 18.2045C226.064 18.2045 223.774 20.4205 223.774 24.1818C223.774 27.9375 226.064 30.1591 229.121 30.1591C232.172 30.1591 234.467 27.9432 234.467 24.1818ZM232.348 24.1818C232.348 26.8295 231.018 28.267 229.121 28.267C227.229 28.267 225.893 26.8295 225.893 24.1818C225.893 21.5341 227.229 20.0966 229.121 20.0966C231.018 20.0966 232.348 21.5341 232.348 24.1818ZM247.358 24.1818C247.358 20.4205 245.062 18.2045 242.011 18.2045C238.955 18.2045 236.665 20.4205 236.665 24.1818C236.665 27.9375 238.955 30.1591 242.011 30.1591C245.062 30.1591 247.358 27.9432 247.358 24.1818ZM245.239 24.1818C245.239 26.8295 243.909 28.267 242.011 28.267C240.119 28.267 238.784 26.8295 238.784 24.1818C238.784 21.5341 240.119 20.0966 242.011 20.0966C243.909 20.0966 245.239 21.5341 245.239 24.1818ZM257.646 22.0795H259.794C259.436 19.7955 257.459 18.2045 254.885 18.2045C251.839 18.2045 249.555 20.4432 249.555 24.1932C249.555 27.875 251.737 30.1591 254.947 30.1591C257.828 30.1591 259.891 28.3068 259.891 25.3068V23.9091H255.169V25.5568H257.851C257.817 27.2159 256.709 28.267 254.959 28.267C253.01 28.267 251.675 26.8068 251.675 24.1705C251.675 21.5511 253.033 20.0966 254.913 20.0966C256.317 20.0966 257.271 20.8466 257.646 22.0795ZM262.429 30H269.662V28.233H264.537V18.3636H262.429V30ZM271.991 30H279.605V28.233H274.099V25.0568H279.168V23.2898H274.099V20.1307H279.56V18.3636H271.991V30Z" fill="#0084FF"/>
<rect x="0.5" y="-3.5" width="342" height="55" rx="3.5" stroke="#0084FF"/>
<rect x="0.5" y="-3.5" width="342" height="55" rx="3.5" stroke="white" stroke-opacity="0.4"/>
</g>
<defs>
<clipPath id="clip0_34:5087">
<rect width="343" height="48" rx="4" fill="white"/>
</clipPath>
</defs>
</svg>
