<svg
    width="207"
    height="160"
    viewBox="0 0 207 160"
    fill="none"
    xmlns="http://www.w3.org/2000/svg"
>
    <g clip-path="url(#clip0_100:4271)">
        <ellipse
            cx="103.374"
            cy="95.1811"
            rx="95.0433"
            ry="94.8031"
            fill="#E5F3FF"
        />
        <path
            d="M78.2283 30.9985H162.192C169.949 30.9985 177.388 34.0741 182.872 39.5486C188.357 45.0231 191.438 52.4482 191.438 60.1903V112.852H78.2283V30.9985Z"
            fill="#0084FF"
        />
        <path
            opacity="0.15"
            d="M78.2283 30.9985H162.192C169.949 30.9985 177.388 34.0741 182.872 39.5486C188.357 45.0231 191.438 52.4482 191.438 60.1903V112.852H78.2283V30.9985Z"
            fill="#010D1F"
        />
        <path
            d="M78.2927 31.064H144.016C151.773 31.064 159.212 34.1395 164.697 39.6141C170.181 45.0886 173.263 52.5136 173.263 60.2558V97.7991C173.263 100.583 172.155 103.254 170.182 105.222C168.21 107.191 165.534 108.297 162.745 108.297H78.2927V31.064Z"
            fill="#0084FF"
        />
        <path
            d="M78.2927 30.9985C86.0493 30.9985 93.4882 34.0741 98.973 39.5486C104.458 45.0231 107.539 52.4482 107.539 60.1903V112.852H49.0477V60.1903C49.0477 52.4484 52.1288 45.0236 57.6133 39.5491C63.0977 34.0746 70.5363 30.9989 78.2927 30.9985V30.9985Z"
            fill="#0084FF"
        />
        <path
            d="M78.2927 30.9985C86.0493 30.9985 93.4882 34.0741 98.973 39.5486C104.458 45.0231 107.539 52.4482 107.539 60.1903V112.852H49.0477V60.1903C49.0477 52.4484 52.1288 45.0236 57.6133 39.5491C63.0977 34.0746 70.5363 30.9989 78.2927 30.9985V30.9985Z"
            fill="white"
            fill-opacity="0.4"
        />
        <path
            d="M51.6528 112.852V60.1903C51.6528 45.5283 63.6032 33.6001 78.2927 33.6001C92.9821 33.6001 104.934 45.5283 104.934 60.1903V112.852H51.6528Z"
            fill="#0084FF"
        />
        <path
            d="M51.6528 112.852V60.1903C51.6528 45.5283 63.6032 33.6001 78.2927 33.6001C92.9821 33.6001 104.934 45.5283 104.934 60.1903V112.852H51.6528Z"
            fill="black"
            fill-opacity="0.4"
        />
        <path
            d="M203.093 112.852H52.8897C50.7315 112.852 48.982 114.598 48.982 116.752V116.753C48.982 118.907 50.7315 120.654 52.8897 120.654H203.093C205.252 120.654 207.001 118.907 207.001 116.753V116.752C207.001 114.598 205.252 112.852 203.093 112.852Z"
            fill="#0084FF"
        />
        <path
            d="M111.772 112.852H3.90776C1.74956 112.852 0 114.598 0 116.752V116.753C0 118.907 1.74956 120.654 3.90776 120.654H111.772C113.931 120.654 115.68 118.907 115.68 116.753V116.752C115.68 114.598 113.931 112.852 111.772 112.852Z"
            fill="#0084FF"
        />
        <path
            d="M111.772 112.852H3.90776C1.74956 112.852 0 114.598 0 116.752V116.753C0 118.907 1.74956 120.654 3.90776 120.654H111.772C113.931 120.654 115.68 118.907 115.68 116.753V116.752C115.68 114.598 113.931 112.852 111.772 112.852Z"
            fill="white"
            fill-opacity="0.4"
        />
        <path
            d="M93.7621 73.2371L66.7032 88.2154L65.1292 89.0897H57.4084L55.8294 88.2154L28.778 73.2371C28.7778 72.3542 28.9723 71.482 29.3477 70.6825C29.7231 69.883 30.2702 69.1757 30.9503 68.611L57.4109 46.628C58.4941 45.7292 59.8583 45.2372 61.2669 45.2372C62.6755 45.2372 64.0397 45.7292 65.1229 46.628L91.5899 68.611C92.2699 69.1757 92.817 69.883 93.1925 70.6825C93.5679 71.482 93.7624 72.3542 93.7621 73.2371V73.2371Z"
            fill="#F59402"
        />
        <path
            d="M84.3979 55.4645H38.1751C35.5241 55.4645 33.375 57.6096 33.375 60.2557V95.4607C33.375 98.1068 35.5241 100.252 38.1751 100.252H84.3979C87.049 100.252 89.1981 98.1068 89.1981 95.4607V60.2557C89.1981 57.6096 87.049 55.4645 84.3979 55.4645Z"
            fill="white"
        />
        <path
            d="M93.7621 73.2372V106.852C93.7643 108.377 93.1843 109.846 92.1402 110.959C92.0355 111.07 91.9269 111.179 91.8158 111.281C90.7041 112.304 89.2465 112.872 87.7339 112.871H34.8C33.2873 112.872 31.8296 112.305 30.718 111.281C30.607 111.179 30.4984 111.07 30.3936 110.959C29.3519 109.845 28.7742 108.376 28.778 106.852V73.2372L55.8294 88.2154L57.4084 89.0898H65.1293L66.707 88.2154L93.7621 73.2372Z"
            fill="#FFDA00"
        />
        <g opacity="0.6">
            <path
                d="M55.8294 88.2155L57.4084 89.0898L30.718 111.281C30.607 111.177 30.4984 111.07 30.3936 110.959L55.8294 88.2155Z"
                fill="#F59402"
            />
            <path
                d="M55.8294 88.2155L57.4084 89.0898L30.718 111.281C30.607 111.177 30.4984 111.07 30.3936 110.959L55.8294 88.2155Z"
                fill="black"
                fill-opacity="0.4"
            />
        </g>
        <g opacity="0.6">
            <path
                d="M92.1402 110.959C92.0355 111.07 91.9269 111.177 91.8158 111.281L65.1293 89.0898L66.707 88.2155L92.1402 110.959Z"
                fill="#F59402"
            />
            <path
                d="M92.1402 110.959C92.0355 111.07 91.9269 111.177 91.8158 111.281L65.1293 89.0898L66.707 88.2155L92.1402 110.959Z"
                fill="black"
                fill-opacity="0.4"
            />
        </g>
        <path
            d="M91.8159 111.28C90.7041 112.304 89.2465 112.871 87.734 112.869H34.8C33.2875 112.871 31.8298 112.304 30.7181 111.28L57.4085 89.0897C58.4915 88.1884 59.857 87.6948 61.267 87.6948C62.6771 87.6948 64.0425 88.1884 65.1255 89.0897L91.8159 111.28Z"
            fill="#FFDA00"
        />
        <path
            d="M57.7075 65.9627H41.5262C41.1298 65.9627 40.7497 65.8056 40.4695 65.5259C40.1892 65.2461 40.0317 64.8667 40.0317 64.4711V64.4711C40.0321 64.0757 40.1897 63.6966 40.4699 63.4172C40.7501 63.1377 41.13 62.9807 41.5262 62.9807H57.7075C58.1029 62.9817 58.4817 63.1392 58.7609 63.4186C59.0401 63.698 59.1969 64.0765 59.1969 64.4711V64.4711C59.1972 64.8659 59.0406 65.2448 58.7614 65.5244C58.4821 65.8041 58.1031 65.9617 57.7075 65.9627V65.9627Z"
            fill="#010D1F"
            fill-opacity="0.4"
        />
        <path
            d="M61.3793 72.5468H41.5262C41.1301 72.5465 40.7503 72.3892 40.4703 72.1095C40.1903 71.8298 40.033 71.4506 40.033 71.0552V71.0552C40.0334 70.6601 40.1908 70.2814 40.4708 70.0021C40.7508 69.7229 41.1304 69.566 41.5262 69.566H61.3793C61.5753 69.5659 61.7694 69.6043 61.9506 69.679C62.1317 69.7538 62.2963 69.8635 62.435 70.0018C62.5737 70.14 62.6837 70.3043 62.7588 70.485C62.8338 70.6658 62.8724 70.8595 62.8724 71.0552V71.0552C62.8726 71.251 62.8341 71.4449 62.7591 71.6259C62.6842 71.8069 62.5742 71.9713 62.4355 72.1099C62.2969 72.2484 62.1322 72.3583 61.951 72.4333C61.7697 72.5082 61.5755 72.5468 61.3793 72.5468V72.5468Z"
            fill="#010D1F"
            fill-opacity="0.4"
        />
        <path
            d="M141.864 120.654H115.68V160.053H141.864V120.654Z"
            fill="#F59402"
        />
        <path
            d="M141.864 120.654H115.68V160.053H141.864V120.654Z"
            fill="white"
            fill-opacity="0.4"
        />
        <path
            d="M141.866 120.654H135.613V160.053H141.866V120.654Z"
            fill="#F59402"
        />
        <path
            opacity="0.15"
            d="M141.866 135.938L115.68 129.768V120.654H141.866V135.938Z"
            fill="#010D1F"
        />
        <path
            opacity="0.15"
            d="M153.861 86.7261C159.839 80.7596 159.839 71.0861 153.861 65.1196C147.883 59.1531 138.192 59.1531 132.214 65.1196C126.237 71.0861 126.237 80.7596 132.214 86.7261C138.192 92.6926 147.883 92.6926 153.861 86.7261Z"
            fill="#010D1F"
        />
        <path
            d="M141.8 89.9666C150.254 89.9666 157.107 83.1264 157.107 74.6885C157.107 66.2506 150.254 59.4104 141.8 59.4104C133.346 59.4104 126.493 66.2506 126.493 74.6885C126.493 83.1264 133.346 89.9666 141.8 89.9666Z"
            fill="#E0282F"
        />
        <path
            d="M138.979 71.4609C138.702 71.2755 138.453 71.05 138.242 70.7919C137.995 70.5022 137.873 70.1036 137.873 69.5963C137.873 68.6515 138.452 67.9774 139.61 67.5743L142.689 66.4719H143.582C144.249 66.4719 144.784 66.6731 145.188 67.0754C145.592 67.4777 145.793 68.0119 145.792 68.6779V82.5954C145.599 82.6483 145.346 82.7 145.035 82.7529C144.687 82.8083 144.335 82.8348 143.982 82.8322C143.194 82.8322 142.624 82.7008 142.272 82.4379C141.92 82.175 141.745 81.6761 141.745 80.9412V70.4845L138.979 71.4609Z"
            fill="white"
        />
    </g>
    <defs>
        <clipPath id="clip0_100:4271">
            <rect width="207" height="160" fill="white" />
        </clipPath>
    </defs>
</svg>
