<?xml version="1.0" encoding="UTF-8"?>
<svg
    width="54px"
    height="56px"
    viewBox="0 0 54 56"
    version="1.1"
    xmlns="http://www.w3.org/2000/svg"
    xmlns:xlink="http://www.w3.org/1999/xlink"
>
    <title>logo-small-hover</title>
    <g
        id="Page-1"
        stroke="none"
        stroke-width="1"
        fill="none"
        fill-rule="evenodd"
    >
        <g
            id="logo-small-hover"
            transform="translate(-0.000000, -0.000000)"
            fill-rule="nonzero"
        >
            <g id="Group-2">
                <rect
                    id="Rectangle"
                    fill-opacity="0"
                    fill="#000000"
                    x="0"
                    y="0"
                    width="54"
                    height="56"
                ></rect>
                <path
                    d="M14.55,49.78 L14.55,7.55 L31.47,7.55 C34.71,7.55 41.81,10 41.81,17.38 L41.81,24.3 C41.81,26.53 40.24,34.82 32.58,34.82 L18.42,35 L18.42,49.78 L14.55,49.78 Z M18.42,31.12 L32.55,31 C37.63,31 37.93,24.41 37.93,24.34 L37.93,17.38 C37.93,12.48 32.75,11.38 31.47,11.38 L18.47,11.38 L18.42,31.12 Z"
                    id="Shape"
                    fill="gold"
                ></path>
                <path
                    d="M31.47,8.1 C34.53,8.1 41.26,10.44 41.26,17.38 L41.26,24.3 C41.26,26.41 39.78,34.3 32.58,34.3 L17.87,34.47 L17.87,49.23 L15.1,49.23 L15.1,8.1 L31.47,8.1 M17.87,31.67 L32.56,31.5 C38.13,31.5 38.48,24.38 38.48,24.3 L38.48,17.38 C38.48,12.03 32.86,10.87 31.48,10.87 L17.87,10.87 L17.87,31.67 M31.47,7 L14,7 L14,50.33 L19,50.33 L19,35.53 L32.62,35.37 C40.73,35.37 42.39,26.64 42.39,24.3 L42.39,17.38 C42.36,9.61 34.88,7 31.47,7 Z M19,12 L31.5,12 C31.56,12 37.41,12.4 37.41,17.41 L37.41,24.3 C37.41,24.3 37.09,30.4 32.59,30.4 L19,30.56 L19,12 Z"
                    id="Shape"
                    fill="gold"
                ></path>
            </g>
        </g>
    </g>
</svg>
