<svg xmlns="http://www.w3.org/2000/svg" viewBox="0 0 161.36 55.38">
    <g id="Layer_2" data-name="Layer 2">
        <g id="Isolation_Mode" data-name="Isolation Mode">
            <path
                fill="currentColor"
                d="M.55,42.78V.55H17.47C20.71.55,27.81,3,27.81,10.38V17.3c0,2.23-1.57,10.52-9.23,10.52L4.42,28V42.78ZM4.42,24.12,18.55,24c5.08,0,5.38-6.59,5.38-6.66V10.38c0-4.9-5.18-6-6.46-6h-13Z"
            />
            <path
                fill="currentColor"
                d="M17.47,1.1c3.06,0,9.79,2.34,9.79,9.28V17.3c0,2.11-1.48,10-8.68,10l-14.71.17V42.23H1.1V1.1H17.47M3.87,24.67l14.69-.17c5.57,0,5.92-7.12,5.92-7.2V10.38c0-5.35-5.62-6.51-7-6.51H3.87v20.8M17.47,0H0V43.33H5V28.53l13.62-.16c8.11,0,9.77-8.73,9.77-11.07V10.38C28.36,2.61,20.88,0,17.47,0ZM5,5h12.5c.06,0,5.91.4,5.91,5.41V17.3s-.32,6.1-4.82,6.1L5,23.56V5Z"
            />
            <path
                fill="currentColor"
                d="M53.09,43.26a1.69,1.69,0,0,1-1.69-1.69V39.46c-1.75,2.21-4.62,3.76-6.56,3.76l-1.17,0-1.71,0a18.28,18.28,0,0,1-6-.77c-2-.75-5.25-3.11-4.53-10.42.67-6.95,7.49-7,7.78-7H51.4v-4.5c0-4.18-4.78-4.44-4.83-4.44l-.63,0c-.49,0-1.18-.06-2.09-.06s-1.63,0-2.47.09a14.12,14.12,0,0,0-5.23,1.7.93.93,0,0,1-.46.12,1,1,0,0,1-.83-.46L33.93,16a1,1,0,0,1,.12-1.22c1.22-1.25,4.78-2.6,9.74-2.6h1.09a24,24,0,0,1,2.75.14c5,.66,7.77,4.44,7.72,10.64V43.26ZM39.34,28.64c-.52,0-4,.67-4.06,3.59a21,21,0,0,0,0,3.34l0,.15s.81,3.58,3.44,3.66c1.61,0,2.93.08,4,.08h0a18.19,18.19,0,0,0,2-.08,9.12,9.12,0,0,0,6.83-5.76v-5Z"
            />
            <path
                fill="currentColor"
                d="M43.79,12.75h.44a27.38,27.38,0,0,1,3.33.13c7.56,1,7.24,9.12,7.24,10.23V42.71H53.09A1.14,1.14,0,0,1,52,41.57v-4c-1.31,3-5,5.15-7.12,5.15-.75,0-1.76,0-2.87,0A17.73,17.73,0,0,1,36.17,42c-2.57-1-4.79-3.7-4.19-9.86s6.36-6.53,7.24-6.53H52V20.53c0-4.45-4.78-5-5.38-5-.4,0-1.31-.09-2.72-.09-.71,0-1.54,0-2.51.09a14.88,14.88,0,0,0-5.45,1.76.36.36,0,0,1-.2.06.43.43,0,0,1-.37-.2l-.93-1.45a.44.44,0,0,1,0-.54c1-1.06,4.34-2.43,9.35-2.43M42.68,40a20.21,20.21,0,0,0,2-.08A9.69,9.69,0,0,0,52,33.71V28.09H39.34c-.69,0-4.49.78-4.61,4.12a15.79,15.79,0,0,0,0,3.56c0,.33,1,4.07,4,4.16,1.61,0,2.94.08,4,.08m1.11-28.36h0c-5.14,0-8.8,1.39-10.13,2.77a1.51,1.51,0,0,0-.19,1.89l.93,1.45a1.52,1.52,0,0,0,1.29.71,1.59,1.59,0,0,0,.73-.19,13.5,13.5,0,0,1,5-1.63c.83-.06,1.65-.09,2.43-.09s1.57,0,2.06.06l.66,0s4.28.18,4.28,3.88v4H39.22A8.09,8.09,0,0,0,30.89,32c-.75,7.68,2.74,10.19,4.89,11a19,19,0,0,0,6.18.8l1.73,0,1.14,0a9.75,9.75,0,0,0,6-2.88v.68a2.24,2.24,0,0,0,2.24,2.24H55.9V23C56,16.57,53,12.49,47.71,11.8a23.58,23.58,0,0,0-2.83-.14H43.79ZM42.68,38.91c-1.11,0-2.56,0-4-.08-2.19-.06-2.91-3.17-2.91-3.2s0-.09,0-.15a20.84,20.84,0,0,1,0-3.23c.09-2.64,3.48-3.06,3.51-3.06H50.93v4.32a8.73,8.73,0,0,1-6.35,5.33c-.4,0-1,.07-1.9.07Z"
            />
            <path
                fill="currentColor"
                d="M90.53,43.24a.89.89,0,0,1-.89-.89V1.58a1,1,0,0,1,1-1h22.22a1,1,0,0,1,1,1V3.41a1,1,0,0,1-1,1H93.51v16h14.77a1,1,0,0,1,1,1v1.78a1,1,0,0,1-1,1H93.51V39.37h19.41a1,1,0,0,1,1,1v1.92a1,1,0,0,1-1,1Z"
            />
            <path
                fill="currentColor"
                d="M112.89,1.1a.47.47,0,0,1,.46.46V3.41a.47.47,0,0,1-.46.46H93V21h15.32a.5.5,0,0,1,.49.5v1.78a.49.49,0,0,1-.49.49H93V39.92h20a.43.43,0,0,1,.43.43v1.92a.42.42,0,0,1-.43.42H90.53a.34.34,0,0,1-.34-.34V1.58a.47.47,0,0,1,.48-.48h22.22m0-1.1H90.67a1.58,1.58,0,0,0-1.58,1.58V42.35a1.45,1.45,0,0,0,1.44,1.44h22.39a1.53,1.53,0,0,0,1.53-1.52V40.35a1.54,1.54,0,0,0-1.53-1.53H94.06v-14h14.22a1.59,1.59,0,0,0,1.59-1.59V21.47a1.6,1.6,0,0,0-1.59-1.6H94.06V5h18.83a1.56,1.56,0,0,0,1.56-1.56V1.56A1.56,1.56,0,0,0,112.89,0Z"
            />
            <path
                fill="currentColor"
                d="M158.06,43.29a1.16,1.16,0,0,1-1.16-1.15v-20a6.23,6.23,0,0,0-1.44-4.51A6.59,6.59,0,0,0,150.64,16c-6.45,0-8.42,3.54-8.67,4.05-.08,1.16,0,14,0,22a1.14,1.14,0,0,1-1.15,1.16H139a1.16,1.16,0,0,1-1.15-1.15V21.22c0-3.48-2-5.25-6-5.25h-.58c-6.22.25-8.06,3.6-8.34,4.21l0,22a1.12,1.12,0,0,1-1.12,1.12h-1.58A1.12,1.12,0,0,1,119,42.17V13.38a.92.92,0,0,1,.92-.92h1.94a.92.92,0,0,1,.92.92v2.56a9.27,9.27,0,0,1,6.36-3.48c1,0,2-.09,3-.09,2,0,4.29.17,6,1.44A7.61,7.61,0,0,1,141,17.37a10.36,10.36,0,0,1,8.18-5.06c.6-.05,1.18-.07,1.75-.07,5.81,0,9.07,2.37,9.67,7a45.34,45.34,0,0,1,.24,5.57V42.14a1.15,1.15,0,0,1-1.15,1.15Z"
            />
            <path
                fill="currentColor"
                d="M150.9,12.79c5,0,8.5,1.7,9.12,6.56a44.52,44.52,0,0,1,.24,5.5V42.14a.6.6,0,0,1-.6.6h-1.6a.6.6,0,0,1-.61-.6V22.29c0-1.25.33-6.8-6.81-6.8s-9.1,4.19-9.2,4.44,0,18.62,0,22.21a.6.6,0,0,1-.6.6H139a.6.6,0,0,1-.6-.6V21.22c0-1.18,0-5.8-6.58-5.8h-.6c-7.17.29-8.87,4.64-8.87,4.64l0,22.1a.56.56,0,0,1-.56.57h-1.59a.56.56,0,0,1-.56-.57V13.38a.37.37,0,0,1,.36-.37h2a.38.38,0,0,1,.37.37v4.2s2.68-4.38,6.93-4.57c1.06,0,2.06-.09,3-.09,2.3,0,4.23.26,5.7,1.34a6.17,6.17,0,0,1,2.78,4.13H141a10,10,0,0,1,8.15-5.54q.87-.06,1.71-.06m0-1.1c-.57,0-1.17,0-1.79.07a10.79,10.79,0,0,0-8,4.47,8.67,8.67,0,0,0-2.57-2.86c-1.86-1.37-4.25-1.55-6.35-1.55-1,0-2.08,0-3,.09a9.15,9.15,0,0,0-5.78,2.67v-1.2a1.47,1.47,0,0,0-1.47-1.47h-2a1.46,1.46,0,0,0-1.46,1.47V42.17a1.66,1.66,0,0,0,1.66,1.67h1.59a1.67,1.67,0,0,0,1.66-1.66l0-21.86c.37-.72,2.2-3.56,7.82-3.79h.55c4.91,0,5.48,2.68,5.48,4.7V42.14a1.7,1.7,0,0,0,1.7,1.7h1.88a1.69,1.69,0,0,0,1.7-1.71c0-7.76-.09-20.21,0-21.9a6.06,6.06,0,0,1,1.62-1.79,10.55,10.55,0,0,1,6.51-1.85A6,6,0,0,1,155.08,18a5.72,5.72,0,0,1,1.28,4.11v20a1.71,1.71,0,0,0,1.71,1.7h1.6a1.7,1.7,0,0,0,1.7-1.7V24.85a45.65,45.65,0,0,0-.25-5.66c-.64-5-4.08-7.5-10.21-7.5Z"
            />
            <path
                fill="currentColor"
                d="M66.54,54.83a.94.94,0,0,1-.87-1.27l4.77-12.14L59.28,13.88a1.1,1.1,0,0,1,.11-1,1.08,1.08,0,0,1,.9-.48h2.56L72.5,36.17l9.34-23.78h2.57a1.09,1.09,0,0,1,1,1.48l-16.08,41Z"
            />
            <path
                fill="currentColor"
                d="M84.41,12.94a.54.54,0,0,1,.5.73L69,54.28H66.54a.38.38,0,0,1-.35-.52L71,41.41,59.79,13.68a.54.54,0,0,1,.5-.74h2.19l10,24.71,9.7-24.71h2.2m0-1.1h-3l-.27.7-8.7,22.14-9-22.15-.28-.69H60.29a1.64,1.64,0,0,0-1.36.72,1.66,1.66,0,0,0-.16,1.53L69.85,41.42,65.16,53.36a1.49,1.49,0,0,0,1.38,2h3.17l.28-.7L85.93,14.07a1.63,1.63,0,0,0-1.52-2.23Z"
            />
        </g>
    </g>
</svg>
