<svg
    width="80"
    height="70"
    viewBox="0 0 80 70"
    fill="none"
    xmlns="http://www.w3.org/2000/svg"
>
    <g clip-path="url(#clip0_1274_17004)">
        <path
            d="M36.4275 7.5861C35.7874 7.59964 35.1482 7.64187 34.5118 7.71269C34.3252 7.73239 34.1366 7.7596 33.9731 7.77918C33.5202 7.84246 33.0706 7.90957 32.6231 8.01043C31.8389 8.17023 31.0644 8.37386 30.303 8.62037C29.4188 8.97536 28.5208 9.26523 27.6569 9.67778C27.0691 9.95952 26.4923 10.2652 25.9327 10.5993C23.5135 12.0336 21.402 13.9309 19.7194 16.1822C18.0368 18.4335 16.8164 20.9944 16.1282 23.7179L14.8477 28.7685C13.5733 33.8 10.8846 38.3631 7.09856 41.92L2.84581 45.9091C2.54979 46.1814 2.32051 46.5181 2.17569 46.893C2.03087 47.268 1.97441 47.6711 2.01067 48.0713C2.01093 48.0773 2.01164 48.0831 2.01236 48.0889C2.01325 48.0961 2.01414 48.1033 2.01414 48.1107C2.0182 48.1505 2.02341 48.191 2.02978 48.2309C2.03325 48.2581 2.03673 48.2812 2.04194 48.309C2.04353 48.3174 2.045 48.3258 2.04647 48.3341C2.04983 48.3532 2.05314 48.372 2.05758 48.3905C2.07032 48.4558 2.08712 48.52 2.10449 48.5824C2.10814 48.5936 2.11159 48.6054 2.11509 48.6174C2.11992 48.6339 2.12485 48.6507 2.13055 48.6668C2.13242 48.6745 2.13474 48.682 2.1375 48.6894C2.14793 48.7212 2.15893 48.7524 2.17109 48.7836C2.18615 48.8252 2.20121 48.8617 2.22148 48.9096C2.24175 48.9576 2.26434 49.005 2.2875 49.0519C2.29275 49.0639 2.29895 49.0755 2.30604 49.0866C2.3119 49.1002 2.31847 49.1135 2.32573 49.1264C2.33268 49.1403 2.34078 49.1536 2.34947 49.1675C2.38538 49.2307 2.42399 49.2926 2.4653 49.3531C2.46691 49.3563 2.46875 49.3594 2.47081 49.3624C2.47233 49.3646 2.47397 49.3667 2.47573 49.3687C2.49079 49.3907 2.50642 49.4132 2.52264 49.4346C2.56724 49.497 2.61473 49.5548 2.66511 49.6127C2.68944 49.6404 2.71376 49.667 2.73924 49.693C2.78674 49.7427 2.83654 49.7913 2.88867 49.8376L2.89917 49.8469C2.92106 49.8663 2.9428 49.8856 2.96628 49.904L3.04272 49.9619C3.0601 49.9763 3.07979 49.9913 3.10064 50.0058L3.10248 50.0074L3.10585 50.0087L3.13365 50.0278C3.14753 50.0384 3.16141 50.0475 3.17529 50.0567C3.17878 50.059 3.18228 50.0613 3.18577 50.0636C3.21531 50.0838 3.24601 50.1029 3.27728 50.1214L3.32767 50.1515C3.37632 50.1798 3.4267 50.2064 3.47825 50.2301C3.4991 50.2405 3.51995 50.2509 3.54138 50.2602C3.56196 50.2708 3.58325 50.2801 3.60508 50.2879C3.62077 50.296 3.63703 50.303 3.65373 50.3087L3.74234 50.3417C3.75181 50.3457 3.76147 50.3491 3.7713 50.3521C3.79275 50.3598 3.81355 50.3663 3.83565 50.3731C3.84997 50.3775 3.86483 50.3821 3.88076 50.3874C3.9175 50.3994 3.95519 50.4096 3.99383 50.42L4.00586 50.4232L26.4764 56.1088L26 58.5813C25.9998 58.5843 25.9997 58.5873 25.9998 58.5903L26 58.5939C25.9783 58.7655 25.962 58.937 25.9508 59.1086C25.7759 61.6149 26.6639 64.0911 28.3016 66.0264C29.9394 67.9617 32.2744 69.2083 34.8246 69.5089C34.9749 69.5266 35.1258 69.5415 35.2756 69.5524C37.8107 69.7432 40.3253 68.9852 42.3106 67.4316C44.2958 65.878 45.6345 63.542 46 61.0813C46.0016 61.071 46.0031 61.0607 46.0047 61.0503L46.3364 61.1344L46.4059 61.1517L55.6782 63.4972C57.7261 64.0141 59.5354 62.0594 58.8537 60.0585L57.0021 54.5904C55.3556 49.7282 55.1201 44.5004 56.3228 39.5103C56.3483 39.4016 56.3749 39.2929 56.4027 39.1854L57.6624 34.2255C58.8204 29.6753 58.4458 24.8711 56.5963 20.5547C54.7468 16.2382 51.5253 12.6495 47.4293 10.3426C47.4254 10.3405 47.4216 10.3383 47.4178 10.3362L47.8254 8.90403C48.1655 7.70996 48.0054 6.44671 47.375 5.34981C46.7445 4.25292 45.6868 3.39725 44.399 2.94236C44.1707 2.86115 43.9367 2.79294 43.6986 2.73815C42.972 2.57362 42.2161 2.5381 41.474 2.63361C40.7319 2.72912 40.0184 2.9538 39.3741 3.29477C38.7299 3.63574 38.1676 4.08631 37.7196 4.62069C37.2715 5.15506 36.9464 5.76275 36.7629 6.40894L36.4275 7.5861Z"
            fill="#F7931E"
        />
        <path
            fill-rule="evenodd"
            clip-rule="evenodd"
            d="M44.1868 10.3604C50.3894 15.4673 53.4555 23.9098 51.359 32.2513L50.1082 37.2246C48.8262 42.3242 49.0332 47.6888 50.7043 52.6726C50.9189 53.3026 50.9473 53.982 50.7859 54.6279C50.3703 56.2824 48.7515 57.5184 46.881 57.2042L3.97314 49.9915C3.65171 49.9107 3.34813 49.7699 3.0781 49.5764L3.07567 49.5651C1.80919 48.6425 1.57528 46.6953 2.83684 45.5175L7.04564 41.5681C10.7943 38.0488 13.4575 33.5329 14.7216 28.5525L15.9894 23.5528C17.2431 18.6164 20.2363 14.2964 24.4203 11.3845C27.4574 9.27084 30.9743 8.00188 34.6141 7.66935C35.5318 7.48753 36.4628 7.36436 37.4017 7.30166L37.5051 6.85651C37.671 6.13461 37.9653 5.45568 38.3713 4.85865C38.7773 4.26163 39.2869 3.75825 39.8709 3.37741C40.4549 2.99658 41.1019 2.74576 41.7746 2.63936C42.4474 2.53296 43.1327 2.57307 43.7912 2.75739L43.8286 2.76795C43.8442 2.76948 43.8598 2.77114 43.8754 2.77292C44.0264 2.82096 44.174 2.87659 44.3175 2.93854C44.9313 3.6518 45.3708 4.5225 45.5954 5.47026C45.8199 6.41803 45.8224 7.41233 45.6025 8.3614V8.36014C45.4404 9.05836 45.0657 9.67555 44.5399 10.1103C44.4274 10.2033 44.3093 10.2868 44.1868 10.3604ZM34.7649 69.5355C34.9142 69.5542 35.0641 69.5699 35.2128 69.5813C37.5445 68.3915 37.6409 64.8325 35.2291 63.5349L26 58.5813C25.625 61.4563 26.5296 63.7773 28.1563 65.8157C29.7829 67.854 32.2319 69.2189 34.7649 69.5355Z"
            fill="#F5C206"
        />
        <path
            d="M63.5 52.5813C72.6127 52.5813 80 45.194 80 36.0813C80 26.9686 72.6127 19.5813 63.5 19.5813C54.3873 19.5813 47 26.9686 47 36.0813C47 45.194 54.3873 52.5813 63.5 52.5813Z"
            fill="#00B856"
        />
        <path
            opacity="0.1"
            fill-rule="evenodd"
            clip-rule="evenodd"
            d="M63.1774 45.7367C63.6698 46.2244 64.3378 46.4984 65.0343 46.4984C65.3796 46.4989 65.7216 46.4319 66.0407 46.3013C66.3598 46.1707 66.6498 45.979 66.8941 45.7373C67.1383 45.4956 67.332 45.2085 67.4641 44.8926C67.5962 44.5766 67.6641 44.238 67.6638 43.896V39.2114H72.3925C73.0894 39.2114 73.7578 38.9372 74.2507 38.4492C74.7435 37.9611 75.0203 37.2992 75.0203 36.609C75.0203 35.9188 74.7435 35.2569 74.2507 34.7688C73.7578 34.2808 73.0894 34.0066 72.3925 34.0066H67.6638V29.3224C67.6638 28.6322 67.387 27.9702 66.8942 27.4822C66.4014 26.9942 65.733 26.72 65.036 26.72C64.3391 26.72 63.6707 26.9942 63.1779 27.4822C62.6851 27.9702 62.4082 28.6322 62.4082 29.3224V34.0066H57.6766C56.9797 34.0066 56.3113 34.2808 55.8185 34.7688C55.3257 35.2569 55.0488 35.9188 55.0488 36.609C55.0488 37.2992 55.3257 37.9611 55.8185 38.4492C56.3113 38.9372 56.9797 39.2114 57.6766 39.2114H62.4082V43.8977C62.4082 44.5875 62.6849 45.249 63.1774 45.7367Z"
            fill="black"
        />
        <path
            d="M63.4983 45.5813C62.8357 45.5813 62.2003 45.3181 61.7317 44.8496C61.2632 44.381 61 43.7456 61 43.083V29.0813C61 28.4182 61.2634 27.7824 61.7322 27.3135C62.2011 26.8447 62.837 26.5813 63.5 26.5813C64.163 26.5813 64.7989 26.8447 65.2678 27.3135C65.7366 27.7824 66 28.4182 66 29.0813V43.0813C66.0002 43.4098 65.9356 43.7351 65.81 44.0387C65.6843 44.3422 65.5 44.6179 65.2677 44.8501C65.0353 45.0824 64.7594 45.2665 64.4558 45.3919C64.1522 45.5174 63.8268 45.5817 63.4983 45.5813Z"
            fill="white"
        />
        <path
            d="M70.5 38.5813H56.5C55.8369 38.5813 55.2011 38.3179 54.7322 37.8491C54.2634 37.3802 54 36.7443 54 36.0813C54 35.4183 54.2634 34.7824 54.7322 34.3135C55.2011 33.8447 55.8369 33.5813 56.5 33.5813H70.5C70.8283 33.5813 71.1534 33.646 71.4567 33.7716C71.76 33.8972 72.0356 34.0814 72.2678 34.3135C72.4999 34.5457 72.6841 34.8213 72.8097 35.1246C72.9353 35.4279 73 35.753 73 36.0813C73 36.4096 72.9353 36.7347 72.8097 37.038C72.6841 37.3413 72.4999 37.6169 72.2678 37.8491C72.0356 38.0812 71.76 38.2654 71.4567 38.391C71.1534 38.5166 70.8283 38.5813 70.5 38.5813Z"
            fill="white"
        />
    </g>
    <defs>
        <clipPath id="clip0_1274_17004">
            <rect
                width="80"
                height="68.8372"
                fill="white"
                transform="translate(0 0.581299)"
            />
        </clipPath>
    </defs>
</svg>
