<svg
    width="207"
    height="190"
    viewBox="0 0 207 190"
    fill="none"
    xmlns="http://www.w3.org/2000/svg"
>
    <ellipse
        cx="103.374"
        cy="95.1811"
        rx="95.0433"
        ry="94.8031"
        fill="#E5F3FF"
    />
    <path
        d="M136.814 37.1291C132.554 32.8696 127.152 29.9357 121.26 28.6823C115.367 27.4288 109.238 27.9095 103.614 30.0662C97.9892 32.2229 93.11 35.9633 89.5664 40.8347C86.0229 45.7062 83.9668 51.5 83.6469 57.5155C83.6184 58.0639 83.6041 58.6152 83.6041 59.1693V101.336H145.948V59.1693C145.958 55.0742 145.156 51.0176 143.588 47.2345C142.02 43.4513 139.718 40.0166 136.814 37.1291V37.1291ZM138.486 93.882H91.0604V59.1693C91.0604 58.6131 91.08 58.0618 91.1192 57.5155C91.9696 45.2132 102.255 35.457 114.774 35.457C127.849 35.457 138.486 46.0937 138.486 59.1693V93.882Z"
        fill="white"
    />
    <path
        d="M136.814 37.1291C132.554 32.8696 127.152 29.9357 121.26 28.6823C115.367 27.4288 109.238 27.9095 103.614 30.0662C97.9892 32.2229 93.11 35.9633 89.5664 40.8347C86.0229 45.7062 83.9668 51.5 83.6469 57.5155C83.6184 58.0639 83.6041 58.6152 83.6041 59.1693V101.336H145.948V59.1693C145.958 55.0742 145.156 51.0176 143.588 47.2345C142.02 43.4513 139.718 40.0166 136.814 37.1291V37.1291ZM138.486 93.882H91.0604V59.1693C91.0604 58.6131 91.08 58.0618 91.1192 57.5155C91.9696 45.2132 102.255 35.457 114.774 35.457C127.849 35.457 138.486 46.0937 138.486 59.1693V93.882Z"
        fill="#010D1F"
        fill-opacity="0.24"
    />
    <path
        d="M157.965 105.194C157.965 105.344 157.965 105.494 157.965 105.644C157.723 129.326 138.449 148.449 114.711 148.449C90.8214 148.449 71.4545 129.087 71.4545 105.194C71.4545 103.936 71.5076 102.691 71.6139 101.46C71.6278 101.296 71.6427 101.133 71.6588 100.971C71.6748 100.81 71.692 100.65 71.7091 100.483C71.724 100.34 71.7401 100.197 71.7572 100.056C71.7636 99.9967 71.7711 99.9378 71.7786 99.8811L71.8235 99.5217C71.8228 99.5164 71.8228 99.511 71.8235 99.5056C71.8439 99.3473 71.8653 99.1847 71.8877 99.0317C71.9145 98.852 71.9401 98.6723 71.968 98.4969C72.0321 98.0782 72.1035 97.6621 72.1819 97.2484C72.2044 97.1276 72.2268 97.0067 72.2504 96.8869C72.2739 96.7671 72.2942 96.6601 72.3178 96.5478C72.3477 96.3987 72.3787 96.2511 72.4108 96.1049C72.4386 95.9712 72.4686 95.8374 72.4986 95.7037C72.5339 95.5475 72.5702 95.3914 72.6055 95.2352C72.6408 95.079 72.6804 94.9249 72.7179 94.7687C72.8277 94.3194 72.9457 93.8737 73.0719 93.4315C73.0794 93.4069 73.0848 93.3802 73.0923 93.3556C73.1768 93.0571 73.2645 92.7619 73.3565 92.4677C73.4025 92.3169 73.4496 92.1639 73.4977 92.013C73.5458 91.8622 73.5951 91.7124 73.6453 91.5616C73.6956 91.4108 73.7459 91.2621 73.7972 91.1134C73.8486 90.9647 73.9042 90.8138 73.9545 90.6651C74.1684 90.0704 74.391 89.4799 74.6284 88.8979C74.7472 88.6059 74.8681 88.316 74.9932 88.0282C75.0564 87.8848 75.1184 87.7415 75.1837 87.6003C75.2329 87.4869 75.2842 87.3735 75.3366 87.2601C75.4254 87.0643 75.5163 86.8707 75.6073 86.6771C75.664 86.5583 75.7207 86.4407 75.7784 86.3219C75.8469 86.1807 75.9154 86.0406 75.9849 85.9015L76.1989 85.4822C76.3401 85.204 76.4866 84.928 76.6353 84.6542C76.7081 84.5172 76.7851 84.3792 76.86 84.2434C76.9348 84.1075 77.0119 83.9706 77.0889 83.8358C77.1552 83.7181 77.2226 83.6015 77.2911 83.4849C77.3125 83.4475 77.3339 83.41 77.3563 83.3779C77.4109 83.2838 77.4633 83.1886 77.5232 83.0955C77.6302 82.9115 77.7372 82.7297 77.8548 82.5478C77.918 82.4408 77.9832 82.3403 78.0485 82.2376C78.1308 82.106 78.2143 81.9755 78.2977 81.8439C78.466 81.5815 78.6368 81.3219 78.8101 81.0651C78.9888 80.7998 79.1696 80.5388 79.3536 80.2778C79.4392 80.158 79.5237 80.0382 79.6092 79.9194C79.6745 79.8285 79.7398 79.7386 79.8072 79.6488C79.8745 79.5589 79.9141 79.4958 79.9751 79.4198C80.4237 78.8186 80.8873 78.2292 81.3658 77.6515C81.4653 77.5306 81.5648 77.4108 81.6675 77.2921C81.7702 77.1733 81.8814 77.0407 81.9884 76.9166C81.9991 76.9016 82.0119 76.8877 82.0237 76.8727C82.1307 76.7508 82.2376 76.6278 82.3446 76.5069C82.4516 76.386 82.5586 76.2715 82.6656 76.1539C82.6827 76.1346 82.7009 76.1153 82.718 76.095L83.0314 75.7548L83.0539 75.7313C83.1694 75.6072 83.286 75.4838 83.4037 75.3612L83.6102 75.1472C83.7813 74.9707 83.9535 74.7942 84.1279 74.6198C84.3718 74.3745 84.6193 74.1327 84.8703 73.8945C84.9944 73.7768 85.1196 73.6581 85.2458 73.5404L85.2533 73.5329L85.6149 73.2013C85.6263 73.1898 85.6384 73.1791 85.6512 73.1692C85.7721 73.0623 85.8941 72.9553 86.016 72.8408C86.138 72.7263 86.2696 72.6162 86.3979 72.506C86.4027 72.5014 86.4077 72.4971 86.4129 72.4931C86.6729 72.2685 86.9339 72.046 87.1992 71.8277C87.6014 71.4947 88.0104 71.1691 88.4262 70.8511C88.561 70.7441 88.6969 70.6457 88.8316 70.5451L89.2499 70.2263C89.389 70.1247 89.5302 70.0231 89.6714 69.9236C89.8126 69.8241 89.9538 69.7225 90.0993 69.624C90.2448 69.5256 90.3646 69.4411 90.4994 69.3502C90.687 69.2232 90.8752 69.0981 91.0642 68.9747C91.0835 68.9619 91.1017 68.949 91.122 68.9373C91.214 68.8774 91.306 68.8174 91.3991 68.7586C91.5403 68.6677 91.6826 68.5767 91.827 68.488L91.8847 68.4516L92.2699 68.2141L92.3009 68.1959C92.4435 68.1082 92.5861 68.0223 92.7288 67.9381C92.8714 67.8539 93.0162 67.7694 93.1631 67.6846L93.1984 67.6632C93.3054 67.6033 93.4124 67.5434 93.5129 67.4845C94.1598 67.1194 94.8177 66.771 95.4866 66.4394L95.9498 66.2126L95.9702 66.203C96.1242 66.1291 96.2772 66.0553 96.4323 65.989C96.5874 65.9227 96.7532 65.8414 96.9094 65.7697L97.3833 65.5557H97.3951L97.8733 65.3493L98.2712 65.1835L98.8499 64.9503L99.342 64.7609C99.5068 64.6989 99.6726 64.6358 99.8384 64.5758C100.004 64.5159 100.17 64.455 100.336 64.3961C100.502 64.3373 100.643 64.2892 100.796 64.2378C100.912 64.1982 101.028 64.1586 101.146 64.1212C101.263 64.0838 101.366 64.0474 101.477 64.0142L101.86 63.8933C102.025 63.842 102.191 63.7928 102.357 63.7425C102.667 63.6505 102.98 63.5617 103.293 63.4761L103.5 63.4194L103.9 63.3125C104.046 63.275 104.192 63.2376 104.339 63.2055C104.438 63.1787 104.538 63.1552 104.639 63.1317L104.983 63.0514C105.144 63.014 105.304 62.9776 105.466 62.9445C105.629 62.9113 105.816 62.8685 105.994 62.8375C106.171 62.8065 106.346 62.7669 106.522 62.7305C106.875 62.662 107.23 62.5979 107.592 62.5401C107.771 62.5101 107.948 62.4823 108.127 62.4545C108.347 62.4203 108.57 62.3893 108.792 62.3593C108.929 62.339 109.067 62.3219 109.206 62.3037C109.371 62.2823 109.534 62.263 109.699 62.2438L109.835 62.2277L110.163 62.1935C110.243 62.1839 110.322 62.1753 110.403 62.1678L110.638 62.1454L110.92 62.1208C110.94 62.1208 110.962 62.1154 110.983 62.1143H111.028C112.24 62.0102 113.47 61.9581 114.716 61.9581C120.553 61.9532 126.331 63.1321 131.7 65.4237C137.069 67.7153 141.918 71.0719 145.953 75.2906C147.748 77.164 149.373 79.1943 150.807 81.3572C155.487 88.4249 157.977 96.7168 157.965 105.194Z"
        fill="#0084FF"
    />
    <path
        d="M157.965 105.194C157.965 105.344 157.965 105.494 157.965 105.644C157.723 129.326 138.449 148.449 114.711 148.449C90.8214 148.449 71.4545 129.087 71.4545 105.194C71.4545 103.936 71.5076 102.691 71.6139 101.46C71.6278 101.296 71.6427 101.133 71.6588 100.971C71.6748 100.81 71.692 100.65 71.7091 100.483C71.724 100.34 71.7401 100.197 71.7572 100.056C71.7636 99.9967 71.7711 99.9378 71.7786 99.8811L71.8235 99.5217C71.8228 99.5164 71.8228 99.511 71.8235 99.5056C71.8439 99.3473 71.8653 99.1847 71.8877 99.0317C71.9145 98.852 71.9401 98.6723 71.968 98.4969C72.0321 98.0782 72.1035 97.6621 72.1819 97.2484C72.2044 97.1276 72.2268 97.0067 72.2504 96.8869C72.2739 96.7671 72.2942 96.6601 72.3178 96.5478C72.3477 96.3987 72.3787 96.2511 72.4108 96.1049C72.4386 95.9712 72.4686 95.8374 72.4986 95.7037C72.5339 95.5475 72.5702 95.3914 72.6055 95.2352C72.6408 95.079 72.6804 94.9249 72.7179 94.7687C72.8277 94.3194 72.9457 93.8737 73.0719 93.4315C73.0794 93.4069 73.0848 93.3802 73.0923 93.3556C73.1768 93.0571 73.2645 92.7619 73.3565 92.4677C73.4025 92.3169 73.4496 92.1639 73.4977 92.013C73.5458 91.8622 73.5951 91.7124 73.6453 91.5616C73.6956 91.4108 73.7459 91.2621 73.7972 91.1134C73.8486 90.9647 73.9042 90.8138 73.9545 90.6651C74.1684 90.0704 74.391 89.4799 74.6284 88.8979C74.7472 88.6059 74.8681 88.316 74.9932 88.0282C75.0564 87.8848 75.1184 87.7415 75.1837 87.6003C75.2329 87.4869 75.2842 87.3735 75.3366 87.2601C75.4254 87.0643 75.5163 86.8707 75.6073 86.6771C75.664 86.5583 75.7207 86.4407 75.7784 86.3219C75.8469 86.1807 75.9154 86.0406 75.9849 85.9015L76.1989 85.4822C76.3401 85.204 76.4866 84.928 76.6353 84.6542C76.7081 84.5172 76.7851 84.3792 76.86 84.2434C76.9348 84.1075 77.0119 83.9706 77.0889 83.8358C77.1552 83.7181 77.2226 83.6015 77.2911 83.4849C77.3125 83.4475 77.3339 83.41 77.3563 83.3779C77.4109 83.2838 77.4633 83.1886 77.5232 83.0955C77.6302 82.9115 77.7372 82.7297 77.8548 82.5478C77.918 82.4408 77.9832 82.3403 78.0485 82.2376C78.1308 82.106 78.2143 81.9755 78.2977 81.8439C78.466 81.5815 78.6368 81.3219 78.8101 81.0651C78.9888 80.7998 79.1696 80.5388 79.3536 80.2778C79.4392 80.158 79.5237 80.0382 79.6092 79.9194C79.6745 79.8285 79.7398 79.7386 79.8072 79.6488C79.8745 79.5589 79.9141 79.4958 79.9751 79.4198C80.4237 78.8186 80.8873 78.2292 81.3658 77.6515C81.4653 77.5306 81.5648 77.4108 81.6675 77.2921C81.7702 77.1733 81.8814 77.0407 81.9884 76.9166C81.9991 76.9016 82.0119 76.8877 82.0237 76.8727C82.1307 76.7508 82.2376 76.6278 82.3446 76.5069C82.4516 76.386 82.5586 76.2715 82.6656 76.1539C82.6827 76.1346 82.7009 76.1153 82.718 76.095L83.0314 75.7548L83.0539 75.7313C83.1694 75.6072 83.286 75.4838 83.4037 75.3612L83.6102 75.1472C83.7813 74.9707 83.9535 74.7942 84.1279 74.6198C84.3718 74.3745 84.6193 74.1327 84.8703 73.8945C84.9944 73.7768 85.1196 73.6581 85.2458 73.5404L85.2533 73.5329L85.6149 73.2013C85.6263 73.1898 85.6384 73.1791 85.6512 73.1692C85.7721 73.0623 85.8941 72.9553 86.016 72.8408C86.138 72.7263 86.2696 72.6162 86.3979 72.506C86.4027 72.5014 86.4077 72.4971 86.4129 72.4931C86.6729 72.2685 86.9339 72.046 87.1992 71.8277C87.6014 71.4947 88.0104 71.1691 88.4262 70.8511C88.561 70.7441 88.6969 70.6457 88.8316 70.5451L89.2499 70.2263C89.389 70.1247 89.5302 70.0231 89.6714 69.9236C89.8126 69.8241 89.9538 69.7225 90.0993 69.624C90.2448 69.5256 90.3646 69.4411 90.4994 69.3502C90.687 69.2232 90.8752 69.0981 91.0642 68.9747C91.0835 68.9619 91.1017 68.949 91.122 68.9373C91.214 68.8774 91.306 68.8174 91.3991 68.7586C91.5403 68.6677 91.6826 68.5767 91.827 68.488L91.8847 68.4516L92.2699 68.2141L92.3009 68.1959C92.4435 68.1082 92.5861 68.0223 92.7288 67.9381C92.8714 67.8539 93.0162 67.7694 93.1631 67.6846L93.1984 67.6632C93.3054 67.6033 93.4124 67.5434 93.5129 67.4845C94.1598 67.1194 94.8177 66.771 95.4866 66.4394L95.9498 66.2126L95.9702 66.203C96.1242 66.1291 96.2772 66.0553 96.4323 65.989C96.5874 65.9227 96.7532 65.8414 96.9094 65.7697L97.3833 65.5557H97.3951L97.8733 65.3493L98.2712 65.1835L98.8499 64.9503L99.342 64.7609C99.5068 64.6989 99.6726 64.6358 99.8384 64.5758C100.004 64.5159 100.17 64.455 100.336 64.3961C100.502 64.3373 100.643 64.2892 100.796 64.2378C100.912 64.1982 101.028 64.1586 101.146 64.1212C101.263 64.0838 101.366 64.0474 101.477 64.0142L101.86 63.8933C102.025 63.842 102.191 63.7928 102.357 63.7425C102.667 63.6505 102.98 63.5617 103.293 63.4761L103.5 63.4194L103.9 63.3125C104.046 63.275 104.192 63.2376 104.339 63.2055C104.438 63.1787 104.538 63.1552 104.639 63.1317L104.983 63.0514C105.144 63.014 105.304 62.9776 105.466 62.9445C105.629 62.9113 105.816 62.8685 105.994 62.8375C106.171 62.8065 106.346 62.7669 106.522 62.7305C106.875 62.662 107.23 62.5979 107.592 62.5401C107.771 62.5101 107.948 62.4823 108.127 62.4545C108.347 62.4203 108.57 62.3893 108.792 62.3593C108.929 62.339 109.067 62.3219 109.206 62.3037C109.371 62.2823 109.534 62.263 109.699 62.2438L109.835 62.2277L110.163 62.1935C110.243 62.1839 110.322 62.1753 110.403 62.1678L110.638 62.1454L110.92 62.1208C110.94 62.1208 110.962 62.1154 110.983 62.1143H111.028C112.24 62.0102 113.47 61.9581 114.716 61.9581C120.553 61.9532 126.331 63.1321 131.7 65.4237C137.069 67.7153 141.918 71.0719 145.953 75.2906C147.748 77.164 149.373 79.1943 150.807 81.3572C155.487 88.4249 157.977 96.7168 157.965 105.194Z"
        fill="white"
        fill-opacity="0.4"
    />
    <path
        d="M138.921 82.7172C132.818 77.0338 124.784 73.8795 116.444 73.8917C98.1985 73.8917 83.408 88.6832 83.408 106.929C83.3956 115.269 86.5495 123.302 92.2325 129.406C88.8973 126.317 86.2375 122.571 84.4202 118.404C82.6029 114.238 81.6675 109.74 81.6729 105.194C81.6729 86.947 96.4634 72.1522 114.71 72.1522C119.256 72.1477 123.754 73.084 127.921 74.9022C132.087 76.7204 135.833 79.3812 138.921 82.7172V82.7172Z"
        fill="#0084FF"
    />
    <path
        opacity="0.2"
        d="M138.921 82.7172C132.818 77.0338 124.784 73.8795 116.444 73.8917C98.1985 73.8917 83.408 88.6832 83.408 106.929C83.3956 115.269 86.5495 123.302 92.2325 129.406C88.8973 126.317 86.2375 122.571 84.4202 118.404C82.6029 114.238 81.6675 109.74 81.6729 105.194C81.6729 86.947 96.4634 72.1522 114.71 72.1522C119.256 72.1477 123.754 73.084 127.921 74.9022C132.087 76.7204 135.833 79.3812 138.921 82.7172V82.7172Z"
        fill="#010D1F"
    />
    <path
        d="M147.745 105.194C147.745 123.44 132.955 138.23 114.709 138.23C106.369 138.243 98.3361 135.089 92.2324 129.406C86.5495 123.302 83.3955 115.269 83.408 106.929C83.408 88.6831 98.1985 73.8915 116.444 73.8915C124.784 73.8793 132.818 77.0337 138.921 82.717C144.604 88.8207 147.758 96.8541 147.745 105.194V105.194Z"
        fill="#010D1F"
        fill-opacity="0.8"
    />
    <path
        d="M147.745 105.194C147.745 123.44 132.955 138.23 114.709 138.23C106.369 138.243 98.3361 135.089 92.2324 129.406C86.5495 123.302 83.3955 115.269 83.408 106.929C83.408 88.6831 98.1985 73.8915 116.444 73.8915C124.784 73.8793 132.818 77.0337 138.921 82.717C144.604 88.8207 147.758 96.8541 147.745 105.194V105.194Z"
        fill="#0084FF"
    />
    <path
        opacity="0.2"
        d="M114.711 65.5429C92.8126 65.5429 75.0599 83.2945 75.0599 105.194C74.5825 105.195 74.1102 105.096 73.6726 104.906C73.2351 104.715 72.8419 104.435 72.5179 104.085C72.1938 103.734 71.946 103.32 71.7901 102.869C71.6342 102.418 71.5736 101.939 71.6121 101.463C73.3996 80.5516 90.0654 63.8859 110.979 62.0961C111.455 62.0575 111.934 62.118 112.385 62.2738C112.836 62.4296 113.25 62.6772 113.601 63.0012C113.951 63.3251 114.231 63.7182 114.422 64.1557C114.613 64.5932 114.711 65.0655 114.711 65.5429V65.5429Z"
        fill="white"
    />
    <path
        d="M122.938 94.2682C122.942 96.3116 122.183 98.2828 120.808 99.7946C120.719 99.8951 120.626 99.9925 120.531 100.087C119.184 101.435 117.411 102.274 115.514 102.462C113.617 102.649 111.714 102.173 110.129 101.114C108.544 100.056 107.375 98.4803 106.822 96.6564C106.268 94.8325 106.364 92.8731 107.094 91.1122C107.823 89.3513 109.141 87.8978 110.822 86.9995C112.503 86.1012 114.443 85.8137 116.313 86.186C118.182 86.5583 119.864 87.5673 121.073 89.0411C122.282 90.5149 122.942 92.3622 122.941 94.2682H122.938Z"
        fill="#010D1F"
        fill-opacity="0.8"
    />
    <path
        d="M114.71 126.147C113.926 126.147 113.15 125.987 112.43 125.676C111.711 125.364 111.062 124.909 110.525 124.338C109.987 123.767 109.573 123.092 109.306 122.354C109.039 121.617 108.926 120.832 108.974 120.05L110.318 98.3571C110.386 97.2382 110.878 96.1874 111.694 95.4192C112.511 94.651 113.589 94.2234 114.71 94.2235V94.2235C115.83 94.2233 116.908 94.6502 117.725 95.4173C118.541 96.1843 119.034 97.2338 119.103 98.3517L120.446 120.044C120.495 120.827 120.383 121.612 120.117 122.351C119.85 123.089 119.436 123.764 118.898 124.336C118.361 124.908 117.712 125.364 116.992 125.675C116.272 125.987 115.495 126.147 114.71 126.147V126.147Z"
        fill="#010D1F"
        fill-opacity="0.8"
    />
    <g opacity="0.2">
        <path
            opacity="0.2"
            d="M115.867 30.9777C115.867 31.1295 115.837 31.2798 115.779 31.42C115.721 31.5603 115.635 31.6877 115.528 31.795C115.421 31.9023 115.293 31.9874 115.153 32.0454C115.012 32.1034 114.862 32.1332 114.71 32.133C107.771 32.1417 101.089 34.7548 95.9841 39.4551C90.8797 44.1554 87.7255 50.6006 87.1458 57.5152H84.8234C85.3475 50.3681 88.4348 43.6507 93.5173 38.5986C93.5419 38.573 93.5676 38.5484 93.5922 38.5248C96.3656 35.7547 99.6589 33.5598 103.283 32.066C106.907 30.5722 110.79 29.809 114.71 29.8202C114.862 29.8202 115.013 29.8501 115.153 29.9083C115.293 29.9665 115.421 30.0518 115.528 30.1593C115.636 30.2668 115.721 30.3944 115.779 30.5348C115.837 30.6752 115.867 30.8257 115.867 30.9777Z"
            fill="white"
        />
    </g>
    <path
        opacity="0.2"
        d="M150.798 81.3358C149.813 81.1272 148.809 81.0225 147.802 81.0234C144.897 81.0219 142.059 81.9002 139.662 83.5427C137.013 85.3572 135.046 88.0044 134.073 91.0642H122.292C122.901 92.5096 123.086 94.0991 122.823 95.6457C122.56 97.1923 121.861 98.6317 120.808 99.7945H134.073C134.239 100.32 134.436 100.834 134.663 101.336C135.775 103.81 137.562 105.919 139.82 107.422C142.077 108.925 144.713 109.76 147.425 109.831C147.55 109.831 147.677 109.831 147.804 109.831C149.691 109.834 151.559 109.465 153.303 108.746C155.046 108.027 156.631 106.971 157.967 105.64C157.967 105.49 157.967 105.34 157.967 105.189C157.979 96.7055 155.485 88.4071 150.798 81.3358ZM147.802 101.233C147.704 101.233 147.605 101.233 147.508 101.226C146.308 101.165 145.156 100.732 144.212 99.9884C143.268 99.2443 142.578 98.2253 142.238 97.0723C141.899 95.9193 141.926 94.6892 142.315 93.5521C142.705 92.4151 143.439 91.4272 144.414 90.7251C145.156 90.1911 146.014 89.8401 146.918 89.7007C147.821 89.5613 148.745 89.6374 149.613 89.9229C150.482 90.2084 151.271 90.6951 151.915 91.3434C152.56 91.9917 153.042 92.7832 153.322 93.6533C153.603 94.5234 153.674 95.4475 153.529 96.3502C153.385 97.2529 153.029 98.1087 152.491 98.8477C151.953 99.5867 151.247 100.188 150.432 100.603C149.618 101.017 148.716 101.233 147.802 101.233V101.233Z"
        fill="#010D1F"
    />
    <path
        d="M146.598 79.8169C143.54 79.8166 140.561 80.7893 138.092 82.5944C135.623 84.3995 133.793 86.9433 132.866 89.8577H107.757C106.93 91.1616 106.487 92.6716 106.477 94.2154C106.467 95.7592 106.891 97.2747 107.701 98.589H132.862C133.668 101.125 135.161 103.388 137.174 105.127C139.188 106.867 141.644 108.015 144.27 108.444C146.897 108.872 149.59 108.566 152.053 107.557C154.515 106.549 156.65 104.878 158.221 102.73C159.792 100.583 160.738 98.042 160.953 95.3898C161.168 92.7376 160.645 90.0775 159.44 87.7046C158.236 85.3318 156.399 83.3387 154.131 81.9464C151.863 80.5541 149.254 79.8171 146.593 79.8169H146.598ZM146.598 100.024C145.45 100.024 144.329 99.6838 143.375 99.0466C142.421 98.4094 141.677 97.5036 141.238 96.4437C140.799 95.3839 140.684 94.2176 140.908 93.0924C141.131 91.9672 141.684 90.9336 142.495 90.1223C143.306 89.3111 144.34 88.7585 145.465 88.5346C146.59 88.3107 147.756 88.4256 148.816 88.8645C149.876 89.3035 150.782 90.0469 151.419 91.0008C152.057 91.9547 152.397 93.0761 152.397 94.2233C152.397 95.7614 151.786 97.2364 150.698 98.324C149.611 99.4117 148.136 100.023 146.598 100.024V100.024Z"
        fill="white"
    />
    <path
        d="M146.598 79.8169C143.54 79.8166 140.561 80.7893 138.092 82.5944C135.623 84.3995 133.793 86.9433 132.866 89.8577H107.757C106.93 91.1616 106.487 92.6716 106.477 94.2154C106.467 95.7592 106.891 97.2747 107.701 98.589H132.862C133.668 101.125 135.161 103.388 137.174 105.127C139.188 106.867 141.644 108.015 144.27 108.444C146.897 108.872 149.59 108.566 152.053 107.557C154.515 106.549 156.65 104.878 158.221 102.73C159.792 100.583 160.738 98.042 160.953 95.3898C161.168 92.7376 160.645 90.0775 159.44 87.7046C158.236 85.3318 156.399 83.3387 154.131 81.9464C151.863 80.5541 149.254 79.8171 146.593 79.8169H146.598ZM146.598 100.024C145.45 100.024 144.329 99.6838 143.375 99.0466C142.421 98.4094 141.677 97.5036 141.238 96.4437C140.799 95.3839 140.684 94.2176 140.908 93.0924C141.131 91.9672 141.684 90.9336 142.495 90.1223C143.306 89.3111 144.34 88.7585 145.465 88.5346C146.59 88.3107 147.756 88.4256 148.816 88.8645C149.876 89.3035 150.782 90.0469 151.419 91.0008C152.057 91.9547 152.397 93.0761 152.397 94.2233C152.397 95.7614 151.786 97.2364 150.698 98.324C149.611 99.4117 148.136 100.023 146.598 100.024V100.024Z"
        fill="#010D1F"
        fill-opacity="0.24"
    />
    <path
        opacity="0.2"
        d="M151.658 89.6255C151.653 89.6222 151.649 89.6182 151.645 89.6137C151.022 88.9314 150.267 88.3824 149.427 87.9998C148.586 87.6173 147.676 87.4092 146.752 87.3881C145.829 87.3671 144.911 87.5334 144.053 87.8772C143.196 88.2209 142.417 88.735 141.764 89.3882C141.11 90.0414 140.596 90.8203 140.253 91.6777C139.909 92.5352 139.742 93.4535 139.763 94.377C139.785 95.3006 139.993 96.2103 140.375 97.0512C140.758 97.892 141.307 98.6466 141.989 99.2694C141.993 99.2742 141.997 99.2785 142.002 99.2822C143.301 100.466 145.007 101.103 146.764 101.062C148.522 101.021 150.196 100.305 151.439 99.0621C152.682 97.8192 153.398 96.1452 153.439 94.3879C153.48 92.6306 152.842 90.925 151.659 89.6255H151.658ZM146.598 100.024C145.45 100.024 144.329 99.6838 143.375 99.0466C142.421 98.4094 141.677 97.5036 141.238 96.4437C140.799 95.3839 140.684 94.2176 140.908 93.0924C141.131 91.9672 141.684 90.9336 142.495 90.1223C143.306 89.311 144.339 88.7585 145.465 88.5346C146.59 88.3107 147.756 88.4255 148.816 88.8645C149.876 89.3035 150.782 90.0469 151.419 91.0008C152.057 91.9546 152.397 93.0761 152.397 94.2233C152.397 95.7614 151.785 97.2364 150.698 98.324C149.611 99.4117 148.136 100.023 146.598 100.024V100.024Z"
        fill="white"
    />
    <path
        opacity="0.1"
        d="M153.884 94.6737C153.883 96.0519 153.466 97.3977 152.688 98.5348C151.909 99.6718 150.805 100.547 149.52 101.045C148.235 101.544 146.829 101.642 145.487 101.327C144.146 101.013 142.93 100.3 142.001 99.2822C143.3 100.466 145.006 101.103 146.763 101.062C148.52 101.021 150.194 100.305 151.437 99.0621C152.68 97.8192 153.397 96.1452 153.438 94.3879C153.479 92.6306 152.841 90.925 151.657 89.6255C152.36 90.2654 152.921 91.045 153.304 91.9144C153.687 92.7837 153.885 93.7236 153.884 94.6737V94.6737Z"
        fill="#010D1F"
    />
    <path
        opacity="0.2"
        d="M111.225 94.2682C111.223 95.7944 111.647 97.291 112.45 98.5889H107.706C106.896 97.2746 106.472 95.7591 106.481 94.2153C106.491 92.6714 106.935 91.1615 107.761 89.8575H112.507C111.667 91.1752 111.223 92.7058 111.225 94.2682Z"
        fill="#010D1F"
    />
    <path
        d="M112.507 48.0191C112.507 50.5377 111.506 52.9531 109.725 54.734C107.944 56.5149 105.529 57.5154 103.01 57.5154H47.4952C46.2483 57.5154 45.0135 57.2698 43.8615 56.7926C42.7095 56.3154 41.6628 55.616 40.7811 54.7343C39.8994 53.8526 39.2 52.8059 38.7228 51.6539C38.2456 50.5019 38 49.2671 38 48.0202C38 46.7733 38.2456 45.5386 38.7228 44.3866C39.2 43.2346 39.8994 42.1878 40.7811 41.3061C41.6628 40.4244 42.7095 39.725 43.8615 39.2478C45.0135 38.7706 46.2483 38.525 47.4952 38.525H103.016C105.533 38.5259 107.947 39.5265 109.727 41.3069C111.507 43.0873 112.507 45.5017 112.507 48.0191V48.0191Z"
        fill="white"
    />
    <path d="M61.7959 57.5154L67.9299 63.6483V57.5154H61.7959Z" fill="white" />
    <path
        d="M47.4222 46.1568C47.6675 46.181 47.9062 46.2506 48.1261 46.3622L49.3595 46.9495L49.3306 44.3949C49.4657 44.2961 49.6141 44.2168 49.7714 44.1596C49.9759 44.0798 50.1937 44.0399 50.4132 44.0419C50.6799 44.0342 50.9421 44.1114 51.162 44.2623C51.3674 44.4088 51.4701 44.6495 51.4701 44.9822C51.4701 45.0988 51.4552 45.3684 51.4263 45.7888C51.3974 46.2092 51.3621 46.6168 51.3193 47.0084L53.4588 45.8926C53.6886 46.0011 53.8897 46.1619 54.0461 46.3622C54.2223 46.5769 54.316 46.8473 54.3103 47.125C54.3103 47.4195 54.2273 47.6302 54.0611 47.7572C53.8534 47.9093 53.6321 48.0418 53.4 48.153L51.9911 48.7949L53.6942 50.9344C53.6362 51.2267 53.4808 51.4906 53.2534 51.6832C53.0372 51.8817 52.7542 51.9916 52.4607 51.9913C52.3355 51.997 52.2105 51.9757 52.0942 51.9288C51.9779 51.8819 51.8731 51.8106 51.7868 51.7196C51.6199 51.5342 51.4388 51.3141 51.2433 51.0595L50.4218 49.8828L49.0118 51.9378C48.9332 51.9729 48.8486 51.9928 48.7626 51.9966H48.5422C48.0915 51.9966 47.7538 51.8989 47.5291 51.7035C47.4212 51.6143 47.3347 51.5019 47.2762 51.3747C47.2177 51.2474 47.1886 51.1086 47.1911 50.9686C47.1911 50.6755 47.338 50.3624 47.6318 50.0294L48.7476 48.767L46.4594 48.0343C46.3793 47.788 46.3395 47.5304 46.3417 47.2715C46.3351 47.1241 46.3577 46.9769 46.4081 46.8383C46.4586 46.6997 46.536 46.5724 46.6359 46.4638C46.7382 46.3605 46.861 46.2798 46.9965 46.227C47.1319 46.1741 47.2769 46.1502 47.4222 46.1568V46.1568Z"
        fill="#0084FF"
    />
    <path
        d="M59.8861 46.1568C60.0423 46.1568 60.2773 46.2253 60.5911 46.3622L61.8245 46.9495L61.7945 44.395C61.9298 44.2963 62.0781 44.2171 62.2353 44.1596C62.4398 44.08 62.6577 44.04 62.8771 44.0419C63.1438 44.0341 63.4061 44.1112 63.626 44.2623C63.8314 44.4089 63.9341 44.6496 63.9341 44.9822C63.9341 45.0989 63.9191 45.3684 63.8902 45.7888C63.8613 46.2093 63.826 46.6168 63.7832 47.0084L65.9227 45.8926C66.1522 46.0017 66.3532 46.1624 66.51 46.3622C66.6884 46.5742 66.7859 46.8426 66.785 47.1196C66.785 47.4142 66.7015 47.6249 66.5347 47.7519C66.3274 47.904 66.1064 48.0365 65.8746 48.1477L64.4647 48.7895L66.1677 50.929C66.1097 51.2211 65.9548 51.4849 65.7281 51.6779C65.5112 51.8761 65.2281 51.9859 64.9343 51.986C64.8058 51.9929 64.6774 51.9715 64.5582 51.9233C64.4389 51.875 64.3318 51.8011 64.2443 51.7068C64.0785 51.5217 63.8966 51.3013 63.7019 51.0467L62.8793 49.87L61.4693 51.925C61.3907 51.9601 61.3061 51.9801 61.2201 51.9838H60.9997C60.5497 51.9838 60.212 51.8861 59.9867 51.6907C59.8787 51.6015 59.7922 51.4891 59.7337 51.3618C59.6752 51.2346 59.6461 51.0958 59.6486 50.9558C59.6486 50.6627 59.7955 50.3496 60.0893 50.0165L61.2051 48.7542L58.9148 48.0193C58.8346 47.7731 58.7949 47.5155 58.7971 47.2566C58.7842 46.959 58.89 46.6685 59.0913 46.4489C59.196 46.3473 59.3208 46.2689 59.4577 46.2186C59.5946 46.1683 59.7406 46.1472 59.8861 46.1568V46.1568Z"
        fill="#0084FF"
    />
    <path
        d="M72.3478 46.1564C72.5051 46.1564 72.7393 46.2248 73.0528 46.3618L74.2862 46.9491L74.2573 44.3945C74.392 44.2956 74.54 44.2164 74.697 44.1591C74.9016 44.0796 75.1194 44.0397 75.3389 44.0415C75.6055 44.0334 75.8679 44.1106 76.0877 44.2618C76.2931 44.4084 76.3958 44.6491 76.3958 44.9818C76.3958 45.0984 76.3819 45.368 76.3519 45.7884C76.322 46.2088 76.2888 46.6164 76.2449 47.0079L78.3845 45.8921C78.6139 46.0012 78.8149 46.162 78.9718 46.3618C79.1479 46.5764 79.2416 46.8469 79.236 47.1245C79.236 47.419 79.1529 47.6298 78.9867 47.7567C78.7789 47.9086 78.5576 48.0411 78.3256 48.1525L76.9157 48.7944L78.6198 50.9339C78.5615 51.2261 78.4061 51.4899 78.1791 51.6828C77.9625 51.8807 77.6798 51.9906 77.3864 51.9908C77.2579 51.998 77.1294 51.9767 77.0101 51.9285C76.8908 51.8802 76.7837 51.8062 76.6964 51.7116C76.5295 51.5266 76.3476 51.3062 76.1529 51.0516L75.3303 49.8749L73.9214 51.9299C73.8424 51.9649 73.7575 51.9849 73.6711 51.9887H73.4507C73 51.9887 72.6623 51.891 72.4377 51.6956C72.3301 51.6061 72.244 51.4936 72.1856 51.3664C72.1273 51.2392 72.0983 51.1006 72.1007 50.9607C72.1007 50.6676 72.2473 50.3545 72.5404 50.0214L73.6572 48.7591L71.3658 48.0242C71.286 47.7779 71.2466 47.5203 71.2492 47.2614C71.2426 47.1142 71.2651 46.967 71.3154 46.8284C71.3657 46.6899 71.4428 46.5625 71.5423 46.4538C71.6478 46.3499 71.7741 46.2696 71.913 46.2183C72.0519 46.1671 72.2001 46.1459 72.3478 46.1564V46.1564Z"
        fill="#0084FF"
    />
    <path
        d="M84.8066 46.1564C84.9628 46.1564 85.1974 46.2248 85.5105 46.3618L86.744 46.9491L86.7151 44.3945C86.85 44.2954 86.9984 44.2162 87.1558 44.1591C87.3603 44.0794 87.5782 44.0394 87.7977 44.0415C88.0644 44.0334 88.3267 44.1106 88.5465 44.2618C88.753 44.4084 88.8557 44.6491 88.8557 44.9818C88.8557 45.0984 88.8407 45.368 88.8107 45.7884C88.7808 46.2088 88.7476 46.6164 88.7038 47.0079L90.8433 45.8921C91.0729 46.001 91.2739 46.1617 91.4306 46.3618C91.6113 46.5727 91.7107 46.8414 91.7108 47.1192C91.7108 47.4137 91.6278 47.6244 91.4616 47.7514C91.2538 47.9033 91.0325 48.0357 90.8005 48.1472L89.3916 48.7891L91.0947 50.9286C91.0367 51.2209 90.8813 51.4848 90.6539 51.6774C90.4373 51.8753 90.1546 51.9852 89.8612 51.9855C89.7328 51.9927 89.6043 51.9714 89.485 51.9231C89.3657 51.8749 89.2586 51.8008 89.1712 51.7063C89.0044 51.5209 88.8232 51.3009 88.6278 51.0462L87.8052 49.8695L86.3963 51.9245C86.3176 51.9594 86.233 51.9794 86.147 51.9834H85.9267C85.4759 51.9834 85.1382 51.8857 84.9136 51.6902C84.8056 51.601 84.7192 51.4886 84.6607 51.3614C84.6021 51.2341 84.573 51.0953 84.5755 50.9553C84.5755 50.6622 84.7225 50.3491 85.0163 50.0161L86.132 48.7538L83.8417 48.0188C83.7611 47.7727 83.7213 47.5151 83.724 47.2561C83.7174 47.1088 83.7399 46.9617 83.7902 46.8231C83.8405 46.6845 83.9176 46.5572 84.0171 46.4484C84.1213 46.3476 84.2452 46.2696 84.3811 46.2193C84.5171 46.169 84.662 46.1476 84.8066 46.1564Z"
        fill="#0084FF"
    />
    <path
        d="M97.266 46.1568C97.4222 46.1568 97.6572 46.2253 97.971 46.3622L99.2045 46.9495L99.1745 44.395C99.3096 44.2961 99.458 44.2169 99.6152 44.1596C99.8198 44.08 100.038 44.04 100.257 44.0419C100.524 44.0341 100.786 44.1112 101.006 44.2623C101.211 44.4089 101.314 44.6496 101.314 44.9822C101.314 45.0989 101.299 45.3684 101.27 45.7888C101.241 46.2093 101.206 46.6168 101.163 47.0084L103.303 45.8926C103.532 46.0017 103.733 46.1624 103.89 46.3622C104.066 46.5771 104.159 46.8474 104.154 47.125C104.154 47.4195 104.071 47.6303 103.904 47.7572C103.697 47.9093 103.476 48.0418 103.244 48.153L101.834 48.7949L103.537 50.9344C103.479 51.2267 103.324 51.4907 103.096 51.6832C102.88 51.8817 102.597 51.9917 102.304 51.9913C102.175 51.9984 102.047 51.9771 101.927 51.9288C101.808 51.8806 101.701 51.8066 101.614 51.7121C101.447 51.5267 101.266 51.3067 101.07 51.0521L100.249 49.8753L98.8386 51.9303C98.7599 51.9654 98.6754 51.9853 98.5893 51.9892H98.369C97.9182 51.9892 97.5806 51.8915 97.3559 51.6961C97.248 51.6068 97.1615 51.4944 97.103 51.3672C97.0444 51.24 97.0154 51.1012 97.0179 50.9611C97.0179 50.668 97.1648 50.3549 97.4586 50.0219L98.5744 48.7596L96.284 48.0246C96.2039 47.7784 96.1642 47.5208 96.1663 47.2619C96.1534 46.9643 96.2593 46.6738 96.4605 46.4542C96.5659 46.3502 96.6922 46.2698 96.8312 46.2185C96.9701 46.1672 97.1183 46.1462 97.266 46.1568Z"
        fill="#0084FF"
    />
    <path
        opacity="0.2"
        d="M91.1188 57.5155C91.0789 58.0611 91.0593 58.6124 91.06 59.1694V61.9368H83.6049V59.1694C83.6049 58.6152 83.6191 58.0639 83.6477 57.5155H91.1188Z"
        fill="#010D1F"
    />
    <circle cx="72.1337" cy="127.672" r="25.7812" fill="#66D49A" />
    <circle cx="72.1338" cy="127.672" r="21.1812" fill="#00B856" />
    <path
        fill-rule="evenodd"
        clip-rule="evenodd"
        d="M88.3672 114.066C84.5649 110.434 79.4122 108.203 73.7385 108.203C62.0404 108.203 52.5573 117.686 52.5573 129.384C52.5573 134.564 54.4169 139.31 57.505 142.991C53.4676 139.134 50.9525 133.697 50.9525 127.672C50.9525 115.974 60.4357 106.491 72.1338 106.491C78.6516 106.491 84.4818 109.435 88.3672 114.066Z"
        fill="#00B856"
    />
    <path
        fill-rule="evenodd"
        clip-rule="evenodd"
        d="M88.3672 114.066C84.5649 110.434 79.4122 108.203 73.7385 108.203C62.0404 108.203 52.5573 117.686 52.5573 129.384C52.5573 134.564 54.4169 139.31 57.505 142.991C53.4676 139.134 50.9525 133.697 50.9525 127.672C50.9525 115.974 60.4357 106.491 72.1338 106.491C78.6516 106.491 84.4818 109.435 88.3672 114.066Z"
        fill="black"
        fill-opacity="0.4"
    />
    <g opacity="0.33">
        <path
            opacity="0.37"
            fill-rule="evenodd"
            clip-rule="evenodd"
            d="M81.612 108.725C78.7602 107.296 75.5409 106.491 72.1337 106.491C60.4356 106.491 50.9525 115.974 50.9525 127.672C50.9525 129.371 51.1524 131.023 51.53 132.606C49.6353 131.656 47.9028 130.431 46.3852 128.982C46.3635 128.548 46.3525 128.112 46.3525 127.672C46.3525 113.434 57.8952 101.891 72.1337 101.891C74.602 101.891 76.9892 102.238 79.2494 102.886C80.3107 104.679 81.1152 106.642 81.612 108.725Z"
            fill="white"
        />
        <path
            opacity="0.65"
            fill-rule="evenodd"
            clip-rule="evenodd"
            d="M61.0083 134.84C72.7064 134.84 82.1896 125.357 82.1896 113.659C82.1896 112.343 82.0697 111.056 81.8404 109.808C79.3445 108.774 76.6081 108.203 73.7384 108.203C62.0403 108.203 52.5571 117.686 52.5571 129.384C52.5571 130.699 52.677 131.986 52.9063 133.235C55.4022 134.269 58.1386 134.84 61.0083 134.84Z"
            fill="white"
        />
    </g>
    <path
        d="M71.0983 135.591C70.7362 135.591 70.3777 135.52 70.0432 135.381C69.7087 135.243 69.4049 135.039 69.1492 134.783L63.9865 129.619C63.7266 129.365 63.5198 129.061 63.3779 128.726C63.2361 128.391 63.1622 128.031 63.1603 127.667C63.1585 127.303 63.2288 126.942 63.3672 126.605C63.5057 126.269 63.7094 125.963 63.9668 125.706C64.2241 125.448 64.5299 125.245 64.8665 125.106C65.2031 124.968 65.5638 124.897 65.9277 124.899C66.2917 124.901 66.6516 124.975 66.9868 125.117C67.322 125.259 67.6257 125.465 67.8805 125.725L71.0962 128.941L78.2133 121.824C78.7298 121.308 79.4303 121.018 80.1606 121.018C80.891 121.018 81.5914 121.308 82.1077 121.825C82.6241 122.341 82.9141 123.042 82.914 123.772C82.9139 124.502 82.6237 125.203 82.1072 125.719L73.0453 134.783C72.7899 135.039 72.4865 135.243 72.1524 135.381C71.8182 135.52 71.46 135.591 71.0983 135.591V135.591Z"
        fill="white"
    />
</svg>
