<svg width="227" height="161" viewBox="0 0 227 161" fill="none" xmlns="http://www.w3.org/2000/svg">
<g clip-path="url(#clip0_1243_17465)">
<path d="M210.475 97.5687C210.509 118.614 203.665 139.094 190.986 155.89H35.9897C28.4598 145.912 22.938 134.567 19.7306 122.485C19.5455 121.781 19.3648 121.076 19.1958 120.366C17.3994 112.9 16.4945 105.248 16.5 97.5687C16.5 44.0032 59.9237 0.57959 113.488 0.57959C143.339 0.57959 170.042 14.0671 187.834 35.2806C188.361 35.9072 188.88 36.5415 189.389 37.1837C203.072 54.3326 210.509 75.6295 210.475 97.5687Z" fill="#0084FF"/>
<path d="M210.475 97.5687C210.509 118.614 203.665 139.094 190.986 155.89H35.9897C28.4598 145.912 22.938 134.567 19.7306 122.485C19.5455 121.781 19.3648 121.076 19.1958 120.366C17.3994 112.9 16.4945 105.248 16.5 97.5687C16.5 44.0032 59.9237 0.57959 113.488 0.57959C143.339 0.57959 170.042 14.0671 187.834 35.2806C188.361 35.9072 188.88 36.5415 189.389 37.1837C203.072 54.3326 210.509 75.6295 210.475 97.5687Z" fill="white" fill-opacity="0.9"/>
<g clip-path="url(#clip1_1243_17465)">
<path d="M190.582 80.8586V42.4739C190.58 38.4562 188.982 34.6038 186.14 31.7637C183.299 28.9236 179.445 27.3281 175.428 27.3281H93.3613C89.344 27.3289 85.4915 28.9247 82.6503 31.7647C79.8092 34.6048 78.2119 38.4567 78.2096 42.4739V55.297C77.8942 55.3951 77.6185 55.5916 77.4228 55.8577C77.2272 56.1239 77.122 56.4457 77.1226 56.776V62.698C77.1231 63.028 77.2288 63.3493 77.4243 63.6152C77.6197 63.8811 77.8948 64.0779 78.2096 64.177V74.4646C77.8946 74.5628 77.6191 74.7591 77.4236 75.025C77.228 75.2908 77.1225 75.6122 77.1226 75.9422V89.0057C77.1226 89.336 77.228 89.6577 77.4236 89.924C77.6191 90.1903 77.8944 90.3872 78.2096 90.4862V93.6205C77.8947 93.7194 77.6195 93.9161 77.424 94.1821C77.2285 94.4481 77.1229 94.7695 77.1226 95.0996V108.163C77.1216 108.494 77.2265 108.817 77.4221 109.085C77.6177 109.352 77.8936 109.55 78.2096 109.649V218.673C78.2069 222.195 79.4328 225.607 81.6759 228.322C83.919 231.037 87.0389 232.885 90.4979 233.547C91.4414 233.729 92.4003 233.821 93.3613 233.819H175.432C179.314 233.818 183.047 232.327 185.862 229.654C188.677 226.981 190.358 223.329 190.56 219.453C190.572 219.195 190.582 218.933 190.582 218.673V107.041C190.884 106.935 191.146 106.738 191.331 106.477C191.517 106.216 191.617 105.904 191.618 105.584V82.3173C191.617 81.9969 191.517 81.6848 191.331 81.4236C191.146 81.1625 190.884 80.9651 190.582 80.8586ZM185.23 218.672C185.23 218.937 185.22 219.195 185.198 219.451C185.001 221.906 183.887 224.196 182.078 225.867C180.269 227.537 177.897 228.465 175.435 228.465H93.3613C92.0745 228.467 90.8002 228.214 89.6112 227.722C88.4221 227.231 87.3416 226.509 86.4315 225.6C85.5214 224.69 84.7995 223.61 84.3071 222.421C83.8147 221.233 83.5614 219.959 83.5618 218.672V42.4739C83.5614 41.1872 83.8147 39.913 84.3071 38.7243C84.7995 37.5355 85.5214 36.4554 86.4315 35.5459C87.3416 34.6363 88.4221 33.915 89.6112 33.4233C90.8002 32.9316 92.0745 32.6792 93.3613 32.6803H108.64V34.8661C108.64 36.1414 109.146 37.3645 110.048 38.2663C110.95 39.1681 112.173 39.6747 113.448 39.6747H156.333C157.608 39.6747 158.831 39.1681 159.733 38.2663C160.635 37.3645 161.141 36.1414 161.141 34.8661V32.6803H175.422C176.709 32.6782 177.984 32.93 179.174 33.4212C180.364 33.9125 181.446 34.6336 182.357 35.5432C183.268 36.4529 183.99 37.5332 184.483 38.7225C184.976 39.9117 185.23 41.1865 185.23 42.4739V218.672Z" fill="#0084FF"/>
<path d="M190.582 80.8586V42.4739C190.58 38.4562 188.982 34.6038 186.14 31.7637C183.299 28.9236 179.445 27.3281 175.428 27.3281H93.3613C89.344 27.3289 85.4915 28.9247 82.6503 31.7647C79.8092 34.6048 78.2119 38.4567 78.2096 42.4739V55.297C77.8942 55.3951 77.6185 55.5916 77.4228 55.8577C77.2272 56.1239 77.122 56.4457 77.1226 56.776V62.698C77.1231 63.028 77.2288 63.3493 77.4243 63.6152C77.6197 63.8811 77.8948 64.0779 78.2096 64.177V74.4646C77.8946 74.5628 77.6191 74.7591 77.4236 75.025C77.228 75.2908 77.1225 75.6122 77.1226 75.9422V89.0057C77.1226 89.336 77.228 89.6577 77.4236 89.924C77.6191 90.1903 77.8944 90.3872 78.2096 90.4862V93.6205C77.8947 93.7194 77.6195 93.9161 77.424 94.1821C77.2285 94.4481 77.1229 94.7695 77.1226 95.0996V108.163C77.1216 108.494 77.2265 108.817 77.4221 109.085C77.6177 109.352 77.8936 109.55 78.2096 109.649V218.673C78.2069 222.195 79.4328 225.607 81.6759 228.322C83.919 231.037 87.0389 232.885 90.4979 233.547C91.4414 233.729 92.4003 233.821 93.3613 233.819H175.432C179.314 233.818 183.047 232.327 185.862 229.654C188.677 226.981 190.358 223.329 190.56 219.453C190.572 219.195 190.582 218.933 190.582 218.673V107.041C190.884 106.935 191.146 106.738 191.331 106.477C191.517 106.216 191.617 105.904 191.618 105.584V82.3173C191.617 81.9969 191.517 81.6848 191.331 81.4236C191.146 81.1625 190.884 80.9651 190.582 80.8586ZM185.23 218.672C185.23 218.937 185.22 219.195 185.198 219.451C185.001 221.906 183.887 224.196 182.078 225.867C180.269 227.537 177.897 228.465 175.435 228.465H93.3613C92.0745 228.467 90.8002 228.214 89.6112 227.722C88.4221 227.231 87.3416 226.509 86.4315 225.6C85.5214 224.69 84.7995 223.61 84.3071 222.421C83.8147 221.233 83.5614 219.959 83.5618 218.672V42.4739C83.5614 41.1872 83.8147 39.913 84.3071 38.7243C84.7995 37.5355 85.5214 36.4554 86.4315 35.5459C87.3416 34.6363 88.4221 33.915 89.6112 33.4233C90.8002 32.9316 92.0745 32.6792 93.3613 32.6803H108.64V34.8661C108.64 36.1414 109.146 37.3645 110.048 38.2663C110.95 39.1681 112.173 39.6747 113.448 39.6747H156.333C157.608 39.6747 158.831 39.1681 159.733 38.2663C160.635 37.3645 161.141 36.1414 161.141 34.8661V32.6803H175.422C176.709 32.6782 177.984 32.93 179.174 33.4212C180.364 33.9125 181.446 34.6336 182.357 35.5432C183.268 36.4529 183.99 37.5332 184.483 38.7225C184.976 39.9117 185.23 41.1865 185.23 42.4739V218.672Z" fill="black" fill-opacity="0.6"/>
<path d="M185.23 42.4741V218.672C185.23 218.937 185.219 219.195 185.198 219.452C185.001 221.906 183.887 224.196 182.078 225.867C180.269 227.537 177.897 228.465 175.435 228.466H93.361C92.0743 228.467 90.7999 228.214 89.6109 227.723C88.4218 227.231 87.3413 226.51 86.4312 225.6C85.5211 224.69 84.7992 223.61 84.3068 222.422C83.8144 221.233 83.5611 219.959 83.5615 218.672V42.4741C83.5611 41.1873 83.8144 39.9132 84.3068 38.7244C84.7992 37.5356 85.5211 36.4556 86.4312 35.546C87.3413 34.6364 88.4218 33.9152 89.6109 33.4235C90.7999 32.9318 92.0743 32.6793 93.361 32.6804H175.432C176.718 32.6797 177.992 32.9324 179.181 33.4243C180.37 33.9161 181.45 34.6374 182.36 35.5469C183.27 36.4565 183.992 37.5364 184.484 38.725C184.977 39.9135 185.23 41.1875 185.23 42.4741Z" fill="white"/>
<path d="M185.23 42.4741V218.672C185.23 218.937 185.219 219.195 185.198 219.452C185.001 221.906 183.887 224.196 182.078 225.867C180.269 227.537 177.897 228.465 175.435 228.466H93.361C92.0743 228.467 90.7999 228.214 89.6109 227.723C88.4218 227.231 87.3413 226.51 86.4312 225.6C85.5211 224.69 84.7992 223.61 84.3068 222.422C83.8144 221.233 83.5611 219.959 83.5615 218.672V42.4741C83.5611 41.1873 83.8144 39.9132 84.3068 38.7244C84.7992 37.5356 85.5211 36.4556 86.4312 35.546C87.3413 34.6364 88.4218 33.9152 89.6109 33.4235C90.7999 32.9318 92.0743 32.6793 93.361 32.6804H175.432C176.718 32.6797 177.992 32.9324 179.181 33.4243C180.37 33.9161 181.45 34.6374 182.36 35.5469C183.27 36.4565 183.992 37.5364 184.484 38.725C184.977 39.9135 185.23 41.1875 185.23 42.4741Z" fill="#010D1F" fill-opacity="0.07"/>
<path d="M134.306 40.4338C135.473 40.4338 136.419 39.4878 136.419 38.3209C136.419 37.154 135.473 36.208 134.306 36.208C133.139 36.208 132.193 37.154 132.193 38.3209C132.193 39.4878 133.139 40.4338 134.306 40.4338Z" fill="#0084FF"/>
<path d="M134.306 40.4338C135.473 40.4338 136.419 39.4878 136.419 38.3209C136.419 37.154 135.473 36.208 134.306 36.208C133.139 36.208 132.193 37.154 132.193 38.3209C132.193 39.4878 133.139 40.4338 134.306 40.4338Z" fill="black" fill-opacity="0.6"/>
<rect x="119.459" y="49.55" width="79.4089" height="22.475" rx="4" fill="#010D1F" fill-opacity="0.08"/>
<rect x="118.446" y="48" width="79.4089" height="22.475" rx="4" fill="white"/>
<rect x="90.6123" y="79.0249" width="61.7625" height="23.25" rx="4" fill="#010D1F" fill-opacity="0.08"/>
<rect x="91.625" y="77.4751" width="61.7625" height="23.25" rx="4" fill="white"/>
<rect x="146.729" y="109.275" width="69.6258" height="22.475" rx="4" fill="#010D1F" fill-opacity="0.08"/>
<rect x="145.645" y="107.725" width="69.6258" height="22.475" rx="4" fill="white"/>
</g>
<path d="M226.5 158.498C226.5 159.882 225.713 161 224.747 161H2.25127C2.01688 160.998 1.78546 160.931 1.57202 160.805C1.35858 160.679 1.16786 160.497 1.01223 160.269C0.679269 159.782 0.496774 159.153 0.500043 158.502C0.500043 157.122 1.28531 156 2.25127 156H224.747C224.982 156.002 225.214 156.068 225.427 156.195C225.641 156.321 225.831 156.505 225.986 156.733C226.32 157.218 226.503 157.847 226.5 158.498Z" fill="#0084FF"/>
<path d="M226.5 158.498C226.5 159.882 225.713 161 224.747 161H2.25127C2.01688 160.998 1.78546 160.931 1.57202 160.805C1.35858 160.679 1.16786 160.497 1.01223 160.269C0.679269 159.782 0.496774 159.153 0.500043 158.502C0.500043 157.122 1.28531 156 2.25127 156H224.747C224.982 156.002 225.214 156.068 225.427 156.195C225.641 156.321 225.831 156.505 225.986 156.733C226.32 157.218 226.503 157.847 226.5 158.498Z" fill="white" fill-opacity="0.4"/>
</g>
<defs>
<clipPath id="clip0_1243_17465">
<rect width="226" height="161" fill="white" transform="translate(0.5)"/>
</clipPath>
<clipPath id="clip1_1243_17465">
<rect width="142" height="129" fill="white" transform="translate(76.5 27)"/>
</clipPath>
</defs>
</svg>
