<svg width="88" height="68" viewBox="0 0 88 68" fill="none" xmlns="http://www.w3.org/2000/svg">
<g clip-path="url(#clip0_1272_16740)">
<path d="M81.594 43.631C81.6071 51.7161 78.954 59.5841 74.0385 66.0371H13.9519C11.0329 62.2036 8.89227 57.845 7.64886 53.2033C7.57712 52.9329 7.50708 52.6619 7.44155 52.3893C6.74514 49.5211 6.39435 46.5811 6.39649 43.631C6.39649 23.0521 23.2303 6.36963 43.9952 6.36963C55.5677 6.36963 65.9193 11.5513 72.8167 19.7011C73.0212 19.9418 73.2221 20.1855 73.4194 20.4322C78.7241 27.0205 81.6072 35.2024 81.594 43.631Z" fill="#0084FF"/>
<path d="M81.594 43.631C81.6071 51.7161 78.954 59.5841 74.0385 66.0371H13.9519C11.0329 62.2036 8.89227 57.845 7.64886 53.2033C7.57712 52.9329 7.50708 52.6619 7.44155 52.3893C6.74514 49.5211 6.39435 46.5811 6.39649 43.631C6.39649 23.0521 23.2303 6.36963 43.9952 6.36963C55.5677 6.36963 65.9193 11.5513 72.8167 19.7011C73.0212 19.9418 73.2221 20.1855 73.4194 20.4322C78.7241 27.0205 81.6072 35.2024 81.594 43.631Z" fill="white" fill-opacity="0.9"/>
<g clip-path="url(#clip1_1272_16740)">
<path d="M82.3969 29.8625L53.557 29.4466C52.6472 29.4334 51.7798 29.0627 51.1458 28.4159C50.5117 27.7691 50.1629 26.8992 50.176 25.9976L50.5307 1.91154L50.4706 1.90968L51.595 0.175982L53.7203 1.95756L54.8459 0.22314L56.9715 2.00454L58.097 0.269815L60.2223 2.05139L61.3482 0.316796L63.4735 2.09837L64.599 0.363648L66.7255 2.14659L67.8511 0.412173L69.9764 2.19375L71.1022 0.458847L73.2275 2.24042L74.3531 0.506007L76.4788 2.28741L77.6044 0.552988L79.73 2.33231L80.8558 0.597403L82.9811 2.37898L84.1062 0.646514L86.2318 2.42791L85.8777 26.512C85.8712 26.9585 85.776 27.3994 85.5976 27.8094C85.4191 28.2195 85.1609 28.5907 84.8377 28.9018C84.5144 29.213 84.1325 29.458 83.7137 29.6228C83.2949 29.7876 82.8475 29.8691 82.3969 29.8625Z" fill="white"/>
<path d="M82.3969 29.8625L53.557 29.4466C52.6472 29.4334 51.7798 29.0627 51.1458 28.4159C50.5117 27.7691 50.1629 26.8992 50.176 25.9976L50.5307 1.91154L50.4706 1.90968L51.595 0.175982L53.7203 1.95756L54.8459 0.22314L56.9715 2.00454L58.097 0.269815L60.2223 2.05139L61.3482 0.316796L63.4735 2.09837L64.599 0.363648L66.7255 2.14659L67.8511 0.412173L69.9764 2.19375L71.1022 0.458847L73.2275 2.24042L74.3531 0.506007L76.4788 2.28741L77.6044 0.552988L79.73 2.33231L80.8558 0.597403L82.9811 2.37898L84.1062 0.646514L86.2318 2.42791L85.8777 26.512C85.8712 26.9585 85.776 27.3994 85.5976 27.8094C85.4191 28.2195 85.1609 28.5907 84.8377 28.9018C84.5144 29.213 84.1325 29.458 83.7137 29.6228C83.2949 29.7876 82.8475 29.8691 82.3969 29.8625Z" fill="#010D1F" fill-opacity="0.13"/>
<path d="M70.4671 23.5878L54.3288 23.3554C54.0853 23.3519 53.8504 23.4444 53.6758 23.6126C53.5012 23.7807 53.4011 24.0107 53.3975 24.252C53.394 24.4933 53.4873 24.726 53.657 24.8991C53.8267 25.0722 54.0588 25.1714 54.3022 25.1749L70.4406 25.4072C70.684 25.4107 70.9189 25.3182 71.0936 25.1501C71.2682 24.9819 71.3683 24.7519 71.3718 24.5106C71.3753 24.2694 71.282 24.0366 71.1123 23.8635C70.9427 23.6904 70.7106 23.5913 70.4671 23.5878Z" fill="#0084FF"/>
<path d="M70.4671 23.5878L54.3288 23.3554C54.0853 23.3519 53.8504 23.4444 53.6758 23.6126C53.5012 23.7807 53.4011 24.0107 53.3975 24.252C53.394 24.4933 53.4873 24.726 53.657 24.8991C53.8267 25.0722 54.0588 25.1714 54.3022 25.1749L70.4406 25.4072C70.684 25.4107 70.9189 25.3182 71.0936 25.1501C71.2682 24.9819 71.3683 24.7519 71.3718 24.5106C71.3753 24.2694 71.282 24.0366 71.1123 23.8635C70.9427 23.6904 70.7106 23.5913 70.4671 23.5878Z" fill="white" fill-opacity="0.4"/>
<path d="M81.7413 23.7493L78.888 23.7082C78.6444 23.7047 78.4094 23.7974 78.2347 23.9656C78.0601 24.1339 77.96 24.3641 77.9565 24.6054C77.9531 24.8468 78.0465 25.0797 78.2163 25.2528C78.3861 25.4259 78.6184 25.5251 78.862 25.5285L81.7153 25.5696C81.9561 25.569 82.187 25.4746 82.3583 25.3069C82.5296 25.1392 82.6275 24.9115 82.631 24.6729C82.6346 24.4343 82.5434 24.2039 82.3771 24.0312C82.2109 23.8586 81.9828 23.7576 81.7422 23.75L81.7413 23.7493Z" fill="#0084FF"/>
<path d="M81.7413 23.7493L78.888 23.7082C78.6444 23.7047 78.4094 23.7974 78.2347 23.9656C78.0601 24.1339 77.96 24.3641 77.9565 24.6054C77.9531 24.8468 78.0465 25.0797 78.2163 25.2528C78.3861 25.4259 78.6184 25.5251 78.862 25.5285L81.7153 25.5696C81.9561 25.569 82.187 25.4746 82.3583 25.3069C82.5296 25.1392 82.6275 24.9115 82.631 24.6729C82.6346 24.4343 82.5434 24.2039 82.3771 24.0312C82.2109 23.8586 81.9828 23.7576 81.7422 23.75L81.7413 23.7493Z" fill="white" fill-opacity="0.4"/>
<path d="M81.8281 17.8631L78.9748 17.822C78.8542 17.8202 78.7345 17.8421 78.6225 17.8862C78.5104 17.9303 78.4083 17.9959 78.3218 18.0791C78.2353 18.1624 78.1662 18.2617 78.1185 18.3714C78.0707 18.4811 78.0453 18.5991 78.0435 18.7185C78.0418 18.838 78.0638 18.9566 78.1083 19.0677C78.1528 19.1787 78.219 19.28 78.303 19.3657C78.387 19.4514 78.4872 19.5198 78.5979 19.5671C78.7086 19.6144 78.8277 19.6397 78.9482 19.6414L81.8016 19.6825C81.9221 19.6842 82.0418 19.6624 82.1539 19.6183C82.2659 19.5742 82.3681 19.5086 82.4546 19.4253C82.541 19.3421 82.6101 19.2428 82.6579 19.1331C82.7056 19.0234 82.7311 18.9054 82.7328 18.7859C82.7346 18.6665 82.7126 18.5478 82.668 18.4368C82.6235 18.3258 82.5574 18.2245 82.4734 18.1388C82.3893 18.0531 82.2891 17.9847 82.1784 17.9373C82.0677 17.89 81.9487 17.8648 81.8281 17.8631Z" fill="#0084FF"/>
<path d="M81.8281 17.8631L78.9748 17.822C78.8542 17.8202 78.7345 17.8421 78.6225 17.8862C78.5104 17.9303 78.4083 17.9959 78.3218 18.0791C78.2353 18.1624 78.1662 18.2617 78.1185 18.3714C78.0707 18.4811 78.0453 18.5991 78.0435 18.7185C78.0418 18.838 78.0638 18.9566 78.1083 19.0677C78.1528 19.1787 78.219 19.28 78.303 19.3657C78.387 19.4514 78.4872 19.5198 78.5979 19.5671C78.7086 19.6144 78.8277 19.6397 78.9482 19.6414L81.8016 19.6825C81.9221 19.6842 82.0418 19.6624 82.1539 19.6183C82.2659 19.5742 82.3681 19.5086 82.4546 19.4253C82.541 19.3421 82.6101 19.2428 82.6579 19.1331C82.7056 19.0234 82.7311 18.9054 82.7328 18.7859C82.7346 18.6665 82.7126 18.5478 82.668 18.4368C82.6235 18.3258 82.5574 18.2245 82.4734 18.1388C82.3893 18.0531 82.2891 17.9847 82.1784 17.9373C82.0677 17.89 81.9487 17.8648 81.8281 17.8631Z" fill="white" fill-opacity="0.4"/>
<path d="M74.1097 17.752L54.4173 17.4688C54.1739 17.4652 53.939 17.5576 53.7643 17.7257C53.5896 17.8938 53.4895 18.1237 53.4859 18.365C53.4823 18.6063 53.5756 18.839 53.7452 19.0121C53.9148 19.1853 54.1468 19.2845 54.3903 19.2881L74.0837 19.5723C74.2042 19.574 74.3239 19.5522 74.436 19.5081C74.548 19.464 74.6502 19.3984 74.7367 19.3152C74.8231 19.2319 74.8922 19.1326 74.94 19.0229C74.9877 18.9132 75.0132 18.7952 75.0149 18.6758C75.0167 18.5563 74.9946 18.4377 74.9501 18.3266C74.9056 18.2156 74.8395 18.1143 74.7554 18.0286C74.6714 17.9429 74.5712 17.8745 74.4605 17.8272C74.3498 17.7799 74.2308 17.7546 74.1102 17.7529L74.1097 17.752Z" fill="#0084FF"/>
<path d="M74.1097 17.752L54.4173 17.4688C54.1739 17.4652 53.939 17.5576 53.7643 17.7257C53.5896 17.8938 53.4895 18.1237 53.4859 18.365C53.4823 18.6063 53.5756 18.839 53.7452 19.0121C53.9148 19.1853 54.1468 19.2845 54.3903 19.2881L74.0837 19.5723C74.2042 19.574 74.3239 19.5522 74.436 19.5081C74.548 19.464 74.6502 19.3984 74.7367 19.3152C74.8231 19.2319 74.8922 19.1326 74.94 19.0229C74.9877 18.9132 75.0132 18.7952 75.0149 18.6758C75.0167 18.5563 74.9946 18.4377 74.9501 18.3266C74.9056 18.2156 74.8395 18.1143 74.7554 18.0286C74.6714 17.9429 74.5712 17.8745 74.4605 17.8272C74.3498 17.7799 74.2308 17.7546 74.1102 17.7529L74.1097 17.752Z" fill="white" fill-opacity="0.4"/>
<path d="M70.6394 11.8119L54.501 11.5796C54.2612 11.5817 54.0318 11.6768 53.8618 11.8444C53.6918 12.0121 53.5948 12.239 53.5915 12.4767C53.5881 12.7143 53.6788 12.9438 53.8441 13.1161C54.0093 13.2883 54.2361 13.3896 54.4757 13.3983L70.6141 13.6306C70.7346 13.6324 70.8543 13.6106 70.9664 13.5664C71.0784 13.5223 71.1806 13.4567 71.2671 13.3735C71.3536 13.2902 71.4226 13.1909 71.4704 13.0812C71.5181 12.9715 71.5436 12.8535 71.5453 12.7341C71.5471 12.6146 71.5251 12.496 71.4805 12.3849C71.436 12.2739 71.3699 12.1727 71.2859 12.087C71.2019 12.0013 71.1016 11.9328 70.9909 11.8855C70.8802 11.8382 70.7612 11.8129 70.6406 11.8112L70.6394 11.8119Z" fill="#0084FF"/>
<path d="M70.6394 11.8119L54.501 11.5796C54.2612 11.5817 54.0318 11.6768 53.8618 11.8444C53.6918 12.0121 53.5948 12.239 53.5915 12.4767C53.5881 12.7143 53.6788 12.9438 53.8441 13.1161C54.0093 13.2883 54.2361 13.3896 54.4757 13.3983L70.6141 13.6306C70.7346 13.6324 70.8543 13.6106 70.9664 13.5664C71.0784 13.5223 71.1806 13.4567 71.2671 13.3735C71.3536 13.2902 71.4226 13.1909 71.4704 13.0812C71.5181 12.9715 71.5436 12.8535 71.5453 12.7341C71.5471 12.6146 71.5251 12.496 71.4805 12.3849C71.436 12.2739 71.3699 12.1727 71.2859 12.087C71.2019 12.0013 71.1016 11.9328 70.9909 11.8855C70.8802 11.8382 70.7612 11.8129 70.6406 11.8112L70.6394 11.8119Z" fill="white" fill-opacity="0.4"/>
<path d="M81.9148 11.9759L79.0622 11.936C78.8214 11.9366 78.5905 12.031 78.4192 12.1987C78.2479 12.3664 78.1499 12.5941 78.1464 12.8327C78.1429 13.0713 78.2341 13.3018 78.4003 13.4744C78.5666 13.647 78.7946 13.748 79.0353 13.7556L81.8886 13.7967C82.0105 13.8006 82.1319 13.7803 82.2458 13.7372C82.3597 13.694 82.4638 13.6289 82.552 13.5454C82.6402 13.462 82.7107 13.362 82.7595 13.2513C82.8083 13.1405 82.8344 13.0213 82.8361 12.9004C82.8379 12.7796 82.8154 12.6597 82.7699 12.5476C82.7244 12.4355 82.6569 12.3335 82.5712 12.2475C82.4855 12.1615 82.3834 12.0934 82.2708 12.0469C82.1582 12.0005 82.0374 11.9768 81.9155 11.9771L81.9148 11.9759Z" fill="#0084FF"/>
<path d="M81.9148 11.9759L79.0622 11.936C78.8214 11.9366 78.5905 12.031 78.4192 12.1987C78.2479 12.3664 78.1499 12.5941 78.1464 12.8327C78.1429 13.0713 78.2341 13.3018 78.4003 13.4744C78.5666 13.647 78.7946 13.748 79.0353 13.7556L81.8886 13.7967C82.0105 13.8006 82.1319 13.7803 82.2458 13.7372C82.3597 13.694 82.4638 13.6289 82.552 13.5454C82.6402 13.462 82.7107 13.362 82.7595 13.2513C82.8083 13.1405 82.8344 13.0213 82.8361 12.9004C82.8379 12.7796 82.8154 12.6597 82.7699 12.5476C82.7244 12.4355 82.6569 12.3335 82.5712 12.2475C82.4855 12.1615 82.3834 12.0934 82.2708 12.0469C82.1582 12.0005 82.0374 11.9768 81.9155 11.9771L81.9148 11.9759Z" fill="white" fill-opacity="0.4"/>
<path d="M70.7257 5.92638L54.5873 5.69405C54.3439 5.69056 54.109 5.78306 53.9343 5.95119C53.7597 6.11933 53.6596 6.34933 53.6561 6.5906C53.6526 6.83188 53.7459 7.06465 53.9156 7.23773C54.0852 7.4108 54.3173 7.50999 54.5608 7.51348L70.6989 7.7455C70.82 7.74812 70.9404 7.72697 71.0532 7.68327C71.166 7.63956 71.2689 7.57418 71.3561 7.49087C71.4433 7.40757 71.513 7.30799 71.5611 7.19787C71.6093 7.08776 71.635 6.96929 71.6368 6.84929C71.6386 6.72928 71.6163 6.61012 71.5714 6.49867C71.5265 6.38721 71.4598 6.28566 71.3751 6.19988C71.2904 6.11409 71.1894 6.04575 71.078 5.99881C70.9665 5.95187 70.8468 5.92726 70.7257 5.92638Z" fill="#0084FF"/>
<path d="M70.7257 5.92638L54.5873 5.69405C54.3439 5.69056 54.109 5.78306 53.9343 5.95119C53.7597 6.11933 53.6596 6.34933 53.6561 6.5906C53.6526 6.83188 53.7459 7.06465 53.9156 7.23773C54.0852 7.4108 54.3173 7.50999 54.5608 7.51348L70.6989 7.7455C70.82 7.74812 70.9404 7.72697 71.0532 7.68327C71.166 7.63956 71.2689 7.57418 71.3561 7.49087C71.4433 7.40757 71.513 7.30799 71.5611 7.19787C71.6093 7.08776 71.635 6.96929 71.6368 6.84929C71.6386 6.72928 71.6163 6.61012 71.5714 6.49867C71.5265 6.38721 71.4598 6.28566 71.3751 6.19988C71.2904 6.11409 71.1894 6.04575 71.078 5.99881C70.9665 5.95187 70.8468 5.92726 70.7257 5.92638Z" fill="white" fill-opacity="0.4"/>
<path d="M82.0014 6.08829L79.1481 6.04722C79.0254 6.04182 78.9028 6.06088 78.7877 6.10325C78.6726 6.14563 78.5672 6.21048 78.4778 6.29394C78.3884 6.37741 78.3169 6.4778 78.2673 6.58918C78.2178 6.70055 78.1913 6.82064 78.1895 6.94233C78.1876 7.06403 78.2105 7.18485 78.2566 7.29765C78.3027 7.41045 78.3712 7.51293 78.458 7.59902C78.5448 7.68511 78.6482 7.75307 78.762 7.79886C78.8758 7.84465 78.9977 7.86734 79.1205 7.8656L81.974 7.90698C82.2148 7.90635 82.4457 7.81201 82.617 7.64428C82.7883 7.47656 82.8862 7.24887 82.8898 7.01026C82.8933 6.77165 82.8021 6.54122 82.6358 6.3686C82.4696 6.19598 82.2415 6.09498 82.0009 6.08737L82.0014 6.08829Z" fill="#0084FF"/>
<path d="M82.0014 6.08829L79.1481 6.04722C79.0254 6.04182 78.9028 6.06088 78.7877 6.10325C78.6726 6.14563 78.5672 6.21048 78.4778 6.29394C78.3884 6.37741 78.3169 6.4778 78.2673 6.58918C78.2178 6.70055 78.1913 6.82064 78.1895 6.94233C78.1876 7.06403 78.2105 7.18485 78.2566 7.29765C78.3027 7.41045 78.3712 7.51293 78.458 7.59902C78.5448 7.68511 78.6482 7.75307 78.762 7.79886C78.8758 7.84465 78.9977 7.86734 79.1205 7.8656L81.974 7.90698C82.2148 7.90635 82.4457 7.81201 82.617 7.64428C82.7883 7.47656 82.8862 7.24887 82.8898 7.01026C82.8933 6.77165 82.8021 6.54122 82.6358 6.3686C82.4696 6.19598 82.2415 6.09498 82.0009 6.08737L82.0014 6.08829Z" fill="white" fill-opacity="0.4"/>
<path d="M77.3965 19.0327L43.8808 18.5491C42.9711 18.5358 42.0932 18.8811 41.4404 19.5092C40.7876 20.1373 40.4132 20.9966 40.3997 21.8982L40.0459 45.9845L39.9846 45.9833L41.0584 47.7502L43.2363 46.0304L44.3103 47.7969L46.4863 46.0773L47.56 47.8439L49.7378 46.1241L50.812 47.8909L52.9878 46.171L54.0636 47.9377L56.2395 46.2181L57.3135 47.9846L59.4914 46.2648L60.5651 48.0314L62.7411 46.3118L63.8168 48.0785L65.9928 46.3589L67.0668 48.1254L69.2447 46.4056L70.3183 48.1722L72.4943 46.4526L73.5704 48.2191L75.746 46.499L76.1005 22.3826C76.1169 21.7936 76.359 21.2329 76.7775 20.8144C77.196 20.3959 77.7596 20.151 78.3538 20.1294C78.9479 20.1079 79.5281 20.3112 79.9764 20.6983C80.4247 21.0853 80.7075 21.627 80.7674 22.2132C80.7122 21.36 80.3346 20.5588 79.7099 19.9693C79.0851 19.3799 78.259 19.0454 77.3965 19.0327Z" fill="white"/>
<path d="M80.7764 22.4502L80.6677 29.8373L75.9921 29.7699L76.1008 22.3828C76.1172 21.7938 76.3593 21.2331 76.7778 20.8146C77.1963 20.3961 77.7599 20.1512 78.3541 20.1297C78.9482 20.1081 79.5284 20.3115 79.9767 20.6985C80.425 21.0855 80.7078 21.6272 80.7677 22.2134C80.7713 22.2439 80.7728 22.2764 80.7744 22.3084C80.7757 22.355 80.7771 22.4016 80.7764 22.4502Z" fill="white"/>
<path d="M80.7764 22.4502L80.6677 29.8373L75.9921 29.7699L76.1008 22.3828C76.1172 21.7938 76.3593 21.2331 76.7778 20.8146C77.1963 20.3961 77.7599 20.1512 78.3541 20.1297C78.9482 20.1081 79.5284 20.3115 79.9767 20.6985C80.425 21.0855 80.7078 21.6272 80.7677 22.2134C80.7713 22.2439 80.7728 22.2764 80.7744 22.3084C80.7757 22.355 80.7771 22.4016 80.7764 22.4502Z" fill="#010D1F" fill-opacity="0.2"/>
<path d="M60.5115 24.8917L44.3733 24.6596C44.2514 24.66 44.1306 24.6362 44.018 24.5898C43.9055 24.5434 43.8034 24.4752 43.7177 24.3892C43.632 24.3033 43.5644 24.2013 43.5189 24.0892C43.4734 23.9771 43.4509 23.8571 43.4527 23.7363C43.4545 23.6155 43.4805 23.4962 43.5293 23.3855C43.5781 23.2747 43.6486 23.1747 43.7368 23.0913C43.825 23.0079 43.9291 22.9427 44.043 22.8995C44.1569 22.8564 44.2783 22.8362 44.4002 22.84L60.5384 23.072C60.779 23.0797 61.0071 23.1807 61.1733 23.3533C61.3396 23.5259 61.4308 23.7563 61.4272 23.9949C61.4237 24.2336 61.3258 24.4612 61.1545 24.629C60.9832 24.7967 60.7523 24.891 60.5115 24.8917Z" fill="#0084FF"/>
<path d="M60.5115 24.8917L44.3733 24.6596C44.2514 24.66 44.1306 24.6362 44.018 24.5898C43.9055 24.5434 43.8034 24.4752 43.7177 24.3892C43.632 24.3033 43.5644 24.2013 43.5189 24.0892C43.4734 23.9771 43.4509 23.8571 43.4527 23.7363C43.4545 23.6155 43.4805 23.4962 43.5293 23.3855C43.5781 23.2747 43.6486 23.1747 43.7368 23.0913C43.825 23.0079 43.9291 22.9427 44.043 22.8995C44.1569 22.8564 44.2783 22.8362 44.4002 22.84L60.5384 23.072C60.779 23.0797 61.0071 23.1807 61.1733 23.3533C61.3396 23.5259 61.4308 23.7563 61.4272 23.9949C61.4237 24.2336 61.3258 24.4612 61.1545 24.629C60.9832 24.7967 60.7523 24.891 60.5115 24.8917Z" fill="white" fill-opacity="0.4"/>
<path d="M71.7862 25.0541L68.9328 25.013C68.6894 25.0095 68.4573 24.9103 68.2876 24.7372C68.118 24.5642 68.0246 24.3314 68.0282 24.0901C68.0317 23.8488 68.1318 23.6188 68.3064 23.4507C68.4811 23.2826 68.7159 23.1901 68.9594 23.1936L71.8128 23.2346C72.0562 23.2381 72.2883 23.3373 72.458 23.5104C72.6276 23.6835 72.721 23.9162 72.7174 24.1575C72.7139 24.3988 72.6138 24.6288 72.4392 24.7969C72.2645 24.9651 72.0296 25.0576 71.7862 25.0541Z" fill="#0084FF"/>
<path d="M71.7862 25.0541L68.9328 25.013C68.6894 25.0095 68.4573 24.9103 68.2876 24.7372C68.118 24.5642 68.0246 24.3314 68.0282 24.0901C68.0317 23.8488 68.1318 23.6188 68.3064 23.4507C68.4811 23.2826 68.7159 23.1901 68.9594 23.1936L71.8128 23.2346C72.0562 23.2381 72.2883 23.3373 72.458 23.5104C72.6276 23.6835 72.721 23.9162 72.7174 24.1575C72.7139 24.3988 72.6138 24.6288 72.4392 24.7969C72.2645 24.9651 72.0296 25.0576 71.7862 25.0541Z" fill="white" fill-opacity="0.4"/>
<path d="M63.9811 30.8303L44.2882 30.5462C44.165 30.5487 44.0425 30.5266 43.9282 30.4812C43.8138 30.4358 43.7098 30.3681 43.6224 30.282C43.5349 30.196 43.4659 30.0934 43.4194 29.9803C43.3728 29.8672 43.3497 29.746 43.3515 29.6239C43.3532 29.5019 43.3797 29.3814 43.4294 29.2696C43.4791 29.1579 43.551 29.0572 43.6408 28.9736C43.7306 28.89 43.8365 28.8252 43.9521 28.783C44.0678 28.7408 44.1908 28.7221 44.3138 28.7281L64.0071 29.012C64.129 29.0117 64.2498 29.0355 64.3623 29.0819C64.4749 29.1283 64.577 29.1965 64.6627 29.2824C64.7484 29.3684 64.816 29.4704 64.8615 29.5825C64.907 29.6946 64.9295 29.8146 64.9277 29.9354C64.9259 30.0562 64.8999 30.1755 64.8511 30.2862C64.8023 30.3969 64.7318 30.4969 64.6436 30.5804C64.5554 30.6638 64.4513 30.729 64.3374 30.7721C64.2235 30.8153 64.1021 30.8355 63.9802 30.8316L63.9811 30.8303Z" fill="#0084FF"/>
<path d="M63.9811 30.8303L44.2882 30.5462C44.165 30.5487 44.0425 30.5266 43.9282 30.4812C43.8138 30.4358 43.7098 30.3681 43.6224 30.282C43.5349 30.196 43.4659 30.0934 43.4194 29.9803C43.3728 29.8672 43.3497 29.746 43.3515 29.6239C43.3532 29.5019 43.3797 29.3814 43.4294 29.2696C43.4791 29.1579 43.551 29.0572 43.6408 28.9736C43.7306 28.89 43.8365 28.8252 43.9521 28.783C44.0678 28.7408 44.1908 28.7221 44.3138 28.7281L64.0071 29.012C64.129 29.0117 64.2498 29.0355 64.3623 29.0819C64.4749 29.1283 64.577 29.1965 64.6627 29.2824C64.7484 29.3684 64.816 29.4704 64.8615 29.5825C64.907 29.6946 64.9295 29.8146 64.9277 29.9354C64.9259 30.0562 64.8999 30.1755 64.8511 30.2862C64.8023 30.3969 64.7318 30.4969 64.6436 30.5804C64.5554 30.6638 64.4513 30.729 64.3374 30.7721C64.2235 30.8153 64.1021 30.8355 63.9802 30.8316L63.9811 30.8303Z" fill="white" fill-opacity="0.4"/>
<path d="M71.6995 30.9417L68.8462 30.9006C68.7243 30.9009 68.6035 30.8772 68.4909 30.8308C68.3784 30.7843 68.2763 30.7162 68.1906 30.6302C68.1049 30.5442 68.0373 30.4422 67.9918 30.3301C67.9463 30.218 67.9238 30.0981 67.9256 29.9773C67.9274 29.8564 67.9534 29.7372 68.0022 29.6264C68.051 29.5157 68.1215 29.4157 68.2097 29.3323C68.2979 29.2488 68.402 29.1837 68.5159 29.1405C68.6298 29.0974 68.7512 29.0771 68.8731 29.081L71.7273 29.1216C71.968 29.1292 72.196 29.2302 72.3623 29.4028C72.5286 29.5754 72.6198 29.8058 72.6162 30.0445C72.6127 30.2831 72.5148 30.5108 72.3435 30.6785C72.1722 30.8462 71.9413 30.9405 71.7005 30.9412L71.6995 30.9417Z" fill="#0084FF"/>
<path d="M71.6995 30.9417L68.8462 30.9006C68.7243 30.9009 68.6035 30.8772 68.4909 30.8308C68.3784 30.7843 68.2763 30.7162 68.1906 30.6302C68.1049 30.5442 68.0373 30.4422 67.9918 30.3301C67.9463 30.218 67.9238 30.0981 67.9256 29.9773C67.9274 29.8564 67.9534 29.7372 68.0022 29.6264C68.051 29.5157 68.1215 29.4157 68.2097 29.3323C68.2979 29.2488 68.402 29.1837 68.5159 29.1405C68.6298 29.0974 68.7512 29.0771 68.8731 29.081L71.7273 29.1216C71.968 29.1292 72.196 29.2302 72.3623 29.4028C72.5286 29.5754 72.6198 29.8058 72.6162 30.0445C72.6127 30.2831 72.5148 30.5108 72.3435 30.6785C72.1722 30.8462 71.9413 30.9405 71.7005 30.9412L71.6995 30.9417Z" fill="white" fill-opacity="0.4"/>
<path d="M60.3386 36.6664L44.2016 36.4337C43.9582 36.4302 43.7261 36.331 43.5564 36.1579C43.3868 35.9848 43.2934 35.752 43.297 35.5108C43.3005 35.2695 43.4006 35.0395 43.5752 34.8714C43.7499 34.7032 43.9847 34.6107 44.2282 34.6142L60.3664 34.8462C60.4869 34.848 60.606 34.8732 60.7167 34.9205C60.8274 34.9678 60.9276 35.0363 61.0116 35.122C61.0956 35.2077 61.1618 35.3089 61.2063 35.42C61.2508 35.531 61.2728 35.6497 61.2711 35.7691C61.2693 35.8886 61.2439 36.0065 61.1961 36.1162C61.1484 36.226 61.0793 36.3253 60.9928 36.4085C60.9063 36.4918 60.8042 36.5573 60.6921 36.6015C60.5801 36.6456 60.4604 36.6674 60.3398 36.6657L60.3386 36.6664Z" fill="#0084FF"/>
<path d="M60.3386 36.6664L44.2016 36.4337C43.9582 36.4302 43.7261 36.331 43.5564 36.1579C43.3868 35.9848 43.2934 35.752 43.297 35.5108C43.3005 35.2695 43.4006 35.0395 43.5752 34.8714C43.7499 34.7032 43.9847 34.6107 44.2282 34.6142L60.3664 34.8462C60.4869 34.848 60.606 34.8732 60.7167 34.9205C60.8274 34.9678 60.9276 35.0363 61.0116 35.122C61.0956 35.2077 61.1618 35.3089 61.2063 35.42C61.2508 35.531 61.2728 35.6497 61.2711 35.7691C61.2693 35.8886 61.2439 36.0065 61.1961 36.1162C61.1484 36.226 61.0793 36.3253 60.9928 36.4085C60.9063 36.4918 60.8042 36.5573 60.6921 36.6015C60.5801 36.6456 60.4604 36.6674 60.3398 36.6657L60.3386 36.6664Z" fill="white" fill-opacity="0.4"/>
<path d="M71.613 36.8289L68.7596 36.7878C68.519 36.7802 68.2909 36.6792 68.1247 36.5066C67.9584 36.334 67.8672 36.1035 67.8708 35.8649C67.8743 35.6263 67.9722 35.3986 68.1435 35.2309C68.3148 35.0632 68.5457 34.9689 68.7865 34.9682L71.6391 35.0081C71.7611 35.0077 71.8818 35.0315 71.9944 35.0779C72.107 35.1243 72.2091 35.1925 72.2948 35.2785C72.3805 35.3644 72.448 35.4664 72.4935 35.5785C72.539 35.6906 72.5615 35.8106 72.5598 35.9314C72.558 36.0522 72.5319 36.1715 72.4831 36.2822C72.4344 36.393 72.3638 36.493 72.2756 36.5764C72.1874 36.6598 72.0833 36.725 71.9694 36.7681C71.8555 36.8113 71.7341 36.8315 71.6123 36.8277L71.613 36.8289Z" fill="#0084FF"/>
<path d="M71.613 36.8289L68.7596 36.7878C68.519 36.7802 68.2909 36.6792 68.1247 36.5066C67.9584 36.334 67.8672 36.1035 67.8708 35.8649C67.8743 35.6263 67.9722 35.3986 68.1435 35.2309C68.3148 35.0632 68.5457 34.9689 68.7865 34.9682L71.6391 35.0081C71.7611 35.0077 71.8818 35.0315 71.9944 35.0779C72.107 35.1243 72.2091 35.1925 72.2948 35.2785C72.3805 35.3644 72.448 35.4664 72.4935 35.5785C72.539 35.6906 72.5615 35.8106 72.5598 35.9314C72.558 36.0522 72.5319 36.1715 72.4831 36.2822C72.4344 36.393 72.3638 36.493 72.2756 36.5764C72.1874 36.6598 72.0833 36.725 71.9694 36.7681C71.8555 36.8113 71.7341 36.8315 71.6123 36.8277L71.613 36.8289Z" fill="white" fill-opacity="0.4"/>
<path d="M60.2517 42.5533L44.1135 42.3213C43.9916 42.3216 43.8708 42.2978 43.7583 42.2514C43.6457 42.205 43.5436 42.1368 43.4579 42.0509C43.3722 41.9649 43.3046 41.8629 43.2591 41.7508C43.2136 41.6387 43.1911 41.5187 43.1929 41.3979C43.1947 41.2771 43.2207 41.1578 43.2695 41.0471C43.3183 40.9364 43.3889 40.8364 43.4771 40.7529C43.5653 40.6695 43.6693 40.6043 43.7832 40.5612C43.8971 40.518 44.0185 40.4978 44.1404 40.5016L60.2786 40.7337C60.5193 40.7413 60.7473 40.8423 60.9136 41.0149C61.0798 41.1875 61.171 41.418 61.1675 41.6566C61.164 41.8952 61.066 42.1229 60.8947 42.2906C60.7234 42.4583 60.4925 42.5527 60.2517 42.5533Z" fill="#0084FF"/>
<path d="M60.2517 42.5533L44.1135 42.3213C43.9916 42.3216 43.8708 42.2978 43.7583 42.2514C43.6457 42.205 43.5436 42.1368 43.4579 42.0509C43.3722 41.9649 43.3046 41.8629 43.2591 41.7508C43.2136 41.6387 43.1911 41.5187 43.1929 41.3979C43.1947 41.2771 43.2207 41.1578 43.2695 41.0471C43.3183 40.9364 43.3889 40.8364 43.4771 40.7529C43.5653 40.6695 43.6693 40.6043 43.7832 40.5612C43.8971 40.518 44.0185 40.4978 44.1404 40.5016L60.2786 40.7337C60.5193 40.7413 60.7473 40.8423 60.9136 41.0149C61.0798 41.1875 61.171 41.418 61.1675 41.6566C61.164 41.8952 61.066 42.1229 60.8947 42.2906C60.7234 42.4583 60.4925 42.5527 60.2517 42.5533Z" fill="white" fill-opacity="0.4"/>
<path d="M71.5267 42.7162L68.6733 42.6751C68.5528 42.6734 68.4337 42.6481 68.323 42.6008C68.2123 42.5535 68.1121 42.4851 68.0281 42.3994C67.9441 42.3137 67.8779 42.2124 67.8334 42.1014C67.7889 41.9903 67.7669 41.8717 67.7686 41.7522C67.7704 41.6328 67.7958 41.5148 67.8436 41.4051C67.8913 41.2954 67.9604 41.1961 68.0469 41.1128C68.1334 41.0296 68.2355 40.964 68.3476 40.9199C68.4596 40.8758 68.5793 40.8539 68.6999 40.8557L71.5532 40.8968C71.6738 40.8985 71.7928 40.9237 71.9035 40.971C72.0142 41.0184 72.1144 41.0868 72.1984 41.1725C72.2825 41.2582 72.3486 41.3595 72.3931 41.4705C72.4377 41.5815 72.4597 41.7002 72.4579 41.8196C72.4562 41.9391 72.4307 42.0571 72.383 42.1668C72.3352 42.2765 72.2661 42.3758 72.1797 42.4591C72.0932 42.5423 71.991 42.6079 71.879 42.652C71.7669 42.6961 71.6472 42.7179 71.5267 42.7162Z" fill="#0084FF"/>
<path d="M71.5267 42.7162L68.6733 42.6751C68.5528 42.6734 68.4337 42.6481 68.323 42.6008C68.2123 42.5535 68.1121 42.4851 68.0281 42.3994C67.9441 42.3137 67.8779 42.2124 67.8334 42.1014C67.7889 41.9903 67.7669 41.8717 67.7686 41.7522C67.7704 41.6328 67.7958 41.5148 67.8436 41.4051C67.8913 41.2954 67.9604 41.1961 68.0469 41.1128C68.1334 41.0296 68.2355 40.964 68.3476 40.9199C68.4596 40.8758 68.5793 40.8539 68.6999 40.8557L71.5532 40.8968C71.6738 40.8985 71.7928 40.9237 71.9035 40.971C72.0142 41.0184 72.1144 41.0868 72.1984 41.1725C72.2825 41.2582 72.3486 41.3595 72.3931 41.4705C72.4377 41.5815 72.4597 41.7002 72.4579 41.8196C72.4562 41.9391 72.4307 42.0571 72.383 42.1668C72.3352 42.2765 72.2661 42.3758 72.1797 42.4591C72.0932 42.5423 71.991 42.6079 71.879 42.652C71.7669 42.6961 71.6472 42.7179 71.5267 42.7162Z" fill="white" fill-opacity="0.4"/>
</g>
<path d="M87.8062 67.0389C87.8062 67.5704 87.5012 68 87.1267 68H0.872756C0.781888 67.9991 0.692176 67.9737 0.609432 67.9253C0.526688 67.8768 0.452755 67.8066 0.392423 67.719C0.263344 67.5322 0.192597 67.2904 0.193864 67.0402C0.193864 66.5101 0.498286 66.0791 0.872756 66.0791H87.1267C87.2177 66.0799 87.3075 66.1054 87.3902 66.1539C87.473 66.2025 87.5469 66.273 87.6071 66.3608C87.7364 66.5472 87.8074 66.7889 87.8062 67.0389Z" fill="#0084FF"/>
<path d="M87.8062 67.0389C87.8062 67.5704 87.5012 68 87.1267 68H0.872756C0.781888 67.9991 0.692176 67.9737 0.609432 67.9253C0.526688 67.8768 0.452755 67.8066 0.392423 67.719C0.263344 67.5322 0.192597 67.2904 0.193864 67.0402C0.193864 66.5101 0.498286 66.0791 0.872756 66.0791H87.1267C87.2177 66.0799 87.3075 66.1054 87.3902 66.1539C87.473 66.2025 87.5469 66.273 87.6071 66.3608C87.7364 66.5472 87.8074 66.7889 87.8062 67.0389Z" fill="white" fill-opacity="0.4"/>
<g clip-path="url(#clip2_1272_16740)">
<path d="M62.4141 37.5314V63.0293C62.4147 63.6823 62.2855 64.3289 62.0338 64.9323C61.7821 65.5356 61.413 66.0838 60.9475 66.5455C60.4819 67.0072 59.9292 67.3733 59.3208 67.6228C58.7125 67.8724 58.0605 68.0005 57.4022 67.9999H20.9054C20.2473 67.9999 19.5956 67.8713 18.9876 67.6215C18.3796 67.3717 17.8272 67.0056 17.3619 66.544C16.8965 66.0825 16.5274 65.5345 16.2756 64.9315C16.0238 64.3284 15.8942 63.6821 15.8943 63.0293V37.5314C15.8943 36.2133 16.4222 34.9491 17.362 34.017C18.3018 33.0849 19.5764 32.5613 20.9054 32.5613H57.4022C58.7311 32.5616 60.0055 33.0853 60.9452 34.0174C61.8849 34.9494 62.413 36.2134 62.4133 37.5314H62.4141Z" fill="white"/>
<path d="M62.4141 37.5314V63.0293C62.4147 63.6823 62.2855 64.3289 62.0338 64.9323C61.7821 65.5356 61.413 66.0838 60.9475 66.5455C60.4819 67.0072 59.9292 67.3733 59.3208 67.6228C58.7125 67.8724 58.0605 68.0005 57.4022 67.9999H20.9054C20.2473 67.9999 19.5956 67.8713 18.9876 67.6215C18.3796 67.3717 17.8272 67.0056 17.3619 66.544C16.8965 66.0825 16.5274 65.5345 16.2756 64.9315C16.0238 64.3284 15.8942 63.6821 15.8943 63.0293V37.5314C15.8943 36.2133 16.4222 34.9491 17.362 34.017C18.3018 33.0849 19.5764 32.5613 20.9054 32.5613H57.4022C58.7311 32.5616 60.0055 33.0853 60.9452 34.0174C61.8849 34.9494 62.413 36.2134 62.4133 37.5314H62.4141Z" fill="#010D1F" fill-opacity="0.4"/>
<path opacity="0.1" d="M43.9863 42.7269C43.9863 53.9919 34.776 63.1268 23.4182 63.1268C20.8433 63.1299 18.2909 62.6522 15.8943 61.7185L15.8943 37.5314C15.8943 36.2133 16.4222 34.9491 17.362 34.017C18.3018 33.0849 19.5764 32.5613 20.9054 32.5613H41.2533C43.0489 35.6528 43.9915 39.159 43.9863 42.7269Z" fill="white"/>
<path d="M55.7646 50.2807C55.7646 56.8669 50.3809 62.2061 43.7413 62.2061C38.9954 62.2061 34.8913 59.4787 32.9361 55.5175C32.1319 53.8871 31.7151 52.0957 31.7177 50.2807C31.7177 43.6945 37.1009 38.3557 43.7413 38.3557C45.5711 38.353 47.3772 38.7662 49.0209 39.5637C53.0147 41.503 55.7646 45.5731 55.7646 50.2807Z" fill="#010D1F"/>
<path d="M52.9743 50.2808C52.9743 55.3386 48.8404 59.4382 43.7414 59.4382C42.5289 59.4383 41.3282 59.2014 40.208 58.7412C39.0878 58.2811 38.0699 57.6065 37.2126 56.7562C36.3552 55.9058 35.6751 54.8963 35.2111 53.7852C34.7471 52.6742 34.5084 51.4833 34.5084 50.2808C34.5084 45.2234 38.6419 41.1233 43.7414 41.1233C44.9539 41.1232 46.1545 41.3601 47.2747 41.8203C48.3949 42.2804 49.4128 42.955 50.2701 43.8053C51.1275 44.6557 51.8076 45.6652 52.2716 46.7763C52.7356 47.8873 52.9743 49.0782 52.9743 50.2808Z" fill="#0084FF"/>
<path d="M52.9743 50.2808C52.9743 55.3386 48.8404 59.4382 43.7414 59.4382C42.5289 59.4383 41.3282 59.2014 40.208 58.7412C39.0878 58.2811 38.0699 57.6065 37.2126 56.7562C36.3552 55.9058 35.6751 54.8963 35.2111 53.7852C34.7471 52.6742 34.5084 51.4833 34.5084 50.2808C34.5084 45.2234 38.6419 41.1233 43.7414 41.1233C44.9539 41.1232 46.1545 41.3601 47.2747 41.8203C48.3949 42.2804 49.4128 42.955 50.2701 43.8053C51.1275 44.6557 51.8076 45.6652 52.2716 46.7763C52.7356 47.8873 52.9743 49.0782 52.9743 50.2808Z" fill="white" fill-opacity="0.4"/>
<g opacity="0.1">
<path opacity="0.1" d="M49.8957 50.2809C49.8957 53.6465 47.1351 56.3845 43.7418 56.3845C42.1097 56.3845 40.5444 55.7414 39.3903 54.5968C38.2362 53.4521 37.5879 51.8996 37.5879 50.2809C37.5879 46.9149 40.3489 44.1772 43.7418 44.1772C45.3739 44.1772 46.9392 44.8203 48.0933 45.965C49.2473 47.1096 49.8957 48.6621 49.8957 50.2809Z" fill="#29BEFF"/>
</g>
<path opacity="0.3" d="M46.7757 50.2808C46.7761 50.9842 46.528 51.6655 46.0746 52.2064C45.6212 52.7473 44.9911 53.1136 44.2937 53.2416C43.5964 53.3697 42.8758 53.2514 42.2572 52.9074C41.6386 52.5634 41.1611 52.0153 40.9075 51.3584C40.6539 50.7015 40.6404 49.9772 40.8691 49.3114C41.0979 48.6456 41.5546 48.0803 42.1599 47.7137C42.7652 47.3472 43.4808 47.2024 44.1825 47.3047C44.8842 47.407 45.5275 47.7498 46.0009 48.2736C46.4995 48.8252 46.7753 49.5399 46.7757 50.2808Z" fill="#29BEFF"/>
<path opacity="0.16" d="M50.2393 44.8006C50.2393 51.3867 44.8561 56.7259 38.216 56.7259C36.3861 56.7285 34.5799 56.3151 32.9361 55.5175C32.1319 53.8871 31.7151 52.0957 31.7177 50.2807C31.7177 43.6945 37.1009 38.3557 43.7413 38.3557C45.5711 38.353 47.3772 38.7662 49.0209 39.5637C49.825 41.1941 50.2418 42.9856 50.2393 44.8006Z" fill="white"/>
<path opacity="0.2" d="M50.6163 44.1681C48.9243 42.6594 46.7286 41.8262 44.4533 41.8295C39.3534 41.8295 35.22 45.9296 35.22 50.9862C35.216 53.2434 36.0559 55.4219 37.5775 57.1004C36.6101 56.2424 35.8365 55.1913 35.3073 54.0161C34.7781 52.8408 34.5053 51.5679 34.5067 50.2808C34.5067 45.2234 38.6402 41.1233 43.7396 41.1233C45.0375 41.1216 46.321 41.392 47.5061 41.9168C48.6912 42.4415 49.7511 43.2087 50.6163 44.1681Z" fill="black"/>
<path opacity="0.5" d="M41.0393 51.5372C42.5316 51.5372 43.7413 50.3374 43.7413 48.8573C43.7413 47.3773 42.5316 46.1775 41.0393 46.1775C39.5471 46.1775 38.3374 47.3773 38.3374 48.8573C38.3374 50.3374 39.5471 51.5372 41.0393 51.5372Z" fill="white"/>
<path d="M28.6523 31.1187H21.5964C21.3671 31.1187 21.1813 31.303 21.1813 31.5303V32.1497C21.1813 32.3771 21.3671 32.5614 21.5964 32.5614H28.6523C28.8815 32.5614 29.0674 32.3771 29.0674 32.1497V31.5303C29.0674 31.303 28.8815 31.1187 28.6523 31.1187Z" fill="#7B8491"/>
<path d="M28.6523 31.1187H21.5964C21.3671 31.1187 21.1813 31.303 21.1813 31.5303V31.6991C21.1813 31.9265 21.3671 32.1108 21.5964 32.1108H28.6523C28.8815 32.1108 29.0674 31.9265 29.0674 31.6991V31.5303C29.0674 31.303 28.8815 31.1187 28.6523 31.1187Z" fill="white"/>
<path d="M28.6523 31.1187H21.5964C21.3671 31.1187 21.1813 31.303 21.1813 31.5303V31.6991C21.1813 31.9265 21.3671 32.1108 21.5964 32.1108H28.6523C28.8815 32.1108 29.0674 31.9265 29.0674 31.6991V31.5303C29.0674 31.303 28.8815 31.1187 28.6523 31.1187Z" fill="#010D1F" fill-opacity="0.4"/>
<path d="M30.8912 39.1196H22.0077C21.5513 39.1196 21.1813 39.4866 21.1813 39.9393V39.9397C21.1813 40.3924 21.5513 40.7594 22.0077 40.7594H30.8912C31.3477 40.7594 31.7177 40.3924 31.7177 39.9397V39.9393C31.7177 39.4866 31.3477 39.1196 30.8912 39.1196Z" fill="#7B8491"/>
<path d="M30.5914 40.4964H21.8768C21.6928 40.4964 21.5163 40.4239 21.3862 40.2948C21.2561 40.1658 21.183 39.9907 21.183 39.8082C21.183 39.6257 21.2561 39.4506 21.3862 39.3215C21.5163 39.1923 21.6928 39.1197 21.8768 39.1196H30.5914C30.7755 39.1197 30.952 39.1923 31.0821 39.3215C31.2122 39.4506 31.2853 39.6257 31.2853 39.8082C31.2853 39.9907 31.2122 40.1658 31.0821 40.2948C30.952 40.4239 30.7755 40.4964 30.5914 40.4964Z" fill="white"/>
</g>
</g>
<defs>
<clipPath id="clip0_1272_16740">
<rect width="88" height="68" fill="white"/>
</clipPath>
<clipPath id="clip1_1272_16740">
<rect width="63.553" height="55.6235" fill="white" transform="matrix(0.867969 -0.496618 0.50339 0.86406 21.7454 16.3157)"/>
</clipPath>
<clipPath id="clip2_1272_16740">
<rect width="46.5198" height="36.8814" fill="white" transform="translate(15.8943 31.1187)"/>
</clipPath>
</defs>
</svg>
