<svg
    width="417"
    height="890"
    viewBox="0 0 417 900"
    fill="none"
    xmlns="http://www.w3.org/2000/svg"
>
    <g clip-path="url(#clip0_26:23)">
        <rect
            width="415.64"
            height="900"
            transform="translate(0.67981)"
            fill="url(#paint0_radial_26:23)"
        />
        <g clip-path="url(#clip1_26:23)">
            <g opacity="0.2" filter="url(#filter0_ddd_26:23)">
                <path
                    d="M254.812 634.379C124.932 731.874 98.6031 916.47 196.042 1046.42C293.481 1176.38 477.972 1202.72 607.852 1105.23C737.732 1007.73 764.061 823.137 666.622 693.183C569.183 563.229 384.692 536.885 254.812 634.379ZM572.009 988.273L605.724 1033.24L542.902 1080.4L508.833 1034.96C462.244 1056.69 408.71 1056.4 371.877 1012.67L417.993 978.053C438.881 1001.01 470.296 1007.59 513.355 975.273C559.471 940.655 552.525 909.812 541.757 895.451C527.106 875.911 502.985 865.32 441.16 892.228C372.217 921.905 314.212 927.917 278.026 879.655C247.664 839.162 260.599 788.245 294.538 749.155L260.47 703.718L323.292 656.561L357.713 702.468C409.421 680.211 456.192 696.98 484.611 731.94L438.494 766.558C417.724 741.309 390.427 733.837 353.251 761.743C317.957 788.236 308.785 820.141 325.731 842.742C340.558 862.517 365.561 863.985 422.268 840.55C478.976 817.115 545.156 799.447 589.639 858.773C621.707 902.033 607.124 949.772 572.009 988.273Z"
                    fill="#0084FF"
                />
                <path
                    d="M254.812 634.379C124.932 731.874 98.6031 916.47 196.042 1046.42C293.481 1176.38 477.972 1202.72 607.852 1105.23C737.732 1007.73 764.061 823.137 666.622 693.183C569.183 563.229 384.692 536.885 254.812 634.379ZM572.009 988.273L605.724 1033.24L542.902 1080.4L508.833 1034.96C462.244 1056.69 408.71 1056.4 371.877 1012.67L417.993 978.053C438.881 1001.01 470.296 1007.59 513.355 975.273C559.471 940.655 552.525 909.812 541.757 895.451C527.106 875.911 502.985 865.32 441.16 892.228C372.217 921.905 314.212 927.917 278.026 879.655C247.664 839.162 260.599 788.245 294.538 749.155L260.47 703.718L323.292 656.561L357.713 702.468C409.421 680.211 456.192 696.98 484.611 731.94L438.494 766.558C417.724 741.309 390.427 733.837 353.251 761.743C317.957 788.236 308.785 820.141 325.731 842.742C340.558 862.517 365.561 863.985 422.268 840.55C478.976 817.115 545.156 799.447 589.639 858.773C621.707 902.033 607.124 949.772 572.009 988.273Z"
                    fill="black"
                    fill-opacity="0.4"
                />
            </g>
            <g opacity="0.5">
                <path
                    d="M67.0733 605.574C102.088 633.939 107.497 685.394 79.1473 720.429C50.7979 755.463 -0.627752 760.875 -35.6421 732.51C-70.6564 704.144 -76.0656 652.689 -47.7162 617.655C-19.3667 582.62 32.0589 577.208 67.0733 605.574ZM66.0104 678.264L61.7844 638.065L21.6081 642.293L37.4661 655.14L16.923 680.527L29.6094 690.805L50.1524 665.417L66.0104 678.264ZM-34.5792 659.819L-30.3532 700.018L9.82305 695.79L-6.03488 682.943L14.5082 657.556L1.82183 647.279L-18.7212 672.666L-34.5792 659.819Z"
                    fill="#0084FF"
                />
                <path
                    d="M67.0733 605.574C102.088 633.939 107.497 685.394 79.1473 720.429C50.7979 755.463 -0.627752 760.875 -35.6421 732.51C-70.6564 704.144 -76.0656 652.689 -47.7162 617.655C-19.3667 582.62 32.0589 577.208 67.0733 605.574ZM66.0104 678.264L61.7844 638.065L21.6081 642.293L37.4661 655.14L16.923 680.527L29.6094 690.805L50.1524 665.417L66.0104 678.264ZM-34.5792 659.819L-30.3532 700.018L9.82305 695.79L-6.03488 682.943L14.5082 657.556L1.82183 647.279L-18.7212 672.666L-34.5792 659.819Z"
                    fill="black"
                    fill-opacity="0.4"
                />
            </g>
            <g opacity="0.1" filter="url(#filter1_dd_26:23)">
                <rect
                    x="-121.241"
                    y="93.1035"
                    width="191.749"
                    height="89.7783"
                    rx="44.8892"
                    fill="white"
                />
            </g>
            <g opacity="0.1" filter="url(#filter2_ddd_26:23)">
                <path
                    fill-rule="evenodd"
                    clip-rule="evenodd"
                    d="M-230.715 -382.476C-231.537 -427.464 -193.862 -511.304 -108.57 -596.645C-86.9101 -617.904 -65.5764 -639.383 -41.8636 -658.41C57.3644 -734.788 174.829 -716.877 279.836 -608.489L624.768 -263.361L577.807 -216.374C572.926 -211.49 567.131 -207.616 560.754 -204.972C554.377 -202.328 547.542 -200.967 540.64 -200.966C533.738 -200.964 526.903 -202.324 520.528 -204.966C514.151 -207.608 508.357 -211.48 503.478 -216.363L492.979 -226.867C493.531 -173.175 475.2 -120.992 441.192 -79.4439L393.568 -31.7925C360.136 4.15804 321.002 34.34 277.747 57.5374C228.633 79.7897 129.082 96.0735 14.1243 -43.8544C-17.934 -80.9553 -34.4003 -129.031 -31.826 -178.017C-29.2521 -227.001 -7.83719 -273.096 27.9344 -306.648L221.751 -500.575L155.395 -566.968C94.0155 -628.382 20.0079 -560.308 20.0079 -560.308C3.49942 -546.796 -11.0615 -531.212 -26.1227 -516.143C-39.0659 -503.192 -52.1753 -489.079 -64.9527 -474.303C-90.6259 -441.633 -109.629 -404.233 -120.882 -364.231C-122.602 -358.494 -125.676 -353.256 -129.844 -348.957C-134.107 -344.67 -139.389 -341.536 -145.193 -339.852C-150.998 -338.167 -157.135 -337.985 -163.027 -339.323L-202.514 -347.95C-210.456 -349.604 -217.588 -353.934 -222.721 -360.218C-227.854 -366.502 -230.675 -374.359 -230.715 -382.476ZM256.693 -59.8276C281.915 -82.4082 305.977 -106.483 324.396 -124.913C359.781 -160.319 383.246 -201.382 387.71 -252.437C390.669 -286.283 385.173 -320.333 371.714 -351.522L300.051 -423.226L106.732 -229.798C99.9466 -223.008 56.948 -166.043 99.2496 -120.729C115.697 -101.498 133.611 -83.5732 152.832 -67.1166C178.365 -45.2546 231.405 -35.8739 256.693 -59.8276Z"
                    fill="white"
                />
            </g>
            <path
                opacity="0.2"
                d="M65.1838 400.224L-2.71113 338.065C-7.42134 333.753 -14.6256 334.121 -18.9535 338.843L-65.7834 389.856C-70.1112 394.578 -69.8046 401.822 -65.0944 406.134L2.80056 468.293C7.51077 472.606 14.7575 472.277 19.0853 467.555L65.8728 416.503C70.2006 411.78 69.8941 404.537 65.1838 400.224ZM10.5985 459.785L-57.2965 397.626L-33.9028 372.1L33.9922 434.259L10.5985 459.785ZM49.588 417.242L-18.3069 355.083L-10.509 346.574L57.3859 408.733L49.588 417.242Z"
                fill="white"
            />
            <path
                opacity="0.2"
                d="M260.811 447.118C205.313 502.578 115.332 502.578 59.8342 447.118"
                stroke="white"
                stroke-width="6.65025"
                stroke-linecap="round"
            />
            <g opacity="0.5">
                <path
                    d="M308.223 413.04L301.165 407.297C302.05 404.763 301.348 401.834 299.152 400.048C296.957 398.262 293.945 398.168 291.641 399.549L284.583 393.806C282.725 392.295 279.968 392.577 278.456 394.433L259.209 418.057C257.697 419.914 257.979 422.669 259.837 424.18L283.477 443.414C285.334 444.925 288.091 444.643 289.604 442.786L308.851 419.162C310.363 417.306 310.08 414.551 308.223 413.04ZM296.403 403.423C297.332 404.179 297.473 405.556 296.717 406.484C295.961 407.412 294.582 407.553 293.653 406.798C292.725 406.042 292.583 404.665 293.339 403.737C294.096 402.808 295.474 402.667 296.403 403.423ZM273.779 424.299L272.523 412.054L276.843 411.612L277.669 419.524L297.857 417.457L298.286 421.791L273.779 424.299Z"
                    fill="#0084FF"
                />
                <path
                    d="M308.223 413.04L301.165 407.297C302.05 404.763 301.348 401.834 299.152 400.048C296.957 398.262 293.945 398.168 291.641 399.549L284.583 393.806C282.725 392.295 279.968 392.577 278.456 394.433L259.209 418.057C257.697 419.914 257.979 422.669 259.837 424.18L283.477 443.414C285.334 444.925 288.091 444.643 289.604 442.786L308.851 419.162C310.363 417.306 310.08 414.551 308.223 413.04ZM296.403 403.423C297.332 404.179 297.473 405.556 296.717 406.484C295.961 407.412 294.582 407.553 293.653 406.798C292.725 406.042 292.583 404.665 293.339 403.737C294.096 402.808 295.474 402.667 296.403 403.423ZM273.779 424.299L272.523 412.054L276.843 411.612L277.669 419.524L297.857 417.457L298.286 421.791L273.779 424.299Z"
                    fill="black"
                    fill-opacity="0.4"
                />
            </g>
            <path
                opacity="0.2"
                fill-rule="evenodd"
                clip-rule="evenodd"
                d="M364.376 148.643C356.346 148.643 349.836 142.133 349.836 134.103C349.836 126.073 356.346 119.564 364.376 119.564L482.692 119.564C490.722 119.564 497.232 126.073 497.232 134.103C497.232 142.133 490.722 148.643 482.692 148.643L364.376 148.643ZM370.263 125.379H366.184L366.563 131.418L361.649 128.032L359.617 131.714L364.91 134.367L359.617 137.02L361.649 140.703L366.563 137.316L366.184 143.355H370.263L369.869 137.316L374.782 140.703L376.814 137.02L371.537 134.367L376.814 131.714L374.782 128.032L369.869 131.418L370.263 125.379ZM394.367 125.379H390.288L390.667 131.418L385.754 128.032L383.722 131.714L389.014 134.367L383.722 137.02L385.754 140.703L390.667 137.316L390.288 143.355H394.367L393.973 137.316L398.886 140.703L400.918 137.02L395.641 134.367L400.918 131.714L398.886 128.032L393.973 131.418L394.367 125.379ZM414.392 125.379H418.471L418.077 131.418L422.99 128.032L425.022 131.714L419.745 134.367L425.022 137.02L422.99 140.703L418.077 137.316L418.471 143.355H414.392L414.771 137.316L409.858 140.703L407.826 137.02L413.118 134.367L407.826 131.714L409.858 128.032L414.771 131.418L414.392 125.379ZM442.575 125.379H438.496L438.875 131.418L433.962 128.032L431.93 131.714L437.222 134.367L431.93 137.02L433.962 140.703L438.875 137.316L438.496 143.355H442.575L442.181 137.316L447.095 140.703L449.127 137.02L443.849 134.367L449.127 131.714L447.095 128.032L442.181 131.418L442.575 125.379Z"
                fill="white"
            />
            <g opacity="0.5">
                <path
                    d="M317.963 114.717C307.114 114.717 298.31 123.406 298.31 134.113C298.31 144.82 307.114 153.51 317.963 153.51C328.811 153.51 337.615 144.82 337.615 134.113C337.615 123.406 328.811 114.717 317.963 114.717V114.717ZM325.057 127.014C327.16 127.014 328.85 128.682 328.85 130.758C328.85 132.833 327.16 134.501 325.057 134.501C322.954 134.501 321.264 132.833 321.264 130.758C321.245 128.682 322.954 127.014 325.057 127.014V127.014ZM313.266 123.95C315.821 123.95 317.904 126.006 317.904 128.527C317.904 131.049 315.821 133.105 313.266 133.105C310.711 133.105 308.628 131.049 308.628 128.527C308.628 125.986 310.691 123.95 313.266 123.95ZM313.266 141.659V148.932C308.549 147.478 304.815 143.889 303.164 139.312C305.228 137.139 310.377 136.034 313.266 136.034C314.307 136.034 315.624 136.189 317 136.46C313.777 138.148 313.266 140.378 313.266 141.659ZM317.963 149.631C317.432 149.631 316.921 149.611 316.41 149.553V141.659C316.41 138.904 322.188 137.527 325.057 137.527C327.16 137.527 330.796 138.284 332.604 139.758C330.305 145.519 324.625 149.631 317.963 149.631V149.631Z"
                    fill="#010D1F"
                    fill-opacity="0.54"
                />
            </g>
            <path
                opacity="0.2"
                fill-rule="evenodd"
                clip-rule="evenodd"
                d="M317.9 153.489C328.754 153.489 337.553 144.81 337.553 134.103C337.553 123.396 328.754 114.717 317.9 114.717C307.046 114.717 298.247 123.396 298.247 134.103C298.247 144.81 307.046 153.489 317.9 153.489ZM317.9 155.912C330.111 155.912 340.009 146.148 340.009 134.103C340.009 122.058 330.111 112.293 317.9 112.293C305.689 112.293 295.791 122.058 295.791 134.103C295.791 146.148 305.689 155.912 317.9 155.912Z"
                fill="white"
            />
        </g>
    </g>
    <defs>
        <filter
            id="filter0_ddd_26:23"
            x="110.611"
            y="557.782"
            width="641.442"
            height="641.777"
            filterUnits="userSpaceOnUse"
            color-interpolation-filters="sRGB"
        >
            <feFlood flood-opacity="0" result="BackgroundImageFix" />
            <feColorMatrix
                in="SourceAlpha"
                type="matrix"
                values="0 0 0 0 0 0 0 0 0 0 0 0 0 0 0 0 0 0 127 0"
                result="hardAlpha"
            />
            <feOffset dy="8.86699" />
            <feGaussianBlur stdDeviation="13.3005" />
            <feColorMatrix
                type="matrix"
                values="0 0 0 0 0.00392157 0 0 0 0 0.0509804 0 0 0 0 0.121569 0 0 0 0.08 0"
            />
            <feBlend
                mode="normal"
                in2="BackgroundImageFix"
                result="effect1_dropShadow_26:23"
            />
            <feColorMatrix
                in="SourceAlpha"
                type="matrix"
                values="0 0 0 0 0 0 0 0 0 0 0 0 0 0 0 0 0 0 127 0"
                result="hardAlpha"
            />
            <feOffset dy="4.4335" />
            <feGaussianBlur stdDeviation="6.65025" />
            <feComposite in2="hardAlpha" operator="out" />
            <feColorMatrix
                type="matrix"
                values="0 0 0 0 0.00392157 0 0 0 0 0.0509804 0 0 0 0 0.121569 0 0 0 0.08 0"
            />
            <feBlend
                mode="normal"
                in2="effect1_dropShadow_26:23"
                result="effect2_dropShadow_26:23"
            />
            <feColorMatrix
                in="SourceAlpha"
                type="matrix"
                values="0 0 0 0 0 0 0 0 0 0 0 0 0 0 0 0 0 0 127 0"
                result="hardAlpha"
            />
            <feOffset />
            <feGaussianBlur stdDeviation="1.10837" />
            <feColorMatrix
                type="matrix"
                values="0 0 0 0 0.00392157 0 0 0 0 0.0509804 0 0 0 0 0.121569 0 0 0 0.12 0"
            />
            <feBlend
                mode="normal"
                in2="effect2_dropShadow_26:23"
                result="effect3_dropShadow_26:23"
            />
            <feBlend
                mode="normal"
                in="SourceGraphic"
                in2="effect3_dropShadow_26:23"
                result="shape"
            />
        </filter>
        <filter
            id="filter1_dd_26:23"
            x="-209.911"
            y="13.3006"
            width="369.089"
            height="267.118"
            filterUnits="userSpaceOnUse"
            color-interpolation-filters="sRGB"
        >
            <feFlood flood-opacity="0" result="BackgroundImageFix" />
            <feColorMatrix
                in="SourceAlpha"
                type="matrix"
                values="0 0 0 0 0 0 0 0 0 0 0 0 0 0 0 0 0 0 127 0"
                result="hardAlpha"
            />
            <feOffset dy="8.86699" />
            <feGaussianBlur stdDeviation="44.335" />
            <feColorMatrix
                type="matrix"
                values="0 0 0 0 0.00392157 0 0 0 0 0.0509804 0 0 0 0 0.121569 0 0 0 0.38 0"
            />
            <feBlend
                mode="normal"
                in2="BackgroundImageFix"
                result="effect1_dropShadow_26:23"
            />
            <feColorMatrix
                in="SourceAlpha"
                type="matrix"
                values="0 0 0 0 0 0 0 0 0 0 0 0 0 0 0 0 0 0 127 0"
                result="hardAlpha"
            />
            <feOffset />
            <feGaussianBlur stdDeviation="1.10837" />
            <feColorMatrix
                type="matrix"
                values="0 0 0 0 0.00392157 0 0 0 0 0.0509804 0 0 0 0 0.121569 0 0 0 0.12 0"
            />
            <feBlend
                mode="normal"
                in2="effect1_dropShadow_26:23"
                result="effect2_dropShadow_26:23"
            />
            <feBlend
                mode="normal"
                in="SourceGraphic"
                in2="effect2_dropShadow_26:23"
                result="shape"
            />
        </filter>
        <filter
            id="filter2_ddd_26:23"
            x="-359.299"
            y="-829.206"
            width="1112.64"
            height="1034.48"
            filterUnits="userSpaceOnUse"
            color-interpolation-filters="sRGB"
        >
            <feFlood flood-opacity="0" result="BackgroundImageFix" />
            <feColorMatrix
                in="SourceAlpha"
                type="matrix"
                values="0 0 0 0 0 0 0 0 0 0 0 0 0 0 0 0 0 0 127 0"
                result="hardAlpha"
            />
            <feOffset dy="8.86699" />
            <feGaussianBlur stdDeviation="44.335" />
            <feColorMatrix
                type="matrix"
                values="0 0 0 0 0.00392157 0 0 0 0 0.0509804 0 0 0 0 0.121569 0 0 0 0.38 0"
            />
            <feBlend
                mode="normal"
                in2="BackgroundImageFix"
                result="effect1_dropShadow_26:23"
            />
            <feColorMatrix
                in="SourceAlpha"
                type="matrix"
                values="0 0 0 0 0 0 0 0 0 0 0 0 0 0 0 0 0 0 127 0"
                result="hardAlpha"
            />
            <feOffset dy="4.4335" />
            <feGaussianBlur stdDeviation="64.2857" />
            <feComposite in2="hardAlpha" operator="out" />
            <feColorMatrix
                type="matrix"
                values="0 0 0 0 0.00392157 0 0 0 0 0.0509804 0 0 0 0 0.121569 0 0 0 0.2 0"
            />
            <feBlend
                mode="normal"
                in2="effect1_dropShadow_26:23"
                result="effect2_dropShadow_26:23"
            />
            <feColorMatrix
                in="SourceAlpha"
                type="matrix"
                values="0 0 0 0 0 0 0 0 0 0 0 0 0 0 0 0 0 0 127 0"
                result="hardAlpha"
            />
            <feOffset />
            <feGaussianBlur stdDeviation="36.5764" />
            <feColorMatrix
                type="matrix"
                values="0 0 0 0 0.00392157 0 0 0 0 0.0509804 0 0 0 0 0.121569 0 0 0 0.12 0"
            />
            <feBlend
                mode="normal"
                in2="effect2_dropShadow_26:23"
                result="effect3_dropShadow_26:23"
            />
            <feBlend
                mode="normal"
                in="SourceGraphic"
                in2="effect3_dropShadow_26:23"
                result="shape"
            />
        </filter>
        <radialGradient
            id="paint0_radial_26:23"
            cx="0"
            cy="0"
            r="1"
            gradientUnits="userSpaceOnUse"
            gradientTransform="translate(-179.894 1000.52) rotate(-62.2565) scale(1051.21 834.405)"
        >
            <stop stop-color="#034CDB" />
            <stop offset="0.913439" stop-color="#0084FF" />
        </radialGradient>
        <clipPath id="clip0_26:23">
            <rect
                width="415.64"
                height="900"
                fill="white"
                transform="translate(0.67981)"
            />
        </clipPath>
        <clipPath id="clip1_26:23">
            <rect
                width="414.532"
                height="900"
                fill="white"
                transform="translate(0.67981)"
            />
        </clipPath>
    </defs>
</svg>
